New OT Abhaya.sfdir
StartChar: exclam
Encoding: 559 33 559
Width: 185
VWidth: 1000
Flags: W
LayerCount: 2
Fore
SplineSet
89 79 m 0,0,1
 106 79 106 79 119.5 67 c 128,-1,2
 133 55 133 55 133 38 c 0,3,4
 133 20 133 20 119.5 7 c 128,-1,5
 106 -6 106 -6 89 -6 c 0,6,7
 71 -6 71 -6 58.5 6.5 c 128,-1,8
 46 19 46 19 46 36 c 0,9,10
 46 54 46 54 58.5 66.5 c 128,-1,11
 71 79 71 79 89 79 c 0,0,1
102 119 m 1,12,-1
 78 119 l 1,13,14
 75 185 75 185 68 337 c 0,15,16
 55 570 55 570 55 624 c 0,17,18
 55 682 55 682 93 682 c 0,19,20
 129 682 129 682 127 623 c 0,21,22
 121 469 121 469 113 340 c 0,23,24
 111 273 111 273 102 119 c 1,12,-1
EndSplineSet
Validated: 33
EndChar
StartChar: quotedbl
Encoding: 560 34 560
Width: 365
VWidth: 1000
Flags: W
LayerCount: 2
Fore
SplineSet
164 594 m 0,0,1
 154 575 154 575 134 573.5 c 128,-1,2
 114 572 114 572 109 564 c 0,3,4
 102 553 102 553 102 541 c 0,5,6
 102 510 102 510 146 468 c 1,7,-1
 116 468 l 1,8,9
 74 503 74 503 65 548 c 0,10,11
 62 565 62 565 62 580 c 0,12,13
 62 653 62 653 119 653 c 0,14,15
 140 653 140 653 154 639.5 c 128,-1,16
 168 626 168 626 168 609 c 0,17,18
 168 601 168 601 164 594 c 0,0,1
303 594 m 0,19,20
 293 575 293 575 273.5 573.5 c 128,-1,21
 254 572 254 572 249 564 c 0,22,23
 242 553 242 553 242 540 c 0,24,25
 242 511 242 511 285 468 c 1,26,-1
 256 468 l 1,27,28
 214 502 214 502 205 548 c 0,29,30
 202 565 202 565 202 580 c 0,31,32
 202 653 202 653 259 653 c 0,33,34
 280 653 280 653 293.5 639.5 c 128,-1,35
 307 626 307 626 307 610 c 0,36,37
 307 601 307 601 303 594 c 0,19,20
EndSplineSet
Validated: 1
EndChar
StartChar: numbersign
Encoding: 561 35 561
Width: 661
Flags: W
LayerCount: 2
Fore
SplineSet
492 450 m 1,0,-1
 460 280 l 1,1,-1
 600 280 l 1,2,-1
 600 214 l 1,3,-1
 446 214 l 1,4,-1
 404 0 l 1,5,-1
 335 0 l 1,6,-1
 377 214 l 1,7,-1
 224 214 l 1,8,-1
 184 0 l 1,9,-1
 116 0 l 1,10,-1
 154 214 l 1,11,-1
 26 214 l 1,12,-1
 26 280 l 1,13,-1
 168 280 l 1,14,-1
 201 450 l 1,15,-1
 64 450 l 1,16,-1
 64 514 l 1,17,-1
 213 514 l 1,18,-1
 254 731 l 1,19,-1
 324 731 l 1,20,-1
 284 514 l 1,21,-1
 437 514 l 1,22,-1
 478 731 l 1,23,-1
 546 731 l 1,24,-1
 505 514 l 1,25,-1
 635 514 l 1,26,-1
 635 450 l 1,27,-1
 492 450 l 1,0,-1
237 280 m 1,28,-1
 390 280 l 1,29,-1
 422 450 l 1,30,-1
 270 450 l 1,31,-1
 237 280 l 1,28,-1
EndSplineSet
Validated: 1
EndChar
StartChar: percent
Encoding: 562 37 562
Width: 556
VWidth: 1000
Flags: W
LayerCount: 2
Fore
SplineSet
39 -1 m 1,0,-1
 435 677 l 1,1,-1
 475 677 l 1,2,-1
 80 -1 l 1,3,-1
 39 -1 l 1,0,-1
143 636 m 0,4,5
 173 673 173 673 224 673 c 0,6,7
 260 673 260 673 287 652 c 0,8,9
 324 623 324 623 324 574 c 0,10,11
 324 538 324 538 302 511 c 0,12,13
 272 475 272 475 223 475 c 0,14,15
 187 475 187 475 159 496 c 0,16,17
 121 525 121 525 121 574 c 0,18,19
 121 610 121 610 143 636 c 0,4,5
170 612 m 0,20,21
 157 596 157 596 157 575 c 0,22,23
 157 544 157 544 183 524 c 0,24,25
 199 512 199 512 220 512 c 0,26,27
 253 512 253 512 273 537 c 0,28,29
 286 553 286 553 286 574 c 0,30,31
 286 605 286 605 260 625 c 0,32,33
 244 637 244 637 223 637 c 0,34,35
 190 637 190 637 170 612 c 0,20,21
218 162 m 0,36,37
 247 198 247 198 296 198 c 0,38,39
 333 198 333 198 361 176 c 0,40,41
 399 147 399 147 399 98 c 0,42,43
 399 63 399 63 377 36 c 0,44,45
 348 0 348 0 297 0 c 0,46,47
 261 0 261 0 234 21 c 0,48,49
 196 51 196 51 196 100 c 0,50,51
 196 135 196 135 218 162 c 0,36,37
245 138 m 0,52,53
 232 122 232 122 232 100 c 0,54,55
 232 67 232 67 257 49 c 0,56,57
 274 37 274 37 295 37 c 0,58,59
 328 37 328 37 348 62 c 0,60,61
 361 78 361 78 361 99 c 0,62,63
 361 131 361 131 336 150 c 0,64,65
 319 163 319 163 297 163 c 0,66,67
 264 163 264 163 245 138 c 0,52,53
EndSplineSet
Validated: 1
EndChar
StartChar: quotesingle
Encoding: 563 39 563
Width: 238
VWidth: 1000
Flags: W
LayerCount: 2
Fore
SplineSet
65 594 m 0,0,1
 61 601 61 601 61 609 c 0,2,3
 61 626 61 626 75 639.5 c 128,-1,4
 89 653 89 653 109 653 c 0,5,6
 138 653 138 653 154 630 c 0,7,8
 167 610 167 610 167 580 c 0,9,10
 167 565 167 565 164 548 c 0,11,12
 154 497 154 497 112 468 c 1,13,-1
 84 468 l 1,14,15
 126 512 126 512 126 540 c 0,16,17
 126 553 126 553 119 564 c 0,18,19
 114 572 114 572 94.5 573.5 c 128,-1,20
 75 575 75 575 65 594 c 0,0,1
EndSplineSet
Validated: 1
EndChar
StartChar: parenleft
Encoding: 564 40 564
Width: 261
VWidth: 1000
Flags: W
LayerCount: 2
Fore
SplineSet
236 627 m 1,0,-1
 236 618 l 1,1,2
 162 528 162 528 130 453 c 0,3,4
 94 366 94 366 95 257 c 0,5,6
 96 150 96 150 128 63.5 c 128,-1,7
 160 -23 160 -23 234 -111 c 1,8,-1
 234 -122 l 1,9,10
 40 10 40 10 36 248 c 0,11,12
 34 373 34 373 82.5 464 c 128,-1,13
 131 555 131 555 236 627 c 1,0,-1
EndSplineSet
Validated: 33
EndChar
StartChar: parenright
Encoding: 565 41 565
Width: 261
VWidth: 1000
Flags: W
LayerCount: 2
Fore
SplineSet
36 627 m 1,0,1
 241 486 241 486 236 248 c 0,2,3
 231 12 231 12 37 -122 c 1,4,-1
 37 -111 l 1,5,6
 111 -24 111 -24 143 64 c 0,7,8
 174 149 174 149 175 257 c 0,9,10
 176 366 176 366 140 453 c 0,11,12
 109 528 109 528 36 618 c 1,13,-1
 36 627 l 1,14,-1
 36 627 l 1,0,1
EndSplineSet
Validated: 37
EndChar
StartChar: plus
Encoding: 567 43 567
Width: 585
Flags: W
LayerCount: 2
Fore
SplineSet
328 398 m 1,0,-1
 532 398 l 1,1,-1
 532 324 l 1,2,-1
 328 324 l 1,3,-1
 328 114 l 1,4,-1
 255 114 l 1,5,-1
 255 324 l 1,6,-1
 51 324 l 1,7,-1
 51 398 l 1,8,-1
 255 398 l 1,9,-1
 255 610 l 1,10,-1
 328 610 l 1,11,-1
 328 398 l 1,0,-1
EndSplineSet
Validated: 1
EndChar
StartChar: comma
Encoding: 568 44 568
Width: 202
VWidth: 1000
Flags: W
LayerCount: 2
Fore
SplineSet
44 35 m 0,0,1
 41 41 41 41 41 49 c 0,2,3
 41 67 41 67 56 82 c 128,-1,4
 71 97 71 97 92 97 c 0,5,6
 122 97 122 97 138 72 c 0,7,8
 151 51 151 51 151 19 c 0,9,10
 151 4 151 4 148 -11 c 0,11,12
 144 -32 144 -32 124 -62 c 0,13,14
 106 -87 106 -87 91 -101 c 1,15,-1
 57 -99 l 1,16,17
 101 -55 101 -55 101 -21 c 0,18,19
 101 -9 101 -9 95.5 0 c 128,-1,20
 90 9 90 9 72 12.5 c 128,-1,21
 54 16 54 16 44 35 c 0,0,1
EndSplineSet
Validated: 1
EndChar
StartChar: hyphen
Encoding: 569 45 569
Width: 344
VWidth: 1000
Flags: W
LayerCount: 2
Fore
SplineSet
43 234 m 1,0,-1
 271 234 l 1,1,-1
 271 187 l 1,2,-1
 43 187 l 1,3,-1
 43 234 l 1,0,-1
EndSplineSet
Validated: 1
EndChar
StartChar: period
Encoding: 570 46 570
Width: 208
VWidth: 1000
Flags: W
LayerCount: 2
Fore
SplineSet
96 99 m 0,0,1
 119 99 119 99 135 83 c 128,-1,2
 151 67 151 67 151 46 c 0,3,4
 151 22 151 22 134 6.5 c 128,-1,5
 117 -9 117 -9 95 -9 c 0,6,7
 72 -9 72 -9 56.5 7.5 c 128,-1,8
 41 24 41 24 41 45 c 0,9,10
 41 68 41 68 57.5 83.5 c 128,-1,11
 74 99 74 99 96 99 c 0,0,1
EndSplineSet
Validated: 1
EndChar
StartChar: slash
Encoding: 571 47 571
Width: 407
VWidth: 1000
Flags: W
LayerCount: 2
Fore
SplineSet
329 607 m 1,0,-1
 356 607 l 1,1,-1
 74 -32 l 1,2,-1
 49 -32 l 1,3,-1
 329 607 l 1,0,-1
EndSplineSet
Validated: 1
EndChar
StartChar: zero
Encoding: 572 48 572
Width: 454
VWidth: 1000
Flags: W
LayerCount: 2
Fore
SplineSet
343 274 m 0,0,1
 344 368 344 368 329 433 c 0,2,3
 305 540 305 540 220 540 c 0,4,5
 137 540 137 540 110 427 c 0,6,7
 96 369 96 369 96 268 c 0,8,9
 96 185 96 185 112 124 c 0,10,11
 138 25 138 25 223 25 c 0,12,13
 298 25 298 25 320 87.5 c 128,-1,14
 342 150 342 150 343 274 c 0,0,1
371 466 m 0,15,16
 412 389 412 389 412 283 c 0,17,18
 412 198 412 198 387 130 c 0,19,20
 337 -4 337 -4 217 -4 c 0,21,22
 134 -4 134 -4 83 67 c 0,23,24
 27 144 27 144 27 281 c 0,25,26
 27 387 27 387 64 462 c 0,27,28
 115 564 115 564 222 565 c 0,29,30
 318 566 318 566 371 466 c 0,15,16
EndSplineSet
Validated: 33
EndChar
StartChar: two
Encoding: 574 50 574
Width: 447
VWidth: 1000
Flags: W
LayerCount: 2
Fore
SplineSet
28 9 m 1,0,1
 170 154 170 154 233.5 237.5 c 128,-1,2
 297 321 297 321 297 380 c 0,3,4
 297 445 297 445 258 481 c 0,5,6
 224 513 224 513 180 513 c 0,7,8
 127 513 127 513 85 466 c 0,9,10
 65 444 65 444 55 392 c 1,11,-1
 29 396 l 1,12,13
 63 563 63 563 206 563 c 0,14,15
 273 563 273 563 317.5 522 c 128,-1,16
 362 481 362 481 362 414 c 256,17,18
 362 347 362 347 316 284 c 0,19,20
 255 201 255 201 101 47 c 1,21,-1
 292 47 l 2,22,23
 334 47 334 47 359 72 c 0,24,25
 370 83 370 83 392 118 c 1,26,-1
 407 113 l 1,27,-1
 360 -1 l 1,28,-1
 28 -1 l 1,29,-1
 28 9 l 1,0,1
EndSplineSet
Validated: 1
EndChar
StartChar: three
Encoding: 575 51 575
Width: 401
VWidth: 1000
Flags: W
LayerCount: 2
Fore
SplineSet
118 47 m 0,0,1
 142 32 142 32 184 32 c 0,2,3
 235 32 235 32 268 66 c 0,4,5
 294 93 294 93 297 144 c 0,6,7
 300 199 300 199 276 233 c 0,8,9
 240 284 240 284 184 284 c 0,10,11
 174 284 174 284 164 282 c 0,12,13
 124 276 124 276 133 276 c 1,14,15
 132 276 132 276 120 273 c 1,16,-1
 119 293 l 1,17,18
 196 319 196 319 224 342 c 0,19,20
 256 368 256 368 265 416 c 0,21,22
 267 428 267 428 267 437 c 0,23,24
 267 470 267 470 241.5 496.5 c 128,-1,25
 216 523 216 523 163 519 c 0,26,27
 130 517 130 517 88 479 c 0,28,29
 68 461 68 461 53 417 c 1,30,-1
 29 427 l 1,31,32
 45 488 45 488 89.5 525 c 128,-1,33
 134 562 134 562 197 563 c 0,34,35
 252 564 252 564 290.5 533.5 c 128,-1,36
 329 503 329 503 329 449 c 0,37,38
 329 410 329 410 300 376 c 0,39,40
 283 356 283 356 246 331 c 1,41,42
 289 323 289 323 314 295 c 0,43,44
 359 244 359 244 360 186 c 0,45,46
 361 93 361 93 284 39 c 0,47,48
 217 -9 217 -9 120 -9 c 0,49,50
 71 -9 71 -9 49.5 5 c 128,-1,51
 28 19 28 19 28 38 c 0,52,53
 28 47 28 47 34 57 c 0,54,55
 44 67 44 67 61 67 c 0,56,57
 86 67 86 67 118 47 c 0,0,1
EndSplineSet
Validated: 33
EndChar
StartChar: four
Encoding: 576 52 576
Width: 461
VWidth: 1000
Flags: W
LayerCount: 2
Fore
SplineSet
260 464 m 1,0,-1
 63 190 l 1,1,-1
 260 190 l 1,2,-1
 260 464 l 1,0,-1
293 561 m 1,3,-1
 333 561 l 1,4,-1
 333 190 l 1,5,-1
 419 190 l 1,6,-1
 419 139 l 1,7,-1
 333 139 l 1,8,-1
 333 -1 l 1,9,-1
 262 -1 l 1,10,-1
 262 139 l 1,11,-1
 25 139 l 1,12,-1
 25 192 l 1,13,-1
 293 561 l 1,3,-1
EndSplineSet
Validated: 1
EndChar
StartChar: five
Encoding: 577 53 577
Width: 407
VWidth: 1000
Flags: W
LayerCount: 2
Fore
SplineSet
120 51 m 0,0,1
 150 34 150 34 186 36 c 0,2,3
 242 40 242 40 271 70 c 0,4,5
 309 110 309 110 309 160 c 0,6,7
 309 288 309 288 203 331 c 0,8,9
 147 354 147 354 99 354 c 0,10,11
 83 354 83 354 71 351 c 1,12,13
 55 354 55 354 56 355 c 256,14,15
 57 356 57 356 58 359 c 2,16,-1
 148 555 l 1,17,-1
 321 555 l 2,18,19
 334 555 334 555 344 561 c 0,20,21
 351 565 351 565 364 576 c 1,22,-1
 373 570 l 1,23,-1
 340 498 l 2,24,25
 340 491 340 491 314 491 c 2,26,-1
 152 491 l 1,27,-1
 114 411 l 1,28,29
 171 409 171 409 219 393 c 0,30,31
 274 375 274 375 305.5 345 c 128,-1,32
 337 315 337 315 351.5 280.5 c 128,-1,33
 366 246 366 246 366 203 c 0,34,35
 366 108 366 108 297 49 c 0,36,37
 232 -7 232 -7 135 -8 c 0,38,39
 99 -8 99 -8 69 0 c 0,40,41
 27 12 27 12 28 45 c 0,42,43
 28 61 28 61 40 66 c 0,44,45
 60 75 60 75 71 72 c 256,46,47
 82 69 82 69 120 51 c 0,0,1
EndSplineSet
Validated: 33
EndChar
StartChar: six
Encoding: 578 54 578
Width: 431
VWidth: 1000
Flags: W
LayerCount: 2
Fore
SplineSet
217 -8 m 0,0,1
 130 -8 130 -8 76 72 c 0,2,3
 28 143 28 143 28 234 c 0,4,5
 28 378 28 378 142 476 c 0,6,7
 240 560 240 560 371 562 c 1,8,-1
 373 542 l 1,9,10
 342 537 342 537 286 522 c 1,11,12
 239 501 239 501 217 484 c 0,13,14
 179 455 179 455 150.5 407 c 128,-1,15
 122 359 122 359 110 309 c 1,16,17
 134 331 134 331 162 340 c 0,18,19
 201 353 201 353 238 353 c 0,20,21
 310 353 310 353 350 304.5 c 128,-1,22
 390 256 390 256 390 183 c 0,23,24
 390 107 390 107 342 51 c 0,25,26
 292 -8 292 -8 217 -8 c 0,0,1
307 248 m 0,27,28
 277 307 277 307 203 308 c 0,29,30
 144 309 144 309 112 263 c 0,31,32
 97 241 97 241 98 201 c 0,33,34
 100 130 100 130 134 81 c 0,35,36
 174 24 174 24 223 24 c 0,37,38
 273 24 273 24 295 63 c 0,39,40
 321 109 321 109 321 153 c 0,41,42
 321 220 321 220 307 248 c 0,27,28
EndSplineSet
Validated: 33
EndChar
StartChar: eight
Encoding: 580 56 580
Width: 399
VWidth: 1000
Flags: W
LayerCount: 2
Fore
SplineSet
303 103 m 0,0,1
 305 146 305 146 273 179 c 0,2,3
 248 206 248 206 164 262 c 1,4,5
 114 228 114 228 98 190 c 0,6,7
 88 166 88 166 88 134 c 0,8,9
 88 83 88 83 121 49 c 0,10,11
 150 19 150 19 201 19 c 0,12,13
 245 19 245 19 273.5 45 c 128,-1,14
 302 71 302 71 303 103 c 0,0,1
257 366 m 0,15,16
 284 402 284 402 282 444 c 0,17,18
 280 483 280 483 259 510 c 0,19,20
 243 531 243 531 184 531 c 0,21,22
 145 531 145 531 120 510 c 0,23,24
 91 486 91 486 87 455 c 0,25,26
 83 419 83 419 120 379 c 128,-1,27
 157 339 157 339 194 316 c 1,28,29
 244 352 244 352 257 366 c 0,15,16
65 344 m 0,30,31
 33 379 33 379 33 432 c 0,32,33
 33 494 33 494 86 530 c 0,34,35
 132 562 132 562 197 562 c 0,36,37
 255 562 255 562 296 532 c 0,38,39
 343 499 343 499 343 443 c 0,40,41
 343 395 343 395 303 358 c 0,42,43
 272 330 272 330 222 303 c 1,44,45
 303 244 303 244 326 216 c 0,46,47
 359 175 359 175 359 128 c 0,48,49
 359 62 359 62 308 24 c 0,50,51
 262 -11 262 -11 194 -11 c 0,52,53
 124 -11 124 -11 76.5 25 c 128,-1,54
 29 61 29 61 28 123 c 0,55,56
 27 174 27 174 62 215 c 0,57,58
 92 251 92 251 137 280 c 1,59,60
 89 318 89 318 65 344 c 0,30,31
EndSplineSet
Validated: 33
EndChar
StartChar: nine
Encoding: 581 57 581
Width: 431
VWidth: 1000
Flags: W
LayerCount: 2
Fore
SplineSet
200 562 m 0,0,1
 287 562 287 562 342 482 c 0,2,3
 390 411 390 411 390 320 c 0,4,5
 390 176 390 176 275 78 c 0,6,7
 177 -5 177 -5 47 -7 c 1,8,-1
 44 20 l 1,9,10
 76 24 76 24 133 38 c 1,11,12
 179 56 179 56 201 74 c 0,13,14
 240 106 240 106 266 147 c 0,15,16
 296 195 296 195 308 243 c 1,17,18
 289 227 289 227 256 214.5 c 128,-1,19
 223 202 223 202 180 202 c 0,20,21
 107 202 107 202 66 251 c 0,22,23
 28 297 28 297 28 372 c 256,24,25
 28 447 28 447 77 504.5 c 128,-1,26
 126 562 126 562 200 562 c 0,0,1
113 302 m 0,27,28
 142 243 142 243 215 243 c 0,29,30
 261 243 261 243 300 289 c 0,31,32
 315 307 315 307 317 349 c 0,33,34
 320 414 320 414 289 472 c 128,-1,35
 258 530 258 530 196 530 c 0,36,37
 145 530 145 530 120 485 c 0,38,39
 100 449 100 449 97 396 c 0,40,41
 94 341 94 341 113 302 c 0,27,28
EndSplineSet
Validated: 33
EndChar
StartChar: colon
Encoding: 582 58 582
Width: 202
VWidth: 1000
Flags: W
LayerCount: 2
Fore
SplineSet
53 157 m 0,0,1
 67 176 67 176 93 176 c 0,2,3
 110 176 110 176 122 167 c 0,4,5
 143 151 143 151 143 126 c 0,6,7
 143 106 143 106 128.5 93 c 128,-1,8
 114 80 114 80 94 80 c 0,9,10
 77 80 77 80 63 90 c 0,11,12
 44 104 44 104 44 129 c 0,13,14
 44 145 44 145 53 157 c 0,0,1
53 323 m 0,15,16
 68 343 68 343 94 343 c 0,17,18
 110 343 110 343 122 334 c 0,19,20
 143 318 143 318 143 293 c 0,21,22
 143 277 143 277 134 265 c 0,23,24
 117 246 117 246 92 246 c 0,25,26
 76 246 76 246 63 255 c 0,27,28
 44 269 44 269 44 294 c 0,29,30
 44 311 44 311 53 323 c 0,15,16
EndSplineSet
Validated: 1
EndChar
StartChar: semicolon
Encoding: 583 59 583
Width: 202
VWidth: 1000
Flags: W
LayerCount: 2
Fore
SplineSet
44 35 m 0,0,1
 41 41 41 41 41 49 c 0,2,3
 41 67 41 67 56 82 c 128,-1,4
 71 97 71 97 92 97 c 0,5,6
 122 97 122 97 138 72 c 0,7,8
 151 51 151 51 151 19 c 0,9,10
 151 4 151 4 148 -11 c 0,11,12
 144 -32 144 -32 124 -62 c 0,13,14
 106 -87 106 -87 91 -101 c 1,15,-1
 57 -99 l 1,16,17
 101 -55 101 -55 101 -21 c 0,18,19
 101 -9 101 -9 95.5 0 c 128,-1,20
 90 9 90 9 72 12.5 c 128,-1,21
 54 16 54 16 44 35 c 0,0,1
99 271 m 0,22,23
 122 271 122 271 138 255 c 128,-1,24
 154 239 154 239 154 218 c 0,25,26
 154 194 154 194 137 178.5 c 128,-1,27
 120 163 120 163 98 163 c 0,28,29
 75 163 75 163 59.5 179.5 c 128,-1,30
 44 196 44 196 44 217 c 0,31,32
 44 240 44 240 60.5 255.5 c 128,-1,33
 77 271 77 271 99 271 c 0,22,23
EndSplineSet
Validated: 1
EndChar
StartChar: less
Encoding: 584 60 584
Width: 585
Flags: W
LayerCount: 2
Fore
SplineSet
534 119 m 1,0,-1
 51 331 l 1,1,-1
 51 382 l 1,2,-1
 534 622 l 1,3,-1
 534 542 l 1,4,-1
 148 360 l 1,5,-1
 534 198 l 1,6,-1
 534 119 l 1,0,-1
EndSplineSet
Validated: 1
EndChar
StartChar: equal
Encoding: 585 61 585
Width: 356
VWidth: 1000
Flags: W
LayerCount: 2
Fore
SplineSet
50 190 m 1,0,-1
 303 190 l 1,1,-1
 303 153 l 1,2,-1
 50 153 l 1,3,-1
 50 190 l 1,0,-1
52 285 m 1,4,-1
 305 285 l 1,5,-1
 305 248 l 1,6,-1
 52 248 l 1,7,-1
 52 285 l 1,4,-1
EndSplineSet
Validated: 1
EndChar
StartChar: greater
Encoding: 586 62 586
Width: 585
Flags: W
LayerCount: 2
Fore
SplineSet
51 198 m 1,0,-1
 437 360 l 1,1,-1
 51 542 l 1,2,-1
 51 622 l 1,3,-1
 534 382 l 1,4,-1
 534 331 l 1,5,-1
 51 119 l 1,6,-1
 51 198 l 1,0,-1
EndSplineSet
Validated: 1
EndChar
StartChar: question
Encoding: 587 63 587
Width: 385
VWidth: 1000
Flags: W
LayerCount: 2
Fore
SplineSet
343 455 m 0,0,1
 343 367 343 367 269 312 c 0,2,3
 179 246 179 246 188 134 c 1,4,-1
 166 134 l 1,5,6
 158 172 158 172 159 195 c 0,7,8
 162 257 162 257 217 328 c 0,9,10
 266 392 266 392 268 450 c 0,11,12
 270 499 270 499 246 534 c 0,13,14
 226 564 226 564 161 564 c 0,15,16
 102 564 102 564 75 516 c 0,17,18
 63 494 63 494 63 470 c 0,19,20
 63 437 63 437 78 423 c 128,-1,21
 93 409 93 409 120 410 c 0,22,23
 137 411 137 411 144 399.5 c 128,-1,24
 151 388 151 388 148 375 c 0,25,26
 142 353 142 353 108 353 c 0,27,28
 87 353 87 353 73 362 c 0,29,30
 25 393 25 393 30 471 c 0,31,32
 33 517 33 517 69 554 c 0,33,34
 108 595 108 595 186 595 c 0,35,36
 253 595 253 595 296 559 c 0,37,38
 343 520 343 520 343 455 c 0,0,1
183 73 m 256,39,40
 200 73 200 73 211.5 61 c 128,-1,41
 223 49 223 49 223 32 c 0,42,43
 223 16 223 16 212 4.5 c 128,-1,44
 201 -7 201 -7 183 -7 c 0,45,46
 166 -7 166 -7 154 4 c 128,-1,47
 142 15 142 15 142 32 c 256,48,49
 142 49 142 49 154 61 c 128,-1,50
 166 73 166 73 183 73 c 256,39,40
EndSplineSet
Validated: 33
EndChar
StartChar: uni0D82
Encoding: 4 3458 4
Width: 364
VWidth: 1000
GlyphClass: 2
Flags: W
LayerCount: 2
Fore
SplineSet
65 256 m 0,0,1
 107 304 107 304 174 304 c 0,2,3
 227 304 227 304 266 271 c 0,4,5
 315 229 315 229 315 164 c 0,6,7
 315 112 315 112 282 73 c 0,8,9
 241 25 241 25 175 25 c 0,10,11
 122 25 122 25 81 59 c 0,12,13
 31 100 31 100 31 166 c 0,14,15
 31 218 31 218 65 256 c 0,0,1
91 236 m 0,16,17
 68 208 68 208 68 172 c 0,18,19
 68 122 68 122 107 92 c 0,20,21
 136 69 136 69 172 69 c 0,22,23
 222 69 222 69 254 109 c 0,24,25
 277 137 277 137 277 173 c 0,26,27
 277 221 277 221 238 252 c 0,28,29
 210 275 210 275 173 275 c 0,30,31
 122 275 122 275 91 236 c 0,16,17
EndSplineSet
Validated: 1
EndChar
StartChar: uni0D83
Encoding: 5 3459 5
Width: 248
VWidth: 1000
GlyphClass: 2
Flags: W
LayerCount: 2
Fore
SplineSet
53 173 m 0,0,1
 79 201 79 201 116 201 c 0,2,3
 148 201 148 201 171 180 c 0,4,5
 199 155 199 155 199 119 c 0,6,7
 199 88 199 88 177 64 c 0,8,9
 152 37 152 37 115 37 c 0,10,11
 84 37 84 37 60 58 c 0,12,13
 32 83 32 83 32 119 c 0,14,15
 32 150 32 150 53 173 c 0,0,1
53 360 m 0,16,17
 78 387 78 387 115 387 c 0,18,19
 147 387 147 387 171 366 c 0,20,21
 199 342 199 342 199 306 c 0,22,23
 199 275 199 275 177 251 c 0,24,25
 152 224 152 224 116 224 c 0,26,27
 84 224 84 224 60 245 c 0,28,29
 32 270 32 270 32 306 c 0,30,31
 32 337 32 337 53 360 c 0,16,17
60 305 m 0,32,33
 60 279 60 279 81 262 c 0,34,35
 96 250 96 250 116 250 c 0,36,37
 143 250 143 250 159 270 c 0,38,39
 171 285 171 285 171 304 c 0,40,41
 171 330 171 330 150 346 c 0,42,43
 134 358 134 358 115 358 c 0,44,45
 93 358 93 358 76.5 342.5 c 128,-1,46
 60 327 60 327 60 305 c 0,32,33
60 118 m 0,47,48
 60 92 60 92 81 75 c 0,49,50
 96 63 96 63 116 63 c 0,51,52
 143 63 143 63 159 83 c 0,53,54
 171 98 171 98 171 117 c 0,55,56
 171 143 171 143 150 159 c 0,57,58
 134 171 134 171 115 171 c 0,59,60
 93 171 93 171 76.5 155.5 c 128,-1,61
 60 140 60 140 60 118 c 0,47,48
EndSplineSet
Validated: 1
EndChar
StartChar: uni0D85
Encoding: 6 3461 6
Width: 573
VWidth: 1000
GlyphClass: 2
Flags: W
LayerCount: 2
Fore
SplineSet
316 309 m 1,0,1
 314 368 314 368 268 386 c 0,2,3
 250 393 250 393 235.75 393 c 128,-1,4
 221.5 393 221.5 393 211 386 c 0,5,6
 200 379 200 379 185 354 c 0,7,8
 174 335 174 335 152 332 c 0,9,10
 148 331.4 148 331.4 144.32 331.4 c 0,11,12
 129.6 331.4 129.6 331.4 120 341 c 0,13,14
 108 353 108 353 108 371 c 0,15,16
 108 384 108 384 115 395 c 0,17,18
 140 431 140 431 214 433 c 0,19,20
 215.512820513 433.025641026 215.512820513 433.025641026 217.011176857 433.025641026 c 0,21,22
 273.948717949 433.025641026 273.948717949 433.025641026 310 396 c 0,23,24
 348 355 348 355 347 287 c 1,25,-1
 236 287 l 2,26,27
 182 287 182 287 147.5 251 c 128,-1,28
 113 215 113 215 113 164 c 0,29,30
 113 48 113 48 250 26 c 0,31,32
 270.125 22.9375 270.125 22.9375 293.50390625 22.9375 c 0,33,34
 323.5625 22.9375 323.5625 22.9375 359 28 c 1,35,-1
 359 313 l 2,36,37
 359 369 359 369 386 401 c 0,38,39
 409 427 409 427 439 435 c 1,40,-1
 462 424 l 1,41,42
 445 418 445 418 445 403 c 0,43,44
 445 398 445 398 448.5 392 c 128,-1,45
 452 386 452 386 491 352 c 0,46,47
 521 326 521 326 525 296 c 0,48,49
 526.014084507 288.732394366 526.014084507 288.732394366 526.014084507 281.936123785 c 0,50,51
 526.014084507 248.521126761 526.014084507 248.521126761 501.5 226.5 c 0,52,53
 472 200 472 200 428 200 c 0,54,55
 408 200 408 200 388 206 c 1,56,-1
 388 29 l 1,57,58
 425 35 425 35 463 50 c 0,59,60
 491 61 491 61 523 83 c 1,61,-1
 523 51 l 1,62,63
 503 39 503 39 472 26 c 128,-1,64
 441 13 441 13 388 2 c 1,65,-1
 388 -215 l 1,66,-1
 359 -215 l 1,67,-1
 359 0 l 1,68,69
 317.75 -4.5 317.75 -4.5 282.125 -4.5 c 0,70,71
 270.25 -4.5 270.25 -4.5 259 -4 c 0,72,73
 39 8 39 8 33 151 c 0,74,75
 32.7575757576 156.090909091 32.7575757576 156.090909091 32.7575757576 161.034894399 c 0,76,77
 32.7575757576 237.666666667 32.7575757576 237.666666667 91 279 c 0,78,79
 133 309 133 309 206 309 c 2,80,-1
 316 309 l 1,0,1
422 398 m 1,81,82
 388 381 388 381 388 317 c 2,83,-1
 388 233 l 1,84,85
 400 229 400 229 411 229 c 0,86,87
 433 229 433 229 447.5 242.5 c 128,-1,88
 462 256 462 256 463 277 c 0,89,90
 463.210526316 281.421052632 463.210526316 281.421052632 463.210526316 285.664819945 c 0,91,92
 463.210526316 321.736842105 463.210526316 321.736842105 448 345 c 0,93,94
 438 359 438 359 427 374 c 0,95,96
 421 385 421 385 422 398 c 1,81,82
EndSplineSet
Validated: 33
EndChar
StartChar: uni0D89
Encoding: 10 3465 10
Width: 593
VWidth: 1000
GlyphClass: 2
Flags: W
LayerCount: 2
Fore
SplineSet
333 131 m 1,0,1
 317 121 317 121 297 121 c 0,2,3
 266 121 266 121 241 142.5 c 128,-1,4
 216 164 216 164 216 195 c 0,5,6
 216 232 216 232 246 255.5 c 128,-1,7
 276 279 276 279 313 275 c 0,8,9
 347 272 347 272 368 246 c 128,-1,10
 389 220 389 220 389 186 c 0,11,12
 389 143 389 143 356 108.5 c 128,-1,13
 323 74 323 74 274 61 c 0,14,15
 247 54 247 54 218 54 c 0,16,17
 140 54 140 54 87.5 98 c 128,-1,18
 35 142 35 142 33 210 c 0,19,20
 30 317 30 317 105 378 c 0,21,22
 177 437 177 437 298 432 c 0,23,24
 416 427 416 427 479 368 c 0,25,26
 544 306 544 306 544 191 c 0,27,28
 544 117 544 117 497 61.5 c 128,-1,29
 450 6 450 6 384 -6 c 1,30,31
 438 -16 438 -16 439 -73 c 0,32,33
 440 -115 440 -115 395 -139 c 0,34,35
 359 -158 359 -158 311 -160 c 0,36,37
 217 -164 217 -164 182 -113 c 0,38,39
 173 -101 173 -101 173 -83 c 0,40,41
 173 -39 173 -39 211 -39 c 0,42,43
 236 -39 236 -39 236 -65 c 0,44,45
 236 -69 236 -69 233 -77.5 c 128,-1,46
 230 -86 230 -86 230 -92 c 0,47,48
 230 -113 230 -113 252 -126 c 128,-1,49
 274 -139 274 -139 312 -137 c 0,50,51
 371 -133 371 -133 375 -86 c 0,52,53
 381 -18 381 -18 238 -13 c 1,54,-1
 238 15 l 1,55,56
 275 10 275 10 306 10 c 0,57,58
 400 10 400 10 456 58 c 0,59,60
 506 101 506 101 506 179 c 0,61,62
 506 255 506 255 449 304 c 128,-1,63
 392 353 392 353 302 357 c 0,64,65
 208 361 208 361 147 325 c 0,66,67
 81 288 81 288 74 216 c 0,68,69
 68 154 68 154 124 110 c 0,70,71
 159 82 159 82 222 81 c 0,72,73
 289 80 289 80 333 131 c 1,0,1
250 198 m 0,74,75
 250 176 250 176 265.5 162.5 c 128,-1,76
 281 149 281 149 300 149 c 0,77,78
 322 149 322 149 336 164 c 128,-1,79
 350 179 350 179 350 198 c 0,80,81
 350 220 350 220 334.5 233.5 c 128,-1,82
 319 247 319 247 300 247 c 0,83,84
 278 247 278 247 264 232 c 128,-1,85
 250 217 250 217 250 198 c 0,74,75
EndSplineSet
Validated: 33
EndChar
StartChar: uni0D8A
Encoding: 11 3466 11
Width: 528
VWidth: 1000
GlyphClass: 2
Flags: W
LayerCount: 2
Fore
SplineSet
181 603 m 256,0,1
 208 603 208 603 228.5 584 c 128,-1,2
 249 565 249 565 249 538 c 0,3,4
 249 513 249 513 230.5 493.5 c 128,-1,5
 212 474 212 474 184 474 c 0,6,7
 157 474 157 474 137 492.5 c 128,-1,8
 117 511 117 511 117 540 c 0,9,10
 117 564 117 564 135.5 583.5 c 128,-1,11
 154 603 154 603 181 603 c 256,0,1
170 422 m 0,12,13
 195 435 195 435 235 459 c 0,14,15
 256 471 256 471 308 517 c 0,16,17
 331 541 331 541 357 578 c 0,18,19
 377 606 377 606 392 618 c 0,20,21
 399 623 399 623 409 623 c 0,22,23
 433 623 433 623 433 606 c 0,24,25
 433 576 433 576 360 515 c 0,26,27
 311 474 311 474 247 436 c 1,28,29
 273 439 273 439 293 435 c 0,30,31
 376 427 376 427 429.5 366.5 c 128,-1,32
 483 306 483 306 482 222 c 0,33,34
 481 120 481 120 393 47 c 0,35,36
 336 0 336 0 248 0 c 0,37,38
 154 0 154 0 92.5 60 c 128,-1,39
 31 120 31 120 31 213 c 0,40,41
 31 295 31 295 76 347 c 0,42,43
 113 390 113 390 170 422 c 0,12,13
119 355 m 0,44,45
 66 306 66 306 66 237 c 0,46,47
 66 172 66 172 115 124 c 0,48,49
 167 73 167 73 244 73 c 0,50,51
 331 73 331 73 385 136 c 0,52,53
 430 189 430 189 430 254 c 0,54,55
 430 322 430 322 380 370 c 0,56,57
 334 414 334 414 266 414 c 0,58,59
 183 414 183 414 119 355 c 0,44,45
445 532 m 256,60,61
 472 532 472 532 492 513 c 128,-1,62
 512 494 512 494 512 467 c 0,63,64
 512 442 512 442 494 422.5 c 128,-1,65
 476 403 476 403 448 403 c 0,66,67
 421 403 421 403 401 422 c 128,-1,68
 381 441 381 441 381 468 c 0,69,70
 381 493 381 493 399.5 512.5 c 128,-1,71
 418 532 418 532 445 532 c 256,60,61
145 540 m 0,72,73
 145 524 145 524 157 512.5 c 128,-1,74
 169 501 169 501 185 501 c 256,75,76
 201 501 201 501 212.5 512 c 128,-1,77
 224 523 224 523 224 539 c 256,78,79
 224 555 224 555 212 565.5 c 128,-1,80
 200 576 200 576 184 576 c 0,81,82
 169 576 169 576 157 565.5 c 128,-1,83
 145 555 145 555 145 540 c 0,72,73
408 468 m 256,84,85
 408 452 408 452 419.5 441 c 128,-1,86
 431 430 431 430 447 430 c 256,87,88
 463 430 463 430 474.5 441.5 c 128,-1,89
 486 453 486 453 486 468 c 0,90,91
 486 484 486 484 474 494.5 c 128,-1,92
 462 505 462 505 447 505 c 0,93,94
 431 505 431 505 419.5 494.5 c 128,-1,95
 408 484 408 484 408 468 c 256,84,85
EndSplineSet
Validated: 33
EndChar
StartChar: uni0D8B
Encoding: 12 3467 12
Width: 651
VWidth: 1000
GlyphClass: 2
Flags: W
LayerCount: 2
Fore
SplineSet
282 271 m 2,0,1
 208 271 208 271 157 221 c 128,-1,2
 106 171 106 171 109 103 c 0,3,4
 114 -3 114 -3 186 -69 c 128,-1,5
 258 -135 258 -135 362 -127 c 0,6,7
 451 -120 451 -120 512 -65 c 128,-1,8
 573 -10 573 -10 574 69 c 1,9,-1
 603 69 l 1,10,11
 604 -26 604 -26 528 -91 c 0,12,13
 456 -153 456 -153 350 -160 c 0,14,15
 227 -168 227 -168 134 -98 c 0,16,17
 36 -24 36 -24 32 93 c 0,18,19
 29 177 29 177 90.5 236.5 c 128,-1,20
 152 296 152 296 237 296 c 2,21,-1
 507 296 l 1,22,23
 502 347 502 347 462 372 c 0,24,25
 434 390 434 390 408 390 c 0,26,27
 385 390 385 390 364 376 c 0,28,29
 356 371 356 371 346.5 354.5 c 128,-1,30
 337 338 337 338 318 331 c 0,31,32
 312 329 312 329 305 329 c 0,33,34
 290 329 290 329 278.5 339.5 c 128,-1,35
 267 350 267 350 267 366 c 0,36,37
 267 372 267 372 269 378 c 0,38,39
 286 430 286 430 372 432 c 0,40,41
 445 434 445 434 493 387 c 128,-1,42
 541 340 541 340 539 271 c 1,43,-1
 282 271 l 2,0,1
EndSplineSet
Validated: 33
EndChar
StartChar: uni0D8F
Encoding: 16 3471 16
Width: 805
VWidth: 1000
GlyphClass: 2
Flags: W
LayerCount: 2
Fore
SplineSet
107 62 m 0,0,1
 102 50 102 50 110 39 c 128,-1,2
 118 28 118 28 131 28 c 0,3,4
 149 28 149 28 155 45 c 0,5,6
 159 57 159 57 151.5 67.5 c 128,-1,7
 144 78 144 78 131 78 c 0,8,9
 114 78 114 78 107 62 c 0,0,1
569 295 m 1,10,11
 591 314 591 314 591 342 c 0,12,13
 591 364 591 364 576 381 c 128,-1,14
 561 398 561 398 535 400 c 0,15,16
 493 404 493 404 465.5 383 c 128,-1,17
 438 362 438 362 438 327 c 0,18,19
 438 316 438 316 441 304 c 1,20,21
 481 306 481 306 497 305 c 0,22,23
 522 304 522 304 569 295 c 1,10,11
661 78 m 0,24,25
 656 78 656 78 652 76 c 0,26,27
 629 67 629 67 636 45 c 0,28,29
 644 28 644 28 661 28 c 0,30,31
 666 28 666 28 670 30 c 0,32,33
 686 35 686 35 686 53 c 0,34,35
 686 63 686 63 678 70.5 c 128,-1,36
 670 78 670 78 661 78 c 0,24,25
704 84 m 1,37,38
 734 185 734 185 728 278 c 0,39,40
 724 346 724 346 693 398 c 0,41,42
 660 454 660 454 615 452 c 0,43,44
 596 451 596 451 596 428 c 0,45,46
 596 413 596 413 605 395 c 1,47,48
 621 379 621 379 621 340 c 0,49,50
 621 304 621 304 593 284 c 1,51,52
 656 240 656 240 652 156 c 0,53,54
 650 122 650 122 637 101 c 1,55,56
 648 108 648 108 661 108 c 0,57,58
 690 108 690 108 704 84 c 1,37,38
180 452 m 0,59,60
 134 455 134 455 99 398 c 0,61,62
 67 345 67 345 63 277 c 0,63,64
 62 255 62 255 62 236 c 0,65,66
 62 158 62 158 92 80 c 1,67,68
 106 107 106 107 130 107 c 0,69,70
 140 107 140 107 151 103 c 1,71,72
 137 127 137 127 136 168 c 0,73,74
 134 220 134 220 172 258 c 0,75,76
 207 293 207 293 259 301 c 0,77,78
 285 305 285 305 340 305 c 1,79,80
 342 314 342 314 342 324 c 0,81,82
 342 385 342 385 288 390 c 0,83,84
 255 393 255 393 247 369 c 0,85,86
 233 328 233 328 209 323 c 0,87,88
 202 322 202 322 196 322 c 0,89,90
 158 322 158 322 158 359 c 0,91,92
 158 383 158 383 182 404 c 1,93,94
 190 417 190 417 190 435 c 0,95,96
 190 451 190 451 180 452 c 0,59,60
274 431 m 0,97,98
 372 420 372 420 372 324 c 0,99,100
 372 303 372 303 366 280 c 1,101,102
 282 280 282 280 270 278 c 0,103,104
 233 272 233 272 204 244 c 128,-1,105
 175 216 175 216 174 179 c 0,106,107
 173 124 173 124 250 95 c 0,108,109
 313 71 313 71 401 71 c 0,110,111
 625 71 625 71 615 185 c 0,112,113
 608 265 608 265 519 279 c 0,114,115
 481 285 481 285 414 281 c 1,116,117
 408 302 408 302 408 322 c 0,118,119
 408 371 408 371 440.5 401 c 128,-1,120
 473 431 473 431 530 432 c 0,121,122
 558 432 558 432 573 422 c 1,123,124
 569 433 569 433 569 443 c 0,125,126
 569 482 569 482 624 479 c 0,127,128
 692 475 692 475 731 390 c 0,129,130
 761 322 761 322 761 243 c 0,131,132
 761 155 761 155 734 83 c 0,133,134
 704 6 704 6 662 2 c 0,135,136
 637 0 637 0 621 17.5 c 128,-1,137
 605 35 605 35 609 61 c 1,138,139
 541 0 541 0 401 0 c 0,140,141
 253 0 253 0 184 61 c 1,142,143
 188 36 188 36 171 18 c 128,-1,144
 154 0 154 0 130 2 c 0,145,146
 87 6 87 6 58 82 c 0,147,148
 31 153 31 153 31 240 c 0,149,150
 31 259 31 259 33 277 c 0,151,152
 40 354 40 354 73 411 c 0,153,154
 112 476 112 476 167 479 c 256,155,156
 222 482 222 482 222 444 c 0,157,158
 222 436 222 436 219 426 c 1,159,160
 243 435 243 435 274 431 c 0,97,98
EndSplineSet
Validated: 33
EndChar
StartChar: uni0D91
Encoding: 18 3473 18
Width: 595
VWidth: 1000
GlyphClass: 2
Flags: W
LayerCount: 2
Fore
SplineSet
16 315 m 1,0,-1
 260 315 l 1,1,2
 261 343 261 343 242 368.5 c 128,-1,3
 223 394 223 394 198 394 c 0,4,5
 190 394 190 394 183 391 c 0,6,7
 159 382 159 382 147.5 361.5 c 128,-1,8
 136 341 136 341 111 338 c 0,9,10
 97 336 97 336 87 345.5 c 128,-1,11
 77 355 77 355 77 369 c 0,12,13
 77 423 77 423 148 431 c 0,14,15
 159 432 159 432 173 432 c 0,16,17
 230 433 230 433 262 391.5 c 128,-1,18
 294 350 294 350 295 288 c 1,19,-1
 204 288 l 2,20,21
 160 288 160 288 121.5 258.5 c 128,-1,22
 83 229 83 229 83 193 c 0,23,24
 83 71 83 71 290 71 c 0,25,26
 386 71 386 71 446 118 c 0,27,28
 513 170 513 170 513 267 c 0,29,30
 513 352 513 352 470 411 c 1,31,32
 448 362 448 362 386 359 c 0,33,34
 339 357 339 357 310.5 393 c 128,-1,35
 282 429 282 429 283 477 c 0,36,37
 284 556 284 556 325 597 c 1,38,39
 364 577 364 577 409 534 c 0,40,41
 460 485 460 485 493 428 c 0,42,43
 552 328 552 328 544 220 c 0,44,45
 537 125 537 125 468.5 63 c 128,-1,46
 400 1 400 1 300 0 c 0,47,48
 191 -1 191 -1 125 35 c 0,49,50
 40 82 40 82 46 183 c 0,51,52
 48 218 48 218 71.5 248.5 c 128,-1,53
 95 279 95 279 124 289 c 1,54,-1
 16 289 l 1,55,-1
 16 315 l 1,0,-1
451 438 m 1,56,57
 431 472 431 472 398 504 c 0,58,59
 381 522 381 522 334 560 c 1,60,61
 313 536 313 536 313 484 c 0,62,63
 313 410 313 410 369 397 c 0,64,65
 379 395 379 395 389 395 c 0,66,67
 438 395 438 395 451 438 c 1,56,57
EndSplineSet
Validated: 33
EndChar
StartChar: uni0D92
Encoding: 19 3474 19
Width: 653
VWidth: 1000
GlyphClass: 2
Flags: W
LayerCount: 2
Fore
SplineSet
470 411 m 1,0,1
 448 362 448 362 386 359 c 0,2,3
 339 357 339 357 310.5 393 c 128,-1,4
 282 429 282 429 283 477 c 0,5,6
 284 556 284 556 325 597 c 1,7,8
 364 577 364 577 410.106526645 532.819219498 c 0,9,10
 457 489 457 489 488 436.420898438 c 1,11,-1
 488 681 l 1,12,13
 505 667 505 667 549 647 c 128,-1,14
 593 627 593 627 615 606 c 128,-1,15
 637 585 637 585 638 549 c 128,-1,16
 639 513 639 513 616.5 490.5 c 128,-1,17
 594 468 594 468 566 468.5 c 128,-1,18
 538 469 538 469 515 479 c 1,19,-1
 515 386.250976562 l 1,20,21
 550 305 550 305 543.652212153 215.054864071 c 0,22,23
 537 125 537 125 468.5 63 c 128,-1,24
 400 1 400 1 295.5 0 c 128,-1,25
 191 -1 191 -1 125 35 c 0,26,27
 40 82 40 82 46 183 c 0,28,29
 48 218 48 218 71.5 248.5 c 128,-1,30
 95 279 95 279 124 289 c 1,31,-1
 16 289 l 1,32,-1
 16 315 l 1,33,-1
 260 315 l 1,34,35
 261 343 261 343 242 368.5 c 128,-1,36
 223 394 223 394 198 394 c 0,37,38
 190 394 190 394 183 391 c 0,39,40
 158 380 158 380 147.5 361.5 c 0,41,42
 136 341 136 341 116.5 338.5 c 128,-1,43
 97 336 97 336 87 345.5 c 128,-1,44
 77 355 77 355 77 369 c 0,45,46
 77 430 77 430 173 432 c 0,47,48
 230 433 230 433 262 391.5 c 128,-1,49
 294 350 294 350 295 288 c 1,50,-1
 204 288 l 2,51,52
 160 288 160 288 121.5 258.5 c 128,-1,53
 83 229 83 229 83 193 c 0,54,55
 83 71 83 71 290 71 c 0,56,57
 386 71 386 71 449.5 120.5 c 128,-1,58
 513 170 513 170 513 267 c 0,59,60
 513 352.363636364 513 352.363636364 470 411 c 1,0,1
451 438 m 1,61,62
 431 472 431 472 406 497 c 128,-1,63
 381 522 381 522 334 560 c 1,64,65
 313 536 313 536 313 484 c 0,66,67
 313 410 313 410 369 397 c 0,68,69
 379 395 379 395 389 395 c 0,70,71
 438 395 438 395 451 438 c 1,61,62
515 638 m 1,72,73
 598 591 598 591 601 549 c 0,74,75
 605 496 605 496 548 496 c 0,76,77
 528 496 528 496 515 503 c 1,78,-1
 515 638 l 1,72,73
EndSplineSet
Validated: 524329
EndChar
StartChar: uni0D94
Encoding: 21 3476 21
Width: 636
VWidth: 1000
GlyphClass: 2
Flags: W
LayerCount: 2
Fore
SplineSet
392 365 m 1,0,1
 393 335 393 335 371.5 313 c 128,-1,2
 350 291 350 291 318 291 c 0,3,4
 309 291 309 291 299 293 c 0,5,6
 270 300 270 300 255 322 c 128,-1,7
 240 344 240 344 244 372 c 256,8,9
 248 400 248 400 272 418 c 0,10,11
 292 433 292 433 314 434 c 0,12,13
 360 436 360 436 390 413 c 0,14,15
 424 386 424 386 422 335 c 0,16,17
 421 291 421 291 387.5 258.5 c 128,-1,18
 354 226 354 226 307 224 c 0,19,20
 201 219 201 219 172 326 c 0,21,22
 171 328 171 328 172 372 c 0,23,24
 172 401 172 401 155 405 c 0,25,26
 111 414 111 414 84 353 c 0,27,28
 61 304 61 304 61 254 c 0,29,30
 61 192 61 192 86 143 c 0,31,32
 113 89 113 89 161 76 c 0,33,34
 205 64 205 64 242 75 c 0,35,36
 294 91 294 91 294 141 c 2,37,-1
 294 167 l 1,38,-1
 316 167 l 1,39,-1
 316 140 l 2,40,41
 316 106 316 106 348 87 c 0,42,43
 374 71 374 71 410 71 c 0,44,45
 479 71 479 71 519 141 c 0,46,47
 554 202 554 202 554 286 c 0,48,49
 554 389 554 389 494 466 c 0,50,51
 425 553 425 553 311 555 c 0,52,53
 234 556 234 556 185 537 c 0,54,55
 133 517 133 517 92 466 c 1,56,-1
 62 466 l 1,57,58
 109 531 109 531 170 556 c 0,59,60
 224 579 224 579 313 578 c 0,61,62
 442 577 442 577 520 477 c 0,63,64
 590 386 590 386 590 254 c 0,65,66
 590 158 590 158 555 88 c 0,67,68
 510 0 510 0 422 0 c 0,69,70
 384 0 384 0 352 13 c 0,71,72
 315 28 315 28 305 55 c 1,73,74
 272 -5 272 -5 183 0 c 0,75,76
 111 4 111 4 67 80 c 0,77,78
 26 151 26 151 31 242 c 0,79,80
 35 316 35 316 61 368 c 0,81,82
 94 432 94 432 150 432 c 0,83,84
 203 432 203 432 199 357 c 0,85,86
 197 315 197 315 224.5 284 c 128,-1,87
 252 253 252 253 295 254 c 0,88,89
 364 255 364 255 389 311 c 0,90,91
 397 329 397 329 392 365 c 1,0,1
274 365 m 0,92,93
 274 346 274 346 287.5 333.5 c 128,-1,94
 301 321 301 321 319 321 c 0,95,96
 343 321 343 321 355 339 c 0,97,98
 363 351 363 351 363 365 c 0,99,100
 363 383 363 383 350 395.5 c 128,-1,101
 337 408 337 408 318 408 c 0,102,103
 300 408 300 408 287 395.5 c 128,-1,104
 274 383 274 383 274 365 c 0,92,93
EndSplineSet
Validated: 33
EndChar
StartChar: uni0D95
Encoding: 22 3477 22
Width: 636
VWidth: 1000
GlyphClass: 2
Flags: W
LayerCount: 2
Fore
SplineSet
274 365 m 0,0,1
 274 346 274 346 287.5 333.5 c 128,-1,2
 301 321 301 321 319 321 c 0,3,4
 343 321 343 321 355 339 c 0,5,6
 363 351 363 351 363 365 c 0,7,8
 363 383 363 383 350 395.5 c 128,-1,9
 337 408 337 408 318 408 c 0,10,11
 300 408 300 408 287 395.5 c 128,-1,12
 274 383 274 383 274 365 c 0,0,1
444 458 m 0,13,14
 380 489 380 489 295 491 c 0,15,16
 222 493 222 493 166 482 c 0,17,18
 114 472 114 472 42 442 c 1,19,-1
 42 474 l 1,20,21
 73 484 73 484 103 495 c 0,22,23
 129 504 129 504 126 512 c 1,24,25
 119 516 119 516 108.5 524.5 c 128,-1,26
 98 533 98 533 98 543 c 0,27,28
 98 556 98 556 112 573 c 0,29,30
 142 608 142 608 224 620 c 0,31,32
 283 628 283 628 344 617 c 0,33,34
 442 598 442 598 496 539 c 0,35,36
 560 468 560 468 572 356 c 1,37,38
 582 334 582 334 585.5 305.5 c 128,-1,39
 589 277 589 277 589 250 c 0,40,41
 589 157 589 157 553 87 c 0,42,43
 508 0 508 0 422 0 c 0,44,45
 384 0 384 0 352 13 c 0,46,47
 315 28 315 28 305 55 c 1,48,49
 272 -5 272 -5 183 0 c 0,50,51
 111 4 111 4 67 80 c 0,52,53
 26 151 26 151 31 242 c 0,54,55
 35 316 35 316 61 368 c 0,56,57
 94 432 94 432 150 432 c 0,58,59
 203 432 203 432 199 357 c 0,60,61
 197 315 197 315 224.5 284 c 128,-1,62
 252 253 252 253 295 254 c 0,63,64
 364 255 364 255 389 311 c 0,65,66
 397 329 397 329 392 365 c 1,67,68
 393 335 393 335 371.5 313 c 128,-1,69
 350 291 350 291 318 291 c 0,70,71
 309 291 309 291 299 293 c 0,72,73
 270 300 270 300 255 322 c 128,-1,74
 240 344 240 344 244 372 c 256,75,76
 248 400 248 400 272 418 c 0,77,78
 292 433 292 433 314 434 c 0,79,80
 360 436 360 436 390 413 c 0,81,82
 424 386 424 386 422 335 c 0,83,84
 421 290 421 290 388.5 259 c 128,-1,85
 356 228 356 228 307 224 c 0,86,87
 252 220 252 220 211 255 c 128,-1,88
 170 290 170 290 170 344 c 0,89,90
 170 409 170 409 172 383 c 1,91,92
 170 402 170 402 155 405 c 0,93,94
 111 414 111 414 84 353 c 0,95,96
 61 304 61 304 61 254 c 0,97,98
 61 192 61 192 86 143 c 0,99,100
 113 89 113 89 161 76 c 0,101,102
 205 64 205 64 242 75 c 0,103,104
 294 91 294 91 294 141 c 2,105,-1
 294 167 l 1,106,-1
 316 167 l 1,107,-1
 316 140 l 2,108,109
 316 106 316 106 348 87 c 0,110,111
 374 71 374 71 410 71 c 0,112,113
 480 71 480 71 519 141 c 0,114,115
 555 203 555 203 552 286 c 0,116,117
 550 345 550 345 509 399 c 0,118,119
 477 442 477 442 444 458 c 0,13,14
165 510 m 1,120,121
 224 524 224 524 312 519 c 0,122,123
 404 514 404 514 452 486 c 0,124,125
 508 454 508 454 531 419 c 1,126,127
 515 474 515 474 478 516 c 0,128,129
 451 546 451 546 403 567 c 128,-1,130
 355 588 355 588 312 590 c 0,131,132
 202 596 202 596 156 566 c 0,133,134
 139 555 139 555 139 544 c 0,135,136
 139 531 139 531 157 527 c 0,137,138
 171 524 171 524 165 510 c 1,120,121
EndSplineSet
Validated: 41
EndChar
StartChar: uni0D9A
Encoding: 24 3482 24
Width: 746
VWidth: 1000
GlyphClass: 2
Flags: W
LayerCount: 2
Fore
SplineSet
101 303 m 0,0,1
 91 294 91 294 72 294 c 0,2,3
 47 294 47 294 37 306 c 128,-1,4
 27 318 27 318 27 336 c 0,5,6
 27 363 27 363 48 390.5 c 128,-1,7
 69 418 69 418 100 428 c 0,8,9
 117 433 117 433 136 433 c 0,10,11
 177 433 177 433 201 412 c 0,12,13
 230 385 230 385 225 343 c 1,14,15
 257 379 257 379 329 407 c 0,16,17
 409 438 409 438 481 432 c 0,18,19
 572 424 572 424 634 362 c 0,20,21
 697 297 697 297 701 202 c 0,22,23
 704 123 704 123 666 66 c 0,24,25
 630 13 630 13 576 2 c 0,26,27
 533 -7 533 -7 504 12 c 1,28,-1
 506 38 l 1,29,30
 518 31 518 31 539 28 c 0,31,32
 561 25 561 25 574 31 c 0,33,34
 656 66 656 66 648 166 c 0,35,36
 642 236 642 236 594 290 c 0,37,38
 550 340 550 340 493 355 c 0,39,40
 446 368 446 368 400 368 c 0,41,42
 290 368 290 368 219 303 c 1,43,44
 264 313 264 313 306 313 c 0,45,46
 394 313 394 313 450 268.5 c 128,-1,47
 506 224 506 224 514 143 c 0,48,49
 519 91 519 91 495 51 c 128,-1,50
 471 11 471 11 424 2 c 0,51,52
 410 -1 410 -1 397 -1 c 0,53,54
 328 -1 328 -1 296 63 c 1,55,56
 270 1 270 1 207 -1 c 0,57,58
 164 -2 164 -2 124 37 c 0,59,60
 122 39 122 39 110 59 c 0,61,62
 101 73 101 73 90 73 c 0,63,64
 72 73 72 73 59 52.5 c 128,-1,65
 46 32 46 32 47 11 c 1,66,-1
 21 22 l 1,67,68
 26 67 26 67 51.5 127.5 c 128,-1,69
 77 188 77 188 109 232 c 0,70,71
 148 286 148 286 193 326 c 1,72,73
 194 336 194 336 194 345 c 0,74,75
 194 387 194 387 163 391 c 0,76,77
 128 396 128 396 123 363 c 0,78,79
 115 316 115 316 101 303 c 0,0,1
179 267 m 1,80,81
 153 245 153 245 129 211 c 0,82,83
 86 150 86 150 70 95 c 1,84,85
 79 100 79 100 89 100 c 0,86,87
 97 100 97 100 126 88 c 0,88,89
 171 69 171 69 201 71 c 0,90,91
 241 74 241 74 265 103 c 0,92,93
 280 122 280 122 279 163 c 1,94,-1
 309 163 l 1,95,96
 308 126 308 126 319 107 c 0,97,98
 343 67 343 67 403 71 c 0,99,100
 435 73 435 73 456.5 101.5 c 128,-1,101
 478 130 478 130 475 164 c 0,102,103
 466 260 466 260 346 282 c 0,104,105
 328 285 328 285 301 285 c 0,106,107
 216 285 216 285 179 267 c 1,80,81
EndSplineSet
Validated: 33
EndChar
StartChar: uni0D9B
Encoding: 25 3483 25
Width: 630
VWidth: 1000
GlyphClass: 2
Flags: W
LayerCount: 2
Fore
SplineSet
70 105 m 1,0,1
 86 145 86 145 135 145 c 0,2,3
 146 145 146 145 157 143 c 0,4,5
 203 134 203 134 210 79 c 0,6,7
 213 53 213 53 195 28 c 0,8,9
 175 0 175 0 143 -1 c 0,10,11
 84 -2 84 -2 53 69 c 0,12,13
 27 129 27 129 34 216 c 0,14,15
 41 296 41 296 100 346 c 128,-1,16
 159 396 159 396 247 396 c 0,17,18
 313 396 313 396 360 361 c 0,19,20
 412 323 412 323 412 258 c 0,21,22
 412 178 412 178 346 115 c 1,23,24
 351 116 351 116 355 116 c 0,25,26
 362 116 362 116 378 101 c 0,27,28
 382 95 382 95 407 77 c 0,29,30
 424 67 424 67 439 67 c 0,31,32
 499 67 499 67 533 200 c 0,33,34
 549 261 549 261 548 319 c 0,35,36
 546 429 546 429 475.5 501.5 c 128,-1,37
 405 574 405 574 301 576 c 0,38,39
 161 579 161 579 98 470 c 1,40,-1
 64 470 l 1,41,42
 131 595 131 595 286 601 c 0,43,44
 398 605 398 605 482 533 c 128,-1,45
 566 461 566 461 580 349 c 0,46,47
 584 320 584 320 584 290 c 0,48,49
 584 178 584 178 539 94 c 0,50,51
 493 6 493 6 423 0 c 0,52,53
 390 -3 390 -3 369 12 c 0,54,55
 360 18 360 18 343 40 c 0,56,57
 331 56 331 56 319 55 c 256,58,59
 307 54 307 54 240 -13 c 1,60,-1
 204 -10 l 1,61,62
 224 10 224 10 288 84 c 0,63,64
 366 177 366 177 368 221 c 0,65,66
 373 318 373 318 239 320 c 0,67,68
 181 321 181 321 136.5 294.5 c 128,-1,69
 92 268 92 268 75 221 c 0,70,71
 63 189 63 189 63 156 c 0,72,73
 63 131 63 131 70 105 c 1,0,1
90 74 m 0,74,75
 90 56 90 56 104 42.5 c 128,-1,76
 118 29 118 29 136 29 c 0,77,78
 153 29 153 29 165 41.5 c 128,-1,79
 177 54 177 54 177 71 c 0,80,81
 177 94 177 94 161 106 c 0,82,83
 149 115 149 115 132 115 c 0,84,85
 110 115 110 115 100 101 c 128,-1,86
 90 87 90 87 90 74 c 0,74,75
EndSplineSet
Validated: 33
EndChar
StartChar: uni0D9C
Encoding: 26 3484 26
Width: 636
VWidth: 1000
GlyphClass: 2
Flags: W
LayerCount: 2
Fore
SplineSet
251 407 m 1,0,1
 240 409 240 409 229 409 c 0,2,3
 166 409 166 409 118.5 362 c 128,-1,4
 71 315 71 315 66 249 c 0,5,6
 60 178 60 178 95 127 c 0,7,8
 133 70 133 70 202 68 c 0,9,10
 256 66 256 66 287.5 89.5 c 128,-1,11
 319 113 319 113 319 153 c 0,12,13
 319 178 319 178 304.5 197.5 c 128,-1,14
 290 217 290 217 267 217 c 0,15,16
 256 217 256 217 245 213 c 1,17,18
 241 197 241 197 241 192 c 1,19,-1
 216 192 l 1,20,21
 224 290 224 290 273 357 c 0,22,23
 331 439 331 439 426 431 c 0,24,25
 497 425 497 425 541 366 c 0,26,27
 581 312 581 312 586 234 c 0,28,29
 592 138 592 138 534 70 c 0,30,31
 472 -1 472 -1 369 -1 c 0,32,33
 354 -1 354 -1 338 1 c 1,34,-1
 338 27 l 1,35,36
 350 26 350 26 362 26 c 0,37,38
 440 26 440 26 492 75.5 c 128,-1,39
 544 125 544 125 544 203 c 0,40,41
 544 270 544 270 501 321 c 128,-1,42
 458 372 458 372 393 372 c 0,43,44
 338 372 338 372 298 333 c 128,-1,45
 258 294 258 294 250 239 c 1,46,47
 260 241 260 241 270 241 c 0,48,49
 342 241 342 241 351 155 c 0,50,51
 358 83 358 83 314.5 38.5 c 128,-1,52
 271 -6 271 -6 194 -1 c 0,53,54
 120 4 120 4 76 65 c 0,55,56
 34 123 34 123 34 204 c 0,57,58
 34 311 34 311 92 371.5 c 128,-1,59
 150 432 150 432 223 432 c 0,60,61
 237 432 237 432 251 430 c 1,62,-1
 251 407 l 1,63,-1
 251 407 l 1,0,1
EndSplineSet
Validated: 37
EndChar
StartChar: uni0D9D
Encoding: 27 3485 27
Width: 677
VWidth: 1000
GlyphClass: 2
Flags: W
LayerCount: 2
Fore
SplineSet
550 297 m 1,0,1
 621 262 621 262 627 178 c 0,2,3
 629 167 629 167 629 155 c 0,4,5
 629 92 629 92 581 46 c 128,-1,6
 533 0 533 0 464 0 c 0,7,8
 428 0 428 0 382 12 c 1,9,10
 378 20 378 20 378 30 c 0,11,12
 378 39 378 39 385 63 c 128,-1,13
 392 87 392 87 392 103 c 0,14,15
 392 115 392 115 389 126 c 0,16,17
 384 145 384 145 368.5 158 c 128,-1,18
 353 171 353 171 334 171 c 0,19,20
 304 171 304 171 287.5 151 c 128,-1,21
 271 131 271 131 271 101 c 0,22,23
 271 88 271 88 276 66 c 128,-1,24
 281 44 281 44 281 33 c 256,25,26
 281 22 281 22 277 11 c 1,27,28
 227 -1 227 -1 199 -1 c 0,29,30
 135 -1 135 -1 92 47 c 0,31,32
 51 92 51 92 51 154 c 0,33,34
 51 167 51 167 53 179 c 0,35,36
 66 261 66 261 144 285 c 1,37,-1
 5 285 l 1,38,-1
 5 308 l 1,39,-1
 282 308 l 1,40,41
 276 386 276 386 209 385 c 0,42,43
 185 385 185 385 170.5 353.5 c 128,-1,44
 156 322 156 322 123 323 c 0,45,46
 91 324 91 324 89 358 c 256,47,48
 87 392 87 392 119 414.5 c 128,-1,49
 151 437 151 437 201 432 c 0,50,51
 318 420 318 420 312 282 c 1,52,53
 237 286 237 286 211 283 c 0,54,55
 161 278 161 278 127 252 c 0,56,57
 89 222 89 222 89 175 c 0,58,59
 89 132 89 132 127 101.5 c 128,-1,60
 165 71 165 71 212 71 c 0,61,62
 242 71 242 71 247 76 c 1,63,64
 242 95 242 95 242 111 c 0,65,66
 242 140 242 140 257 161 c 0,67,68
 286 202 286 202 335 200 c 0,69,70
 382 198 382 198 406 160 c 0,71,72
 427 125 427 125 417 79 c 1,73,74
 424 71 424 71 471 71 c 0,75,76
 520 71 520 71 557 102 c 128,-1,77
 594 133 594 133 593 178 c 0,78,79
 592 225 592 225 559.5 255 c 128,-1,80
 527 285 527 285 481 289 c 0,81,82
 420 294 420 294 353 280 c 1,83,84
 350 340 350 340 376 381 c 0,85,86
 407 428 407 428 470 432 c 0,87,88
 556 437 556 437 577 365 c 0,89,90
 579 357 579 357 579 349 c 0,91,92
 579 331 579 331 570 315.5 c 128,-1,93
 561 300 561 300 550 297 c 1,0,1
382 310 m 1,94,95
 406 317 406 317 445 317 c 0,96,97
 496 317 496 317 525 306 c 1,98,99
 540 322 540 322 540 341 c 256,100,101
 540 360 540 360 525 374 c 128,-1,102
 510 388 510 388 488 391 c 0,103,104
 478 392 478 392 469 392 c 0,105,106
 389 392 389 392 382 310 c 1,94,95
EndSplineSet
Validated: 33
EndChar
StartChar: uni0D9E
Encoding: 28 3486 28
Width: 647
VWidth: 1000
GlyphClass: 2
Flags: W
LayerCount: 2
Fore
SplineSet
565 286 m 0,0,1
 560 398 560 398 486 478 c 128,-1,2
 412 558 412 558 305 558 c 0,3,4
 186 558 186 558 105 468 c 1,5,-1
 73 468 l 1,6,7
 162 582 162 582 308 582 c 0,8,9
 426 582 426 582 509 495 c 0,10,11
 590 412 590 412 597 290 c 0,12,13
 604 177 604 177 567 97 c 0,14,15
 523 0 523 0 431 0 c 0,16,17
 387 0 387 0 359 17 c 0,18,19
 338 29 338 29 313 59 c 1,20,21
 267 1 267 1 200 0 c 0,22,23
 137 -1 137 -1 93.5 42.5 c 128,-1,24
 50 86 50 86 50 144 c 0,25,26
 50 171 50 171 61 196 c 0,27,28
 73 225 73 225 104 244 c 128,-1,29
 135 263 135 263 174 263 c 0,30,31
 193 263 193 263 225 257 c 0,32,33
 262 250 262 250 276 249 c 0,34,35
 331 245 331 245 339 288 c 0,36,37
 341 298 341 298 341 308 c 0,38,39
 341 355 341 355 298 383 c 0,40,41
 261 407 261 407 213 407 c 1,42,43
 241 388 241 388 241 346 c 0,44,45
 241 315 241 315 215 292.5 c 128,-1,46
 189 270 189 270 153 272 c 0,47,48
 115 274 115 274 92.5 296.5 c 128,-1,49
 70 319 70 319 70 350 c 0,50,51
 70 369 70 369 80 386 c 0,52,53
 110 437 110 437 213 432 c 0,54,55
 302 428 302 428 343 383 c 0,56,57
 376 346 376 346 372 291 c 0,58,59
 368 227 368 227 301 221 c 0,60,61
 254 217 254 217 217 228 c 0,62,63
 197 234 197 234 176 234 c 0,64,65
 115 234 115 234 96 193 c 0,66,67
 88 177 88 177 88 160 c 0,68,69
 88 124 88 124 119.5 97.5 c 128,-1,70
 151 71 151 71 198 71 c 0,71,72
 238 71 238 71 268.5 90.5 c 128,-1,73
 299 110 299 110 299 144 c 2,74,-1
 299 177 l 1,75,-1
 326 177 l 1,76,-1
 326 144 l 2,77,78
 326 111 326 111 358 89 c 0,79,80
 387 70 387 70 427 70 c 0,81,82
 500 70 500 70 537 140 c 0,83,84
 569 200 569 200 565 286 c 0,0,1
105 351 m 0,85,86
 105 329 105 329 119.5 315 c 128,-1,87
 134 301 134 301 154 301 c 0,88,89
 176 301 176 301 190.5 315 c 128,-1,90
 205 329 205 329 205 350 c 256,91,92
 205 371 205 371 190.5 385 c 128,-1,93
 176 399 176 399 156 399 c 0,94,95
 135 399 135 399 120 385 c 128,-1,96
 105 371 105 371 105 351 c 0,85,86
EndSplineSet
Validated: 33
EndChar
StartChar: uni0D9F
Encoding: 29 3487 29
Width: 749
VWidth: 1000
GlyphClass: 2
Flags: W
LayerCount: 2
Fore
SplineSet
244 404 m 1,0,1
 233 405 233 405 223 405 c 0,2,3
 143 405 143 405 95 349 c 0,4,5
 57 305 57 305 57 218 c 0,6,7
 57 97 57 97 135 29 c 1,8,-1
 135 0 l 1,9,10
 81 27 81 27 52 93 c 0,11,12
 27 150 27 150 27 221 c 0,13,14
 27 285 27 285 47 327 c 0,15,16
 89 414 89 414 180 429 c 0,17,18
 233 438 233 438 367 430 c 1,19,-1
 367 407 l 1,20,21
 356 409 356 409 345 409 c 0,22,23
 282 409 282 409 235.5 362 c 128,-1,24
 189 315 189 315 183 249 c 0,25,26
 177 178 177 178 211 127 c 0,27,28
 249 70 249 70 318 68 c 0,29,30
 372 66 372 66 404 89.5 c 128,-1,31
 436 113 436 113 436 153 c 0,32,33
 436 178 436 178 421.5 197.5 c 128,-1,34
 407 217 407 217 383 217 c 0,35,36
 372 217 372 217 361 213 c 1,37,38
 357 197 357 197 357 192 c 1,39,-1
 333 192 l 1,40,41
 341 290 341 290 389 357 c 0,42,43
 448 439 448 439 543 431 c 0,44,45
 614 425 614 425 658 366 c 0,46,47
 699 312 699 312 703 234 c 0,48,49
 708 138 708 138 650 70 c 0,50,51
 588 -1 588 -1 485 -1 c 0,52,53
 470 -1 470 -1 454 1 c 1,54,-1
 454 27 l 1,55,56
 466 26 466 26 478 26 c 0,57,58
 556 26 556 26 608 75 c 128,-1,59
 660 124 660 124 660 202 c 0,60,61
 660 269 660 269 619 319 c 0,62,63
 575 372 575 372 509 372 c 0,64,65
 455 372 455 372 414.5 333 c 128,-1,66
 374 294 374 294 366 239 c 1,67,68
 376 241 376 241 386 241 c 0,69,70
 458 241 458 241 467 155 c 0,71,72
 474 83 474 83 430.5 38.5 c 128,-1,73
 387 -6 387 -6 310 -1 c 0,74,75
 236 4 236 4 192 65 c 0,76,77
 150 123 150 123 150 204 c 0,78,79
 150 311 150 311 207 371 c 0,80,81
 227 392 227 392 244 404 c 1,0,1
EndSplineSet
Validated: 33
EndChar
StartChar: uni0DA0
Encoding: 30 3488 30
Width: 623
VWidth: 1000
GlyphClass: 2
Flags: W
LayerCount: 2
Fore
SplineSet
252 276 m 2,0,1
 207 276 207 276 155 250 c 0,2,3
 99 222 99 222 105 173 c 0,4,5
 112 112 112 112 174 89 c 0,6,7
 219 71 219 71 310 71 c 0,8,9
 421 71 421 71 484 141 c 0,10,11
 542 204 542 204 542 300 c 0,12,13
 542 403 542 403 477 476 c 0,14,15
 409 553 409 553 306 553 c 0,16,17
 241 553 241 553 197 534.5 c 128,-1,18
 153 516 153 516 116 470 c 1,19,-1
 85 470 l 1,20,21
 160 575 160 575 299 577 c 0,22,23
 422 579 422 579 501 487 c 0,24,25
 575 400 575 400 575 275 c 0,26,27
 575 160 575 160 508 83 c 0,28,29
 436 0 436 0 316 0 c 0,30,31
 251 0 251 0 212 6 c 0,32,33
 59 31 59 31 65 171 c 0,34,35
 68 243 68 243 148 274 c 1,36,37
 42 274 42 274 18 270 c 1,38,-1
 18 302 l 1,39,-1
 285 302 l 1,40,41
 282 348 282 348 252 376 c 0,42,43
 237 390 237 390 215 390 c 0,44,45
 199 390 199 390 185 382 c 0,46,47
 168 372 168 372 162 347 c 128,-1,48
 156 322 156 322 141 316 c 0,49,50
 130 312 130 312 119 312 c 0,51,52
 78 312 78 312 78 349 c 0,53,54
 78 389 78 389 114 413 c 0,55,56
 144 433 144 433 187 433 c 0,57,58
 203 433 203 433 219 430 c 0,59,60
 317 413 317 413 315 276 c 1,61,-1
 252 276 l 2,0,1
EndSplineSet
Validated: 33
EndChar
StartChar: uni0DA1
Encoding: 31 3489 31
Width: 598
VWidth: 1000
GlyphClass: 2
Flags: W
LayerCount: 2
Fore
SplineSet
262 284 m 1,0,1
 214 291 214 291 163 283 c 0,2,3
 125 277 125 277 97 251 c 0,4,5
 66 221 66 221 67 181 c 0,6,7
 68 123 68 123 146 94 c 0,8,9
 208 71 208 71 298 71 c 0,10,11
 513 71 513 71 517 181 c 0,12,13
 518 209 518 209 506 233 c 1,14,15
 486 187 486 187 457 170 c 0,16,17
 438 159 438 159 411 159 c 0,18,19
 395 159 395 159 381 164 c 0,20,21
 348 176 348 176 334 219 c 0,22,23
 322 254 322 254 329 287 c 1,24,25
 334 287 334 287 292 284 c 1,26,27
 286 302 286 302 286 322 c 0,28,29
 286 362 286 362 308.5 393.5 c 128,-1,30
 331 425 331 425 368 431 c 1,31,32
 389 481 389 481 440 539 c 0,33,34
 511 619 511 619 544 619 c 0,35,36
 568 619 568 619 568 597 c 0,37,38
 568 586 568 586 558 580 c 0,39,40
 528 563 528 563 471 523 c 1,41,42
 414 473 414 473 399 432 c 1,43,44
 411 433 411 433 431 433 c 0,45,46
 500 432 500 432 526 364 c 0,47,48
 531 351 531 351 531 331 c 0,49,50
 531 286 531 286 516 262 c 1,51,52
 552 215 552 215 549 156 c 0,53,54
 544 79 544 79 470 38 c 0,55,56
 403 0 403 0 298 0 c 0,57,58
 183 0 183 0 115 38 c 0,59,60
 37 82 37 82 33 168 c 0,61,62
 30 224 30 224 71 263 c 0,63,64
 109 299 109 299 166 306 c 0,65,66
 202 311 202 311 238 309 c 1,67,68
 246 389 246 389 187 394 c 0,69,70
 154 397 154 397 144 369 c 0,71,72
 130 328 130 328 106 323 c 0,73,74
 99 322 99 322 93 322 c 0,75,76
 56 322 56 322 56 360 c 0,77,78
 56 370 56 370 60 378 c 0,79,80
 87 432 87 432 152 432 c 0,81,82
 204 432 204 432 235 403.5 c 128,-1,83
 266 375 266 375 266 323 c 0,84,85
 266 305 266 305 262 284 c 1,0,1
359 407 m 1,86,87
 313 381 313 381 313 323 c 0,88,89
 313 315 313 315 314 307 c 0,90,91
 318 307 318 307 323.5 308 c 128,-1,92
 329 309 329 309 331 309 c 0,93,94
 334 324 334 324 341 355 c 128,-1,95
 348 386 348 386 359 407 c 1,86,87
388 405 m 1,96,97
 363 365 363 365 359 309 c 1,98,99
 413 309 413 309 440 303 c 0,100,101
 476 295 476 295 497 280 c 1,102,103
 503 309 503 309 503 325 c 0,104,105
 503 367 503 367 475 390 c 0,106,107
 443 415 443 415 388 405 c 1,96,97
358 287 m 1,108,109
 357 277 357 277 357 267 c 0,110,111
 357 201 357 201 402 189 c 0,112,113
 409 187 409 187 416 187 c 0,114,115
 458 187 458 187 484 254 c 1,116,117
 468 272 468 272 429 280 c 0,118,119
 408 284 408 284 358 287 c 1,108,109
EndSplineSet
Validated: 37
EndChar
StartChar: uni0DA2
Encoding: 32 3490 32
Width: 598
VWidth: 1000
GlyphClass: 2
Flags: W
LayerCount: 2
Fore
SplineSet
262 288 m 1,0,1
 213 293 213 293 162 283 c 0,2,3
 122 275 122 275 96 248 c 0,4,5
 68 218 68 218 70 181 c 0,6,7
 73 122 73 122 149 94 c 0,8,9
 209 71 209 71 298 71 c 0,10,11
 510 71 510 71 514 183 c 0,12,13
 516 223 516 223 487 251 c 0,14,15
 461 276 461 276 418 284 c 0,16,17
 357 295 357 295 300 285 c 1,18,19
 293 309 293 309 293 331 c 0,20,21
 293 411 293 411 378 433 c 1,22,23
 397 486 397 486 440 539 c 0,24,25
 505 619 505 619 544 619 c 0,26,27
 568 619 568 619 568 597 c 0,28,29
 568 586 568 586 558 580 c 0,30,31
 528 563 528 563 472 522 c 1,32,33
 422 479 422 479 406 433 c 1,34,35
 415 433 415 433 430 433 c 0,36,37
 467 434 467 434 493 412.5 c 128,-1,38
 519 391 519 391 520 359 c 0,39,40
 521 309 521 309 474 289 c 1,41,42
 508 275 508 275 529.5 238.5 c 128,-1,43
 551 202 551 202 549 156 c 0,44,45
 546 79 546 79 471 38 c 0,46,47
 404 0 404 0 298 0 c 0,48,49
 183 0 183 0 113 39 c 0,50,51
 35 82 35 82 33 168 c 0,52,53
 32 225 32 225 74 266 c 0,54,55
 114 303 114 303 172 310 c 0,56,57
 199 313 199 313 235 311 c 1,58,59
 237 321 237 321 237 331 c 0,60,61
 237 392 237 392 185 393 c 0,62,63
 152 394 152 394 143 369 c 0,64,65
 129 329 129 329 105 324 c 0,66,67
 98 322 98 322 92 322 c 0,68,69
 56 322 56 322 56 360 c 0,70,71
 56 369 56 369 60 378 c 0,72,73
 83 432 83 432 154 432 c 0,74,75
 204 432 204 432 235 404.5 c 128,-1,76
 266 377 266 377 266 326 c 0,77,78
 266 308 266 308 262 288 c 1,0,1
361 344 m 0,79,80
 354 371 354 371 368 406 c 1,81,82
 323 380 323 380 323 334 c 0,83,84
 323 323 323 323 326 309 c 1,85,86
 337 310 337 310 359 311 c 0,87,88
 369 311 369 311 385 309 c 1,89,90
 367 319 367 319 361 344 c 0,79,80
388 359 m 0,91,92
 388 337 388 337 403.5 322.5 c 128,-1,93
 419 308 419 308 440 308 c 0,94,95
 460 308 460 308 474.5 321.5 c 128,-1,96
 489 335 489 335 489 355 c 256,97,98
 489 375 489 375 474.5 390.5 c 128,-1,99
 460 406 460 406 437 406 c 0,100,101
 417 406 417 406 402.5 392.5 c 128,-1,102
 388 379 388 379 388 359 c 0,91,92
EndSplineSet
Validated: 33
EndChar
StartChar: uni0DA3
Encoding: 33 3491 33
Width: 1079
VWidth: 1000
GlyphClass: 2
Flags: W
LayerCount: 2
Fore
SplineSet
179 267 m 1,0,1
 153 245 153 245 129 211 c 0,2,3
 86 150 86 150 70 95 c 1,4,5
 79 100 79 100 89 100 c 0,6,7
 97 100 97 100 126 88 c 0,8,9
 171 69 171 69 201 71 c 0,10,11
 241 74 241 74 265 103 c 0,12,13
 280 122 280 122 279 163 c 1,14,-1
 309 163 l 1,15,16
 308 126 308 126 319 107 c 0,17,18
 343 67 343 67 403 71 c 0,19,20
 435 73 435 73 456.5 101.5 c 128,-1,21
 478 130 478 130 475 164 c 0,22,23
 466 260 466 260 346 282 c 0,24,25
 328 285 328 285 301 285 c 0,26,27
 216 285 216 285 179 267 c 1,0,1
397 -1 m 0,28,29
 328 -1 328 -1 296 63 c 1,30,31
 270 1 270 1 207 -1 c 0,32,33
 164 -2 164 -2 124 37 c 0,34,35
 122 39 122 39 110 59 c 0,36,37
 101 73 101 73 90 73 c 0,38,39
 72 73 72 73 59 52.5 c 128,-1,40
 46 32 46 32 47 11 c 1,41,-1
 21 22 l 1,42,43
 26 67 26 67 51.5 127.5 c 128,-1,44
 77 188 77 188 109 232 c 0,45,46
 148 286 148 286 193 326 c 1,47,48
 194 336 194 336 194 345 c 0,49,50
 194 387 194 387 163 391 c 0,51,52
 128 396 128 396 123 363 c 0,53,54
 115 316 115 316 101 303 c 0,55,56
 91 294 91 294 72 294 c 0,57,58
 47 294 47 294 37 306 c 128,-1,59
 27 318 27 318 27 336 c 0,60,61
 27 363 27 363 48 390.5 c 128,-1,62
 69 418 69 418 100 428 c 0,63,64
 117 433 117 433 136 433 c 0,65,66
 177 433 177 433 201 412 c 0,67,68
 230 385 230 385 225 343 c 1,69,70
 254 376 254 376 322 403 c 0,71,72
 401 434 401 434 481 434 c 0,73,74
 590 434 590 434 666 398 c 1,75,-1
 666 373 l 1,76,77
 608 378 608 378 560 330.5 c 128,-1,78
 512 283 512 283 512 218 c 0,79,80
 512 159 512 159 544 117 c 0,81,82
 578 71 578 71 632 71 c 0,83,84
 673 71 673 71 701 89 c 0,85,86
 733 109 733 109 733 143 c 2,87,-1
 733 196 l 1,88,-1
 764 196 l 1,89,-1
 764 143 l 2,90,91
 764 109 764 109 793 90 c 128,-1,92
 822 71 822 71 862 71 c 0,93,94
 931 71 931 71 968 142 c 0,95,96
 998 199 998 199 1001 284 c 0,97,98
 1005 394 1005 394 927.5 475.5 c 128,-1,99
 850 557 850 557 738 557 c 0,100,101
 618 557 618 557 539 468 c 1,102,-1
 510 468 l 1,103,104
 595 580 595 580 744 580 c 0,105,106
 863 580 863 580 945 494 c 0,107,108
 1025 412 1025 412 1032 290 c 0,109,110
 1038 176 1038 176 1002 97 c 0,111,112
 959 0 959 0 867 0 c 0,113,114
 793 0 793 0 748 59 c 1,115,116
 702 1 702 1 634 0 c 0,117,118
 595 -1 595 -1 559.5 21 c 128,-1,119
 524 43 524 43 508 80 c 1,120,121
 484 -1 484 -1 397 -1 c 0,28,29
482 236 m 1,122,123
 487 282 487 282 514 321 c 0,124,125
 538 355 538 355 570 374 c 0,126,127
 579 380 579 380 601 389 c 1,128,129
 593 392 593 392 559 398 c 128,-1,130
 525 404 525 404 492 404 c 0,131,132
 330 404 330 404 219 303 c 1,133,134
 264 313 264 313 305 313 c 0,135,136
 421 313 421 313 482 236 c 1,122,123
EndSplineSet
Validated: 33
EndChar
StartChar: uni0DA4
Encoding: 34 3492 34
Width: 1024
VWidth: 1000
GlyphClass: 2
Flags: W
LayerCount: 2
Fore
SplineSet
300 266 m 1,0,1
 277 245 277 245 245 197 c 0,2,3
 221 162 221 162 195 95 c 1,4,5
 203 101 203 101 213 101 c 0,6,7
 222 101 222 101 252 88 c 0,8,9
 296 69 296 69 325 71 c 0,10,11
 366 74 366 74 391 105 c 0,12,13
 402 119 402 119 404 135 c 0,14,15
 404 149 404 149 404 163 c 1,16,-1
 434 163 l 1,17,18
 433 129 433 129 445 106 c 0,19,20
 466 65 466 65 527 71 c 0,21,22
 560 74 560 74 581.5 102.5 c 128,-1,23
 603 131 603 131 600 164 c 0,24,25
 591 259 591 259 468 282 c 0,26,27
 450 285 450 285 426 285 c 0,28,29
 350 285 350 285 300 266 c 1,0,1
611 231 m 1,30,31
 626 269 626 269 672 296 c 0,32,33
 708 317 708 317 819 317 c 2,34,-1
 914 317 l 1,35,36
 906 356 906 356 882 377 c 0,37,38
 855 402 855 402 816 395 c 0,39,40
 799 392 799 392 784.5 366 c 128,-1,41
 770 340 770 340 749 337 c 0,42,43
 711 331 711 331 711 368 c 0,44,45
 711 375 711 375 713 382 c 0,46,47
 714 383 714 383 715 385.5 c 128,-1,48
 716 388 716 388 716 389 c 0,49,50
 712 391 712 391 680.5 398.5 c 128,-1,51
 649 406 649 406 617 406 c 0,52,53
 566 406 566 406 499 387 c 0,54,55
 455 375 455 375 408.5 349 c 128,-1,56
 362 323 362 323 345 303 c 1,57,58
 389 313 389 313 431 313 c 0,59,60
 563 313 563 313 611 231 c 1,30,31
629 71 m 1,61,62
 601 -1 601 -1 522 -1 c 0,63,64
 453 -1 453 -1 420 63 c 1,65,66
 396 1 396 1 331 -1 c 0,67,68
 288 -2 288 -2 249 37 c 0,69,70
 248 38 248 38 234 59 c 0,71,72
 226 72 226 72 214 73 c 0,73,74
 195 74 195 74 182 49 c 0,75,76
 174 32 174 32 171 13 c 1,77,-1
 146 21 l 1,78,79
 161 128 161 128 233 230 c 0,80,81
 260 268 260 268 319 327 c 1,82,83
 321 386 321 386 288 391 c 0,84,85
 254 396 254 396 248 363 c 0,86,87
 240 316 240 316 225 303 c 0,88,89
 215 294 215 294 195 294 c 0,90,91
 171 294 171 294 161 306 c 128,-1,92
 151 318 151 318 151 335 c 0,93,94
 151 372 151 372 185 404 c 1,95,96
 136 398 136 398 95 349 c 0,97,98
 57 304 57 304 57 218 c 0,99,100
 57 97 57 97 135 29 c 1,101,-1
 135 0 l 1,102,103
 81 27 81 27 52 93 c 0,104,105
 27 150 27 150 27 221 c 0,106,107
 27 285 27 285 47 327 c 128,-1,108
 67 369 67 369 102.5 398 c 128,-1,109
 138 427 138 427 177 431 c 0,110,111
 203 434 203 434 232 430 c 1,112,113
 245 433 245 433 260 433 c 0,114,115
 300 433 300 433 325 413 c 0,116,117
 353 390 353 390 351 345 c 1,118,119
 370 366 370 366 414 388 c 0,120,121
 466 413 466 413 525.5 425 c 128,-1,122
 585 437 585 437 648 431 c 0,123,124
 699 426 699 426 733 412 c 1,125,126
 765 439 765 439 832 431 c 0,127,128
 925 420 925 420 951 294 c 1,129,-1
 820 294 l 2,130,131
 778 294 778 294 751 285 c 0,132,133
 672 259 672 259 680 162 c 0,134,135
 685 105 685 105 726 67.5 c 128,-1,136
 767 30 767 30 827 27 c 0,137,138
 895 24 895 24 955 92 c 1,139,-1
 978 75 l 1,140,141
 966 61 966 61 939 32 c 0,142,143
 911 -4 911 -4 894.5 -38 c 128,-1,144
 878 -72 878 -72 878 -104 c 0,145,146
 878 -141 878 -141 899.5 -168.5 c 128,-1,147
 921 -196 921 -196 980 -210 c 1,148,-1
 980 -238 l 1,149,150
 959 -242 959 -242 927 -242 c 0,151,152
 891 -241 891 -241 877 -234 c 0,153,154
 820 -204 820 -204 820 -142 c 0,155,156
 820 -130 820 -130 822 -117 c 0,157,158
 828 -75 828 -75 890 10 c 1,159,160
 837 -1 837 -1 795 -1 c 0,161,162
 761 -1 761 -1 736 6 c 0,163,164
 657 28 657 28 629 71 c 1,61,62
EndSplineSet
Validated: 33
EndChar
StartChar: uni0DA5
Encoding: 35 3493 35
Width: 842
VWidth: 1000
GlyphClass: 2
Flags: W
LayerCount: 2
Fore
SplineSet
350 239 m 1,0,1
 360 241 360 241 369 241 c 0,2,3
 403 241 403 241 425 218 c 1,4,5
 439 266 439 266 491 296 c 0,6,7
 527 317 527 317 637 317 c 2,8,-1
 732 317 l 1,9,10
 723 357 723 357 701 377 c 0,11,12
 673 402 673 402 634 395 c 0,13,14
 618 392 618 392 603.5 366 c 128,-1,15
 589 340 589 340 567 337 c 0,16,17
 529 331 529 331 529 368 c 0,18,19
 529 375 529 375 531 381 c 128,-1,20
 533 387 533 387 540 399 c 1,21,22
 525 403 525 403 510 403 c 0,23,24
 453 403 453 403 407 352 c 0,25,26
 367 307 367 307 350 239 c 1,0,1
442 80 m 1,27,28
 406 -9 406 -9 294 -1 c 0,29,30
 220 4 220 4 176 66 c 0,31,32
 134 123 134 123 134 204 c 0,33,34
 134 311 134 311 191 371 c 0,35,36
 210 391 210 391 235 406 c 1,37,38
 151 414 151 414 95 349 c 0,39,40
 57 304 57 304 57 218 c 0,41,42
 57 97 57 97 135 29 c 1,43,-1
 135 0 l 1,44,45
 81 27 81 27 52 93 c 0,46,47
 27 150 27 150 27 221 c 0,48,49
 27 298 27 298 63 355 c 0,50,51
 105 420 105 420 178 429 c 0,52,53
 235 436 235 436 351 430 c 1,54,-1
 351 407 l 1,55,56
 340 409 340 409 329 409 c 0,57,58
 266 409 266 409 218.5 362 c 128,-1,59
 171 315 171 315 166 249 c 0,60,61
 160 178 160 178 195 127 c 0,62,63
 233 70 233 70 302 68 c 0,64,65
 356 66 356 66 387.5 89.5 c 128,-1,66
 419 113 419 113 419 153 c 0,67,68
 419 178 419 178 404.5 197.5 c 128,-1,69
 390 217 390 217 367 217 c 0,70,71
 356 217 356 217 345 213 c 1,72,73
 341 197 341 197 341 192 c 1,74,-1
 316 192 l 1,75,76
 323 289 323 289 374 358 c 0,77,78
 433 439 433 439 527 431 c 0,79,80
 551 429 551 429 567 422 c 1,81,82
 598 437 598 437 651 431 c 0,83,84
 745 420 745 420 769 294 c 1,85,-1
 639 294 l 2,86,87
 596 294 596 294 569 285 c 0,88,89
 491 259 491 259 499 162 c 0,90,91
 504 105 504 105 544.5 66.5 c 128,-1,92
 585 28 585 28 645 25 c 0,93,94
 711 22 711 22 773 92 c 1,95,-1
 797 75 l 1,96,97
 769 47 769 47 758 32 c 0,98,99
 728 -7 728 -7 712 -39 c 128,-1,100
 696 -71 696 -71 696 -103 c 0,101,102
 696 -141 696 -141 717.5 -168.5 c 128,-1,103
 739 -196 739 -196 799 -210 c 1,104,-1
 799 -238 l 1,105,106
 777 -242 777 -242 745 -242 c 0,107,108
 709 -241 709 -241 696 -234 c 0,109,110
 639 -204 639 -204 639 -143 c 0,111,112
 639 -84 639 -84 709 10 c 1,113,114
 656 -1 656 -1 614 -1 c 0,115,116
 581 -1 581 -1 555 6 c 0,117,118
 471 28 471 28 442 80 c 1,27,28
EndSplineSet
Validated: 33
EndChar
StartChar: uni0DA6
Encoding: 36 3494 36
Width: 637
VWidth: 1000
GlyphClass: 2
Flags: W
LayerCount: 2
Fore
SplineSet
300 288 m 1,0,1
 251 293 251 293 200 283 c 0,2,3
 160 275 160 275 134 248 c 0,4,5
 106 218 106 218 108 181 c 0,6,7
 111 122 111 122 187 94 c 0,8,9
 247 71 247 71 336 71 c 0,10,11
 548 71 548 71 552 183 c 0,12,13
 554 223 554 223 525 251 c 0,14,15
 499 276 499 276 456 284 c 0,16,17
 395 295 395 295 338 285 c 1,18,19
 331 309 331 309 331 331 c 0,20,21
 331 411 331 411 416 433 c 1,22,23
 435 486 435 486 478 539 c 0,24,25
 543 619 543 619 582 619 c 0,26,27
 606 619 606 619 606 597 c 0,28,29
 606 586 606 586 596 580 c 0,30,31
 566 563 566 563 510 522 c 1,32,33
 460 479 460 479 444 433 c 1,34,35
 453 433 453 433 468 433 c 0,36,37
 505 434 505 434 531 412.5 c 128,-1,38
 557 391 557 391 558 359 c 0,39,40
 559 309 559 309 512 289 c 1,41,42
 546 275 546 275 567.5 238.5 c 128,-1,43
 589 202 589 202 587 156 c 0,44,45
 584 79 584 79 509 38 c 0,46,47
 442 0 442 0 336 0 c 0,48,49
 221 0 221 0 151 39 c 1,50,51
 98 87 98 87 71 168 c 1,52,53
 70 225 70 225 112 266 c 0,54,55
 152 303 152 303 210 310 c 0,56,57
 237 313 237 313 273 311 c 1,58,59
 275 321 275 321 275 331 c 0,60,61
 275 392 275 392 223 393 c 0,62,63
 190 394 190 394 181 369 c 0,64,65
 167 329 167 329 143 324 c 0,66,67
 136 322 136 322 130 322 c 0,68,69
 94 322 94 322 94 360 c 0,70,71
 94 369 94 369 98 378 c 0,72,73
 121 432 121 432 181.5 432 c 128,-1,74
 242 432 242 432 273 404.5 c 128,-1,75
 304 377 304 377 304 326 c 0,76,77
 304 308 304 308 300 288 c 1,0,1
399 344 m 0,78,79
 392 371 392 371 406 406 c 1,80,81
 361 380 361 380 361 334 c 0,82,83
 361 323 361 323 364 309 c 1,84,85
 375 310 375 310 397 311 c 0,86,87
 407 311 407 311 423 309 c 1,88,89
 405 319 405 319 399 344 c 0,78,79
426 359 m 0,90,91
 426 337 426 337 441.5 322.5 c 128,-1,92
 457 308 457 308 478 308 c 0,93,94
 498 308 498 308 512.5 321.5 c 128,-1,95
 527 335 527 335 527 355 c 256,96,97
 527 375 527 375 512.5 390.5 c 128,-1,98
 498 406 498 406 475 406 c 0,99,100
 455 406 455 406 440.5 392.5 c 128,-1,101
 426 379 426 379 426 359 c 0,90,91
143 406 m 1,102,-1
 95 349 l 2,103,104
 57 305 57 305 57 218 c 0,105,106
 57 97 57 97 151 52 c 1,107,-1
 143 24 l 1,108,109
 103 44 103 44 64 87 c 1,110,111
 27 150 27 150 27 221 c 0,112,113
 27 285 27 285 47 327 c 128,-1,114
 67 369 67 369 102.5 398 c 128,-1,115
 138 427 138 427 177 431 c 0,116,117
 237 437 237 437 143 406 c 1,102,-1
EndSplineSet
Validated: 37
EndChar
StartChar: uni0DA7
Encoding: 37 3495 37
Width: 603
VWidth: 1000
GlyphClass: 2
Flags: W
LayerCount: 2
Fore
SplineSet
321 346 m 1,0,1
 295 365 295 365 232 365 c 0,2,3
 160 365 160 365 113 324 c 0,4,5
 61 280 61 280 67 209 c 0,6,7
 73 135 73 135 146 99 c 0,8,9
 207 68 207 68 290 71 c 0,10,11
 402 75 402 75 465 140 c 0,12,13
 524 202 524 202 524 300 c 0,14,15
 524 397 524 397 454 473 c 0,16,17
 380 553 380 553 277 553 c 0,18,19
 213 553 213 553 172 535 c 0,20,21
 127 516 127 516 90 470 c 1,22,-1
 57 470 l 1,23,24
 130 575 130 575 271 577 c 0,25,26
 394 579 394 579 477 487 c 0,27,28
 557 399 557 399 557 275 c 0,29,30
 557 161 557 161 489 84 c 0,31,32
 417 2 417 2 297 0 c 0,33,34
 178 -2 178 -2 109.5 48.5 c 128,-1,35
 41 99 41 99 33 195 c 0,36,37
 27 266 27 266 74 323 c 0,38,39
 124 384 124 384 207 390 c 256,40,41
 290 396 290 396 321 375 c 1,42,-1
 321 346 l 1,43,-1
 321 346 l 1,0,1
EndSplineSet
Validated: 37
EndChar
StartChar: uni0DA8
Encoding: 38 3496 38
Width: 638
VWidth: 1000
GlyphClass: 2
Flags: W
LayerCount: 2
Fore
SplineSet
505 423 m 1,0,1
 472 363 472 363 413 363 c 0,2,3
 374 363 374 363 343 388.5 c 128,-1,4
 312 414 312 414 309 452 c 0,5,6
 304 531 304 531 350 603 c 1,7,8
 427 572 427 572 496 486 c 0,9,10
 572 391 572 391 584 289 c 0,11,12
 587 264 587 264 587 238 c 0,13,14
 587 141 587 141 548 75 c 0,15,16
 504 0 504 0 422 0 c 0,17,18
 348 0 348 0 303 59 c 1,19,20
 257 1 257 1 190 0 c 0,21,22
 114 -1 114 -1 69 68 c 0,23,24
 27 132 27 132 34 214 c 0,25,26
 39 273 39 273 68 318 c 0,27,28
 100 367 100 367 152 387 c 0,29,30
 183 398 183 398 221 398 c 1,31,-1
 221 374 l 1,32,33
 159 376 159 376 114 329.5 c 128,-1,34
 69 283 69 283 69 218 c 0,35,36
 69 159 69 159 101 116 c 0,37,38
 135 70 135 70 190 70 c 0,39,40
 230 70 230 70 259 88 c 128,-1,41
 288 106 288 106 288 139 c 2,42,-1
 288 190 l 1,43,-1
 317 190 l 1,44,-1
 317 139 l 2,45,46
 317 108 317 108 347 89.5 c 128,-1,47
 377 71 377 71 417 71 c 0,48,49
 490 71 490 71 528 140 c 0,50,51
 561 200 561 200 555 284 c 0,52,53
 552 325 552 325 533 372 c 0,54,55
 517 411 517 411 505 423 c 1,0,1
362 569 m 1,56,57
 338 537 338 537 338 479 c 0,58,59
 338 432 338 432 367 412 c 0,60,61
 387 398 387 398 412 398 c 0,62,63
 463 398 463 398 487 450 c 1,64,65
 462 487 462 487 435.5 511.5 c 128,-1,66
 409 536 409 536 398 545 c 0,67,68
 379 561 379 561 362 569 c 1,56,57
EndSplineSet
Validated: 33
EndChar
StartChar: uni0DA9
Encoding: 39 3497 39
Width: 647
VWidth: 1000
GlyphClass: 2
Flags: W
LayerCount: 2
Fore
SplineSet
563 284 m 0,0,1
 560 396 560 396 486.5 476 c 128,-1,2
 413 556 413 556 306 556 c 0,3,4
 179 556 179 556 106 468 c 1,5,-1
 73 468 l 1,6,7
 159 582 159 582 308 582 c 0,8,9
 426 582 426 582 509 495 c 0,10,11
 590 412 590 412 597 290 c 0,12,13
 604 177 604 177 567 97 c 0,14,15
 523 0 523 0 431 0 c 0,16,17
 387 0 387 0 359 17 c 0,18,19
 338 29 338 29 313 59 c 1,20,21
 267 1 267 1 200 0 c 0,22,23
 134 -1 134 -1 90 46.5 c 128,-1,24
 46 94 46 94 46 158 c 0,25,26
 46 181 46 181 52 203 c 0,27,28
 60 232 60 232 84 258 c 0,29,30
 106 281 106 281 125 288 c 1,31,-1
 15 288 l 1,32,-1
 15 315 l 1,33,-1
 261 315 l 1,34,35
 260 344 260 344 241 368 c 128,-1,36
 222 392 222 392 198 392 c 0,37,38
 189 392 189 392 181 389 c 0,39,40
 159 380 159 380 146 358 c 0,41,42
 136 341 136 341 111 339 c 0,43,44
 97 338 97 338 86 347.5 c 128,-1,45
 75 357 75 357 75 371 c 0,46,47
 75 378 75 378 79 386 c 0,48,49
 100 430 100 430 172 432 c 0,50,51
 229 433 229 433 263 390 c 0,52,53
 294 350 294 350 295 288 c 1,54,-1
 199 288 l 2,55,56
 155 288 155 288 119 254 c 128,-1,57
 83 220 83 220 83 176 c 0,58,59
 83 134 83 134 115.5 102.5 c 128,-1,60
 148 71 148 71 198 71 c 0,61,62
 238 71 238 71 268.5 90 c 128,-1,63
 299 109 299 109 299 143 c 2,64,-1
 299 178 l 1,65,-1
 326 178 l 1,66,-1
 326 143 l 2,67,68
 326 110 326 110 357 89 c 0,69,70
 384 71 384 71 424 71 c 0,71,72
 497 71 497 71 534 140 c 0,73,74
 565 198 565 198 563 284 c 0,0,1
EndSplineSet
Validated: 33
EndChar
StartChar: uni0DAA
Encoding: 40 3498 40
Width: 647
VWidth: 1000
GlyphClass: 2
Flags: W
LayerCount: 2
Fore
SplineSet
372 567 m 1,0,1
 347 534 347 534 347 476 c 0,2,3
 347 429 347 429 377 409 c 0,4,5
 402 393 402 393 424 393 c 0,6,7
 466 393 466 393 498 450 c 1,8,9
 481 476 481 476 446 511 c 0,10,11
 406 552 406 552 372 567 c 1,0,1
52 203 m 0,12,13
 60 232 60 232 84 258 c 0,14,15
 105 281 105 281 124 288 c 1,16,-1
 15 288 l 1,17,-1
 15 315 l 1,18,-1
 255 315 l 1,19,20
 255 343 255 343 237 367 c 128,-1,21
 219 391 219 391 196 391 c 0,22,23
 188 391 188 391 180 387 c 0,24,25
 158 377 158 377 145 354 c 0,26,27
 136 337 136 337 110 335 c 0,28,29
 96 332 96 332 83.5 342.5 c 128,-1,30
 71 353 71 353 71 368 c 0,31,32
 71 430 71 430 170 432 c 0,33,34
 227 433 227 433 258.5 393 c 128,-1,35
 290 353 290 353 289 288 c 1,36,-1
 195 288 l 2,37,38
 152 288 152 288 118.5 254 c 128,-1,39
 85 220 85 220 85 176 c 0,40,41
 85 134 85 134 116.5 102.5 c 128,-1,42
 148 71 148 71 198 71 c 0,43,44
 238 71 238 71 268.5 91.5 c 128,-1,45
 299 112 299 112 299 146 c 2,46,-1
 299 190 l 1,47,-1
 326 190 l 1,48,-1
 326 146 l 2,49,50
 326 112 326 112 356 91.5 c 128,-1,51
 386 71 386 71 425 71 c 0,52,53
 498 71 498 71 536 141 c 0,54,55
 570 202 570 202 564 286 c 0,56,57
 561 326 561 326 541 373 c 0,58,59
 526 410 526 410 514 424 c 1,60,61
 482 363 482 363 422 363 c 0,62,63
 383 363 383 363 352 388.5 c 128,-1,64
 321 414 321 414 318 452 c 0,65,66
 313 528 313 528 359 603 c 1,67,68
 459 563 459 563 528.5 456 c 128,-1,69
 598 349 598 349 598 240 c 0,70,71
 598 142 598 142 558 76 c 0,72,73
 513 0 513 0 431 0 c 0,74,75
 387 0 387 0 359 17 c 0,76,77
 338 29 338 29 313 59 c 1,78,79
 267 1 267 1 200 0 c 0,80,81
 134 -1 134 -1 90 46.5 c 128,-1,82
 46 94 46 94 46 158 c 0,83,84
 46 181 46 181 52 203 c 0,12,13
EndSplineSet
Validated: 33
EndChar
StartChar: uni0DAB
Encoding: 41 3499 41
Width: 963
VWidth: 1000
GlyphClass: 2
Flags: W
LayerCount: 2
Fore
SplineSet
22 178 m 1,0,1
 39 192 39 192 89 222 c 0,2,3
 117 239 117 239 171 269 c 1,4,5
 170 278 170 278 170 286 c 0,6,7
 170 358 170 358 230 399 c 0,8,9
 281 433 281 433 356 433 c 0,10,11
 428 433 428 433 467 405 c 1,12,13
 552 446 552 446 671 488 c 0,14,15
 780 527 780 527 828 527 c 0,16,17
 863 527 863 527 863 500 c 0,18,19
 863 477 863 477 828 470 c 0,20,21
 784 463 784 463 683 443 c 0,22,23
 595 423 595 423 497 390 c 1,24,25
 529 371 529 371 559 325 c 0,26,27
 580 293 580 293 580 250 c 1,28,29
 606 291 606 291 660 286 c 0,30,31
 700 282 700 282 721 250 c 1,32,33
 738 326 738 326 822 322 c 0,34,35
 875 319 875 319 899 255 c 0,36,37
 918 206 918 206 915 137 c 0,38,39
 913 87 913 87 887 48 c 0,40,41
 858 4 858 4 814 -1 c 0,42,43
 740 -9 740 -9 712 65 c 1,44,45
 687 35 687 35 644 36 c 0,46,47
 584 38 584 38 557 103 c 1,48,49
 522 50 522 50 480 26 c 0,50,51
 434 1 434 1 365 0 c 0,52,53
 285 -1 285 -1 237 37 c 0,54,55
 208 60 208 60 159 133 c 0,56,57
 150 146 150 146 140 159.5 c 128,-1,58
 130 173 130 173 113 179 c 0,59,60
 96 184 96 184 72 177 c 0,61,62
 58 173 58 173 33 154 c 1,63,-1
 22 178 l 1,0,1
201 287 m 1,64,65
 235 305 235 305 313 343 c 0,66,67
 377 372 377 372 435 394 c 1,68,69
 402 407 402 407 356 407 c 0,70,71
 295 407 295 407 259 385 c 0,72,73
 198 349 198 349 201 287 c 1,64,65
372 341 m 1,74,75
 405 334 405 334 425 310 c 128,-1,76
 445 286 445 286 445 255 c 0,77,78
 445 216 445 216 410.5 188.5 c 128,-1,79
 376 161 376 161 329 159 c 0,80,81
 214 154 214 154 177 242 c 1,82,83
 156 231 156 231 115 208 c 1,84,85
 141 205 141 205 157.5 185.5 c 128,-1,86
 174 166 174 166 189 147 c 0,87,88
 262 73 262 73 350 73 c 0,89,90
 366 73 366 73 382 75 c 0,91,92
 454 85 454 85 497 122 c 0,93,94
 544 162 544 162 549 224 c 0,95,96
 558 331 558 331 463 379 c 1,97,98
 447 373 447 373 423 363 c 0,99,100
 407 355 407 355 372 341 c 1,74,75
205 258 m 1,101,102
 215 227 215 227 243 208 c 0,103,104
 276 186 276 186 315 184 c 1,105,106
 272 199 272 199 263 240 c 0,107,108
 257 268 257 268 273 293 c 1,109,-1
 205 258 l 1,101,102
581 206 m 1,110,111
 581 182 581 182 573 150 c 1,112,113
 574 119 574 119 596 94 c 0,114,115
 620 66 620 66 653 69 c 0,116,117
 707 74 707 74 709 164 c 0,118,119
 711 257 711 257 653 258 c 0,120,121
 601 259 601 259 581 206 c 1,110,111
737 206 m 1,122,123
 743 188 743 188 742 163 c 0,124,125
 740 127 740 127 729 97 c 1,126,127
 732 71 732 71 752.5 49 c 128,-1,128
 773 27 773 27 801 29 c 0,129,130
 849 33 849 33 851 143 c 0,131,132
 854 282 854 282 797 283 c 0,133,134
 746 284 746 284 737 206 c 1,122,123
292 258 m 0,135,136
 292 231 292 231 311 214 c 128,-1,137
 330 197 330 197 354 197 c 0,138,139
 381 197 381 197 400 218 c 0,140,141
 415 234 415 234 415 257 c 0,142,143
 415 286 415 286 394 303 c 0,144,145
 377 318 377 318 353 318 c 0,146,147
 324 318 324 318 308 299.5 c 128,-1,148
 292 281 292 281 292 258 c 0,135,136
EndSplineSet
Validated: 33
EndChar
StartChar: uni0DAC
Encoding: 42 3500 42
Width: 731
VWidth: 1000
GlyphClass: 2
Flags: W
LayerCount: 2
Fore
SplineSet
176 402 m 1,0,1
 163 398 163 398 149 393 c 0,2,3
 121 380 121 380 95 349 c 0,4,5
 57 305 57 305 57 218 c 0,6,7
 57 97 57 97 135 29 c 1,8,-1
 135 0 l 1,9,10
 81 27 81 27 52 93 c 0,11,12
 27 150 27 150 27 221 c 0,13,14
 27 285 27 285 47 327 c 128,-1,15
 67 369 67 369 102.5 398 c 128,-1,16
 138 427 138 427 177 431 c 0,17,18
 199 433 199 433 236 430 c 0,19,20
 240 432 240 432 260 432 c 0,21,22
 317 433 317 433 350 390 c 0,23,24
 381 351 381 351 382 288 c 1,25,-1
 287 288 l 2,26,27
 243 288 243 288 206.5 254.5 c 128,-1,28
 170 221 170 221 170 177 c 0,29,30
 170 134 170 134 203 102.5 c 128,-1,31
 236 71 236 71 286 71 c 0,32,33
 326 71 326 71 356.5 90 c 128,-1,34
 387 109 387 109 387 143 c 2,35,-1
 387 178 l 1,36,-1
 414 178 l 1,37,-1
 414 143 l 2,38,39
 414 110 414 110 445 89 c 0,40,41
 472 71 472 71 512 71 c 0,42,43
 585 71 585 71 622 140 c 0,44,45
 653 198 653 198 651 284 c 0,46,47
 648 396 648 396 574.5 476 c 128,-1,48
 501 556 501 556 394 556 c 0,49,50
 267 556 267 556 194 468 c 1,51,-1
 161 468 l 1,52,53
 246 582 246 582 396 582 c 0,54,55
 526 582 526 582 608 483 c 0,56,57
 685 390 685 390 685 258 c 0,58,59
 685 152 685 152 648 83 c 0,60,61
 604 0 604 0 519 0 c 0,62,63
 448 0 448 0 401 59 c 1,64,65
 354 1 354 1 288 0 c 256,66,67
 222 -1 222 -1 178 46.5 c 128,-1,68
 134 94 134 94 134 158 c 0,69,70
 134 181 134 181 140 203 c 0,71,72
 148 232 148 232 172 258 c 0,73,74
 194 281 194 281 213 288 c 1,75,-1
 103 288 l 1,76,-1
 103 315 l 1,77,-1
 349 315 l 1,78,79
 348 344 348 344 329 368 c 128,-1,80
 310 392 310 392 285 392 c 0,81,82
 277 392 277 392 268 389 c 0,83,84
 245 380 245 380 234 358 c 0,85,86
 224 341 224 341 199 339 c 0,87,88
 185 338 185 338 174 347.5 c 128,-1,89
 163 357 163 357 163 371 c 0,90,91
 163 379 163 379 166 386 c 0,92,93
 171 397 171 397 176 402 c 1,0,1
EndSplineSet
Validated: 33
EndChar
StartChar: uni0DAD
Encoding: 43 3501 43
Width: 704
VWidth: 1000
GlyphClass: 2
Flags: W
LayerCount: 2
Fore
SplineSet
174 322 m 1,0,1
 178 336 178 336 178 350 c 0,2,3
 178 390 178 390 152 389 c 0,4,5
 127 388 127 388 121 357.5 c 128,-1,6
 115 327 115 327 114 325 c 0,7,8
 108 306 108 306 93 299 c 0,9,10
 84 295 84 295 73 295 c 0,11,12
 51 295 51 295 43 313 c 0,13,14
 37 327 37 327 37 342 c 0,15,16
 37 377 37 377 64.5 405 c 128,-1,17
 92 433 92 433 126 433 c 0,18,19
 204 433 204 433 206 348 c 1,20,21
 244 391 244 391 312 415 c 0,22,23
 371 435 371 435 435 435 c 0,24,25
 458 435 458 435 479 432 c 0,26,27
 554 421 554 421 608 349 c 0,28,29
 657 284 657 284 663 212 c 0,30,31
 669 134 669 134 637 72 c 0,32,33
 602 5 602 5 539 0 c 0,34,35
 484 -4 484 -4 455 16 c 1,36,-1
 460 42 l 1,37,38
 487 26 487 26 517 26 c 0,39,40
 538 26 538 26 554 34 c 0,41,42
 612 63 612 63 612 149 c 0,43,44
 612 275 612 275 495 345 c 0,45,46
 438 379 438 379 367 379 c 0,47,48
 261 379 261 379 201 306 c 1,49,50
 233 320 233 320 281 320 c 0,51,52
 343 320 343 320 384 297 c 0,53,54
 447 261 447 261 457 190 c 0,55,56
 459 175 459 175 459 161 c 0,57,58
 459 92 459 92 414.5 48 c 128,-1,59
 370 4 370 4 299 -1 c 0,60,61
 203 -7 203 -7 151 36 c 0,62,63
 136 51 136 51 121 65 c 0,64,65
 100 82 100 82 81 79 c 0,66,67
 57 75 57 75 44 9 c 1,68,-1
 22 25 l 1,69,70
 38 130 38 130 98 226 c 0,71,72
 141 294 141 294 174 322 c 1,0,1
159 265 m 1,73,74
 150 254 150 254 123 213 c 0,75,76
 96 169 96 169 72 100 c 1,77,78
 86 109 86 109 103 109 c 0,79,80
 127 109 127 109 170 88 c 0,81,82
 200 73 200 73 254 73 c 0,83,84
 287 73 287 73 317 79 c 0,85,86
 362 88 362 88 389.5 116.5 c 128,-1,87
 417 145 417 145 417 188 c 0,88,89
 417 200 417 200 415 213 c 0,90,91
 407 254 407 254 362 277 c 0,92,93
 323 297 323 297 279 296 c 0,94,95
 205 294 205 294 159 265 c 1,73,74
EndSplineSet
Validated: 33
EndChar
StartChar: uni0DAE
Encoding: 44 3502 44
Width: 614
VWidth: 1000
GlyphClass: 2
Flags: W
LayerCount: 2
Fore
SplineSet
245 405 m 1,0,1
 169 404 169 404 117.5 356.5 c 128,-1,2
 66 309 66 309 67 242 c 0,3,4
 68 155 68 155 139 110 c 0,5,6
 203 69 203 69 309 71 c 0,7,8
 405 72 405 72 467.5 130 c 128,-1,9
 530 188 530 188 530 283 c 0,10,11
 530 361 530 361 493 412 c 1,12,13
 465 363 465 363 413 363 c 0,14,15
 374 363 374 363 343 388.5 c 128,-1,16
 312 414 312 414 309 452 c 0,17,18
 304 531 304 531 350 603 c 1,19,20
 427 572 427 572 493 472 c 0,21,22
 566 364 566 364 566 254 c 256,23,24
 566 144 566 144 490 72 c 128,-1,25
 414 0 414 0 298 -1 c 0,26,27
 187 -2 187 -2 110 65 c 128,-1,28
 33 132 33 132 33 238 c 0,29,30
 33 318 33 318 97 374 c 0,31,32
 158 427 158 427 245 430 c 1,33,-1
 245 405 l 1,0,1
363 565 m 1,34,35
 339 541 339 541 339 478 c 0,36,37
 339 429 339 429 369 408 c 0,38,39
 388 395 388 395 409 395 c 0,40,41
 451 395 451 395 477 444 c 1,42,43
 462 473 462 473 430 507 c 0,44,45
 387 553 387 553 363 565 c 1,34,35
EndSplineSet
Validated: 33
EndChar
StartChar: uni0DAF
Encoding: 45 3503 45
Width: 456
VWidth: 1000
GlyphClass: 2
Flags: W
LayerCount: 2
Fore
SplineSet
249 294 m 2,0,1
 208 294 208 294 180 285 c 0,2,3
 101 259 101 259 109 162 c 0,4,5
 114 105 114 105 154.5 67.5 c 128,-1,6
 195 30 195 30 255 27 c 0,7,8
 324 23 324 23 384 92 c 1,9,-1
 407 75 l 1,10,11
 379 47 379 47 368 32 c 0,12,13
 338 -7 338 -7 322 -39 c 128,-1,14
 306 -71 306 -71 306 -104 c 0,15,16
 306 -142 306 -142 327 -168 c 0,17,18
 342 -187 342 -187 367 -197 c 0,19,20
 381 -203 381 -203 409 -210 c 1,21,-1
 409 -238 l 1,22,23
 388 -242 388 -242 355 -242 c 0,24,25
 319 -241 319 -241 306 -234 c 0,26,27
 249 -204 249 -204 249 -142 c 0,28,29
 249 -84 249 -84 319 10 c 1,30,31
 265 -1 265 -1 224 -1 c 0,32,33
 191 -1 191 -1 165 6 c 0,34,35
 38 41 38 41 31 158 c 0,36,37
 26 252 26 252 101 296 c 0,38,39
 137 317 137 317 248 317 c 2,40,-1
 343 317 l 1,41,42
 335 355 335 355 311 377 c 0,43,44
 284 402 284 402 245 395 c 0,45,46
 228 392 228 392 213.5 366 c 128,-1,47
 199 340 199 340 177 337 c 0,48,49
 140 331 140 331 140 368 c 0,50,51
 140 375 140 375 142 382 c 0,52,53
 161 433 161 433 232 433 c 0,54,55
 245 433 245 433 261 431 c 0,56,57
 355 420 355 420 379 294 c 1,58,-1
 249 294 l 2,0,1
EndSplineSet
Validated: 33
EndChar
StartChar: uni0DB0
Encoding: 46 3504 46
Width: 638
VWidth: 1000
GlyphClass: 2
Flags: W
LayerCount: 2
Fore
SplineSet
221 398 m 1,0,-1
 221 373 l 1,1,2
 163 378 163 378 115 330.5 c 128,-1,3
 67 283 67 283 67 218 c 0,4,5
 67 159 67 159 99 117 c 0,6,7
 133 71 133 71 188 71 c 0,8,9
 229 71 229 71 257 89 c 0,10,11
 289 109 289 109 289 143 c 2,12,-1
 289 196 l 1,13,-1
 319 196 l 1,14,-1
 319 143 l 2,15,16
 319 109 319 109 348 90 c 128,-1,17
 377 71 377 71 417 71 c 0,18,19
 486 71 486 71 523 142 c 0,20,21
 553 199 553 199 556 284 c 0,22,23
 560 395 560 395 483 476 c 128,-1,24
 406 557 406 557 294 557 c 0,25,26
 173 557 173 557 94 468 c 1,27,-1
 65 468 l 1,28,29
 150 580 150 580 299 580 c 0,30,31
 418 580 418 580 501 494 c 0,32,33
 581 412 581 412 588 290 c 0,34,35
 595 177 595 177 558 97 c 0,36,37
 514 0 514 0 422 0 c 0,38,39
 348 0 348 0 303 59 c 1,40,41
 257 1 257 1 190 0 c 0,42,43
 114 -1 114 -1 69 68 c 0,44,45
 27 132 27 132 34 214 c 0,46,47
 39 273 39 273 68 318 c 0,48,49
 100 367 100 367 152 387 c 0,50,51
 183 398 183 398 221 398 c 1,0,-1
EndSplineSet
Validated: 33
EndChar
StartChar: uni0DB1
Encoding: 47 3505 47
Width: 806
VWidth: 1000
GlyphClass: 2
Flags: W
LayerCount: 2
Fore
SplineSet
214 285 m 1,0,1
 221 303 221 303 221 323 c 0,2,3
 221 351 221 351 209 368.5 c 128,-1,4
 197 386 197 386 175 383 c 0,5,6
 145 378 145 378 140 345 c 0,7,8
 132 293 132 293 94 293 c 0,9,10
 55 293 55 293 55 340 c 0,11,12
 55 379 55 379 85 405 c 128,-1,13
 115 431 115 431 154 431 c 0,14,15
 199 431 199 431 228 396.5 c 128,-1,16
 257 362 257 362 253 317 c 1,17,18
 299 369 299 369 375 401.5 c 128,-1,19
 451 434 451 434 527 432 c 0,20,21
 622 429 622 429 691 357 c 128,-1,22
 760 285 760 285 760 183 c 0,23,24
 760 113 760 113 727 62 c 0,25,26
 690 6 690 6 626 0 c 0,27,28
 575 -5 575 -5 542 21 c 1,29,-1
 555 43 l 1,30,31
 580 22 580 22 626 28 c 0,32,33
 662 33 662 33 683 67.5 c 128,-1,34
 704 102 704 102 704 149 c 0,35,36
 704 206 704 206 670.5 260.5 c 128,-1,37
 637 315 637 315 581 341 c 0,38,39
 518 370 518 370 447 370 c 0,40,41
 335 370 335 370 266 295 c 1,42,43
 302 309 302 309 339 309 c 0,44,45
 408 309 408 309 454.5 266 c 128,-1,46
 501 223 501 223 498 162 c 0,47,48
 494 80 494 80 429 38 c 0,49,50
 374 2 374 2 288 0 c 0,51,52
 89 -4 89 -4 27 124 c 1,53,54
 50 116 50 116 66 116 c 0,55,56
 84 116 84 116 94 125 c 0,57,58
 108 138 108 138 121.5 159.5 c 128,-1,59
 135 181 135 181 149 203 c 0,60,61
 187 261 187 261 214 285 c 1,0,1
226 252 m 0,62,63
 204 234 204 234 181 201 c 0,64,65
 162 171 162 171 144 142.5 c 128,-1,66
 126 114 126 114 107 102 c 1,67,68
 186 69 186 69 288 74 c 0,69,70
 427 80 427 80 451 163 c 0,71,72
 455 176 455 176 455 188 c 0,73,74
 455 230 455 230 413 257 c 0,75,76
 375 282 375 282 322 282 c 0,77,78
 264 282 264 282 226 252 c 0,62,63
EndSplineSet
Validated: 33
EndChar
StartChar: uni0DB3
Encoding: 48 3507 48
Width: 526
VWidth: 1000
GlyphClass: 2
Flags: W
LayerCount: 2
Fore
SplineSet
102 158 m 0,0,1
 97 252 97 252 172 296 c 0,2,3
 208 317 208 317 319 317 c 2,4,-1
 414 317 l 1,5,6
 406 356 406 356 382 377 c 0,7,8
 354 402 354 402 316 395 c 0,9,10
 300 392 300 392 285.5 366 c 128,-1,11
 271 340 271 340 249 337 c 0,12,13
 211 331 211 331 211 368 c 0,14,15
 211 375 211 375 213 381 c 128,-1,16
 215 387 215 387 221 398 c 1,17,18
 207 405 207 405 189 405 c 0,19,20
 137 405 137 405 89 347 c 0,21,22
 60 312 60 312 60 247 c 0,23,24
 60 157 60 157 110 110 c 1,25,26
 104 131 104 131 102 158 c 0,0,1
126 73 m 1,27,28
 80 94 80 94 55 146 c 0,29,30
 32 192 32 192 32 248 c 0,31,32
 32 293 32 293 47 327 c 0,33,34
 65 369 65 369 101 398 c 128,-1,35
 137 427 137 427 177 431 c 0,36,37
 214 435 214 435 242 419 c 1,38,39
 274 438 274 438 333 431 c 0,40,41
 427 420 427 420 451 294 c 1,42,-1
 320 294 l 2,43,44
 278 294 278 294 251 285 c 0,45,46
 172 259 172 259 181 162 c 0,47,48
 186 105 186 105 226.5 66.5 c 128,-1,49
 267 28 267 28 326 25 c 0,50,51
 393 22 393 22 455 92 c 1,52,-1
 478 75 l 2,53,54
 476 73 476 73 440 32 c 0,55,56
 415 3 415 3 394 -39 c 0,57,58
 378 -72 378 -72 378 -104 c 0,59,60
 378 -141 378 -141 399.5 -168.5 c 128,-1,61
 421 -196 421 -196 480 -210 c 1,62,-1
 480 -238 l 1,63,64
 459 -242 459 -242 427 -242 c 0,65,66
 391 -241 391 -241 377 -234 c 0,67,68
 320 -204 320 -204 320 -142 c 0,69,70
 320 -130 320 -130 322 -117 c 0,71,72
 328 -74 328 -74 391 10 c 1,73,74
 337 -1 337 -1 296 -1 c 0,75,76
 263 -1 263 -1 237 6 c 0,77,78
 162 27 162 27 126 73 c 1,27,28
EndSplineSet
Validated: 33
EndChar
StartChar: uni0DB4
Encoding: 49 3508 49
Width: 616
VWidth: 1000
GlyphClass: 2
Flags: W
LayerCount: 2
Fore
SplineSet
271 297 m 1,0,1
 204 304 204 304 151 290 c 0,2,3
 116 280 116 280 94 258 c 0,4,5
 69 233 69 233 69 201 c 0,6,7
 69 129 69 129 159 95 c 0,8,9
 222 71 222 71 307 71 c 0,10,11
 388 71 388 71 454 98 c 0,12,13
 541 134 541 134 541 205 c 0,14,15
 541 240 541 240 515 265.5 c 128,-1,16
 489 291 489 291 448 297 c 0,17,18
 395 305 395 305 324 297 c 1,19,20
 321 314 321 314 321 329 c 0,21,22
 321 378 321 378 353 406.5 c 128,-1,23
 385 435 385 435 446 433 c 0,24,25
 486 432 486 432 513 410 c 128,-1,26
 540 388 540 388 540 355 c 0,27,28
 540 319 540 319 514 303 c 1,29,30
 574 268 574 268 574 188 c 0,31,32
 574 176 574 176 572 163 c 0,33,34
 563 85 563 85 487 41 c 0,35,36
 416 0 416 0 307 0 c 0,37,38
 188 0 188 0 117 39 c 0,39,40
 39 81 39 81 32 167 c 0,41,42
 23 281 23 281 138 313 c 0,43,44
 196 329 196 329 244 321 c 1,45,46
 245 329 245 329 245 337 c 0,47,48
 245 394 245 394 190 394 c 0,49,50
 153 394 153 394 145 370 c 0,51,52
 130 328 130 328 94 328 c 0,53,54
 80 328 80 328 70 339 c 128,-1,55
 60 350 60 350 60 366 c 0,56,57
 60 377 60 377 65 386 c 0,58,59
 88 432 88 432 150 432 c 0,60,61
 161 432 161 432 176 431 c 0,62,63
 275 424 275 424 275 335 c 0,64,65
 275 318 275 318 271 297 c 1,0,1
489 315 m 1,66,67
 505 327 505 327 505 348 c 0,68,69
 505 368 505 368 489.5 385 c 128,-1,70
 474 402 474 402 450 403 c 0,71,72
 404 405 404 405 376.5 383 c 128,-1,73
 349 361 349 361 354 325 c 1,74,75
 405 328 405 328 417 327 c 0,76,77
 461 325 461 325 489 315 c 1,66,67
EndSplineSet
Validated: 33
EndChar
StartChar: uni0DB5
Encoding: 50 3509 50
Width: 583
VWidth: 1000
GlyphClass: 2
Flags: W
LayerCount: 2
Fore
SplineSet
206 315 m 2,0,-1
 248 315 l 1,1,2
 247 345 247 345 228 369 c 128,-1,3
 209 393 209 393 184 393 c 0,4,5
 177 393 177 393 171 391 c 0,6,7
 146 384 146 384 136 362 c 128,-1,8
 126 340 126 340 101 335 c 0,9,10
 84 332 84 332 74 342.5 c 128,-1,11
 64 353 64 353 64 369 c 0,12,13
 64 391 64 391 87 411 c 128,-1,14
 110 431 110 431 163 432 c 0,15,16
 219 433 219 433 251 390 c 0,17,18
 280 351 280 351 282 288 c 1,19,-1
 188 288 l 2,20,21
 135 288 135 288 101.5 261 c 128,-1,22
 68 234 68 234 67 196 c 0,23,24
 66 128 66 128 137 96 c 0,25,26
 193 71 193 71 278 71 c 0,27,28
 374 71 374 71 434 118 c 0,29,30
 500 169 500 169 501 267 c 0,31,32
 502 344 502 344 459 411 c 1,33,34
 437 362 437 362 374 359 c 0,35,36
 329 357 329 357 300 393 c 128,-1,37
 271 429 271 429 272 477 c 0,38,39
 273 557 273 557 315 597 c 1,40,41
 353 577 353 577 398 534 c 0,42,43
 448 485 448 485 481 428 c 0,44,45
 540 327 540 327 533 220 c 0,46,47
 527 125 527 125 458.5 63 c 128,-1,48
 390 1 390 1 290 0 c 0,49,50
 165 -1 165 -1 99 45 c 0,51,52
 27 95 27 95 33 183 c 0,53,54
 37 251 37 251 91 288 c 0,55,56
 130 315 130 315 206 315 c 2,0,-1
442 439 m 1,57,58
 422 471 422 471 388 504 c 0,59,60
 370 523 370 523 322 561 c 1,61,62
 303 542 303 542 303 492 c 0,63,64
 303 415 303 415 359 401 c 0,65,66
 371 398 371 398 382 398 c 0,67,68
 424 398 424 398 442 439 c 1,57,58
EndSplineSet
Validated: 33
EndChar
StartChar: uni0DB6
Encoding: 51 3510 51
Width: 619
VWidth: 1000
GlyphClass: 2
Flags: W
LayerCount: 2
Fore
SplineSet
80 88 m 1,0,1
 80 114 80 114 92 127 c 0,2,3
 114 151 114 151 153 151 c 0,4,5
 219 151 219 151 229 79 c 0,6,7
 233 48 233 48 211.5 25 c 128,-1,8
 190 2 190 2 156 -1 c 0,9,10
 87 -7 87 -7 54 71 c 0,11,12
 33 121 33 121 33 187 c 0,13,14
 33 282 33 282 92 339 c 128,-1,15
 151 396 151 396 247 396 c 0,16,17
 316 396 316 396 366 362 c 0,18,19
 423 324 423 324 423 257 c 0,20,21
 423 247 423 247 422 237 c 0,22,23
 416 189 416 189 383 165 c 1,24,25
 358 153 358 153 333 141 c 0,26,27
 304 126 304 126 304 101 c 0,28,29
 304 64 304 64 351 64 c 0,30,31
 371 64 371 64 397 73 c 0,32,33
 458 95 458 95 497 175 c 0,34,35
 532 246 532 246 530 319 c 0,36,37
 528 425 528 425 465.5 491 c 128,-1,38
 403 557 403 557 303 558 c 0,39,40
 153 560 153 560 95 470 c 1,41,-1
 64 470 l 1,42,43
 116 578 116 578 286 585 c 0,44,45
 399 590 399 590 478 524 c 128,-1,46
 557 458 557 458 571 347 c 0,47,48
 575 316 575 316 575 284 c 0,49,50
 575 176 575 176 534 97 c 0,51,52
 491 15 491 15 423 2 c 0,53,54
 400 -2 400 -2 381 -2 c 0,55,56
 335 -2 335 -2 304 24 c 128,-1,57
 273 50 273 50 273 94 c 0,58,59
 273 133 273 133 303 154 c 1,60,61
 330 168 330 168 356.5 183.5 c 128,-1,62
 383 199 383 199 387 231 c 0,63,64
 393 276 393 276 342 300 c 0,65,66
 302 319 302 319 239 320 c 0,67,68
 181 321 181 321 136.5 294.5 c 128,-1,69
 92 268 92 268 73 221 c 0,70,71
 62 195 62 195 62 166 c 0,72,73
 62 127 62 127 80 88 c 1,0,1
100 75 m 0,74,75
 100 54 100 54 114 40 c 128,-1,76
 128 26 128 26 149 26 c 0,77,78
 169 26 169 26 183.5 40 c 128,-1,79
 198 54 198 54 198 74 c 256,80,81
 198 94 198 94 183.5 108 c 128,-1,82
 169 122 169 122 149 122 c 256,83,84
 129 122 129 122 114.5 108.5 c 128,-1,85
 100 95 100 95 100 75 c 0,74,75
EndSplineSet
Validated: 33
EndChar
StartChar: uni0DB7
Encoding: 52 3511 52
Width: 670
VWidth: 1000
GlyphClass: 2
Flags: W
LayerCount: 2
Fore
SplineSet
255 281 m 1,0,1
 198 285 198 285 150 258 c 0,2,3
 95 228 95 228 90 183 c 0,4,5
 84 131 84 131 123 101 c 0,6,7
 159 73 159 73 224 71 c 0,8,9
 278 70 278 70 313 93.5 c 128,-1,10
 348 117 348 117 348 160 c 0,11,12
 348 212 348 212 306 208 c 0,13,14
 291 207 291 207 278 192 c 1,15,-1
 255 192 l 1,16,17
 260 261 260 261 298 327 c 0,18,19
 359 433 359 433 451 432 c 0,20,21
 531 431 531 431 578 363 c 0,22,23
 620 302 620 302 621 214 c 0,24,25
 622 131 622 131 568.5 70 c 128,-1,26
 515 9 515 9 432 0 c 0,27,28
 402 -3 402 -3 368 2 c 1,29,-1
 368 29 l 1,30,31
 418 20 418 20 460 33 c 0,32,33
 512 49 512 49 544 89.5 c 128,-1,34
 576 130 576 130 575 186 c 0,35,36
 574 257 574 257 545 303 c 0,37,38
 511 356 511 356 449 363 c 0,39,40
 438 364 438 364 428 364 c 0,41,42
 372 364 372 364 336.5 328.5 c 128,-1,43
 301 293 301 293 291 231 c 1,44,45
 312 242 312 242 336 232 c 0,46,47
 373 217 373 217 381 153 c 0,48,49
 389 88 389 88 340 45 c 0,50,51
 295 4 295 4 226 0 c 0,52,53
 156 -4 156 -4 104 37 c 0,54,55
 48 81 48 81 51 151 c 0,56,57
 54 236 54 236 139 276 c 1,58,-1
 6 276 l 1,59,-1
 6 303 l 1,60,-1
 224 303 l 1,61,62
 219 337 219 337 206 358 c 0,63,64
 188 387 188 387 158 384 c 0,65,66
 136 382 136 382 123.5 356.5 c 128,-1,67
 111 331 111 331 95 329 c 0,68,69
 57 323 57 323 53 359 c 0,70,71
 49 388 49 388 75 410.5 c 128,-1,72
 101 433 101 433 140 432 c 0,73,74
 190 431 190 431 222 389.5 c 128,-1,75
 254 348 254 348 255 281 c 1,0,1
EndSplineSet
Validated: 33
EndChar
StartChar: uni0DB8
Encoding: 53 3512 53
Width: 635
VWidth: 1000
GlyphClass: 2
Flags: W
LayerCount: 2
Fore
SplineSet
110 469 m 1,0,-1
 78 469 l 1,1,2
 160 582 160 582 299 586 c 0,3,4
 417 589 417 589 499 504.5 c 128,-1,5
 581 420 581 420 585 301 c 256,6,7
 589 182 589 182 515 94 c 128,-1,8
 441 6 441 6 322 0 c 0,9,10
 195 -6 195 -6 116 58 c 0,11,12
 34 124 34 124 33 242 c 0,13,14
 32 312 32 312 66 370 c 0,15,16
 103 432 103 432 155 432 c 0,17,18
 202 432 202 432 207 389 c 0,19,20
 209 372 209 372 207 346 c 0,21,22
 205 314 205 314 205 299 c 0,23,24
 206 266 206 266 231.5 243 c 128,-1,25
 257 220 257 220 298 218 c 0,26,27
 392 214 392 214 401 310 c 0,28,29
 405 353 405 353 384 377 c 1,30,31
 388 366 388 366 388 354 c 0,32,33
 388 321 388 321 363.5 297.5 c 128,-1,34
 339 274 339 274 299 277 c 0,35,36
 270 279 270 279 251.5 303 c 128,-1,37
 233 327 233 327 233 356 c 0,38,39
 233 391 233 391 258.5 414 c 128,-1,40
 284 437 284 437 320 437 c 0,41,42
 370 437 370 437 402 397 c 0,43,44
 431 360 431 360 431 309 c 0,45,46
 431 261 431 261 398 225.5 c 128,-1,47
 365 190 365 190 315 185 c 0,48,49
 261 180 261 180 219 209 c 0,50,51
 174 240 174 240 173 292 c 0,52,53
 173 305 173 305 175.5 331.5 c 128,-1,54
 178 358 178 358 178 368 c 0,55,56
 178 405 178 405 151 405 c 0,57,58
 118 405 118 405 91.5 354 c 128,-1,59
 65 303 65 303 68 246 c 0,60,61
 73 152 73 152 149 108 c 0,62,63
 211 71 211 71 311 71 c 0,64,65
 413 71 413 71 479 132 c 0,66,67
 550 197 550 197 553 307 c 0,68,69
 556 408 556 408 485 483.5 c 128,-1,70
 414 559 414 559 309 560 c 0,71,72
 182 562 182 562 110 469 c 1,0,-1
263 356 m 0,73,74
 263 336 263 336 277 322 c 128,-1,75
 291 308 291 308 310 308 c 0,76,77
 324 308 324 308 337 316 c 0,78,79
 360 330 360 330 360 359 c 0,80,81
 360 384 360 384 342 397 c 0,82,83
 329 407 329 407 313 407 c 0,84,85
 292 407 292 407 277.5 392 c 128,-1,86
 263 377 263 377 263 356 c 0,73,74
EndSplineSet
Validated: 33
EndChar
StartChar: uni0DB9
Encoding: 54 3513 54
Width: 636
VWidth: 1000
GlyphClass: 2
Flags: W
LayerCount: 2
Fore
SplineSet
554 286 m 0,0,1
 554 389 554 389 494 465 c 0,2,3
 425 552 425 552 311 554 c 0,4,5
 160 557 160 557 93 466 c 1,6,-1
 62 466 l 1,7,8
 109 531 109 531 170 556 c 0,9,10
 224 579 224 579 313 578 c 0,11,12
 442 577 442 577 520 477 c 0,13,14
 590 386 590 386 590 254 c 0,15,16
 590 155 590 155 554 87 c 0,17,18
 514 11 514 11 442 1 c 0,19,20
 431 0 431 0 420 0 c 0,21,22
 374 0 374 0 344 19 c 1,23,24
 378 63 378 63 377 111 c 0,25,26
 376 175 376 175 322 177 c 0,27,28
 291 178 291 178 274 155.5 c 128,-1,29
 257 133 257 133 257 101 c 0,30,31
 257 51 257 51 285 21 c 1,32,33
 256 7 256 7 246 4 c 0,34,35
 224 -2 224 -2 183 0 c 0,36,37
 111 4 111 4 67 80 c 0,38,39
 26 151 26 151 31 242 c 0,40,41
 35 316 35 316 61 368 c 0,42,43
 94 432 94 432 150 432 c 0,44,45
 202 432 202 432 198 358 c 0,46,47
 196 317 196 317 224 286.5 c 128,-1,48
 252 256 252 256 295 257 c 0,49,50
 365 258 365 258 389 311 c 0,51,52
 397 329 397 329 392 365 c 1,53,54
 393 335 393 335 371.5 313 c 128,-1,55
 350 291 350 291 318 291 c 0,56,57
 309 291 309 291 299 293 c 0,58,59
 270 300 270 300 255 322 c 128,-1,60
 240 344 240 344 244 372 c 256,61,62
 248 400 248 400 272 418 c 0,63,64
 292 433 292 433 314 434 c 0,65,66
 360 436 360 436 390 413 c 0,67,68
 424 386 424 386 422 335 c 0,69,70
 421 292 421 292 387 262.5 c 128,-1,71
 353 233 353 233 307 230 c 0,72,73
 253 227 253 227 211 258 c 128,-1,74
 169 289 169 289 169 342 c 0,75,76
 169 421 169 421 171 381 c 1,77,78
 170 400 170 400 155 404 c 0,79,80
 149 405 149 405 144 405 c 0,81,82
 104 405 104 405 80 347 c 0,83,84
 61 302 61 302 61 253 c 0,85,86
 61 191 61 191 86 143 c 0,87,88
 113 89 113 89 161 76 c 0,89,90
 200 65 200 65 233 73 c 1,91,92
 228 89 228 89 228 105 c 0,93,94
 228 146 228 146 254.5 175 c 128,-1,95
 281 204 281 204 323 204 c 0,96,97
 357 204 357 204 382 176.5 c 128,-1,98
 407 149 407 149 407 108 c 0,99,100
 407 90 407 90 402 71 c 1,101,102
 472 66 472 66 515 135 c 0,103,104
 554 197 554 197 554 286 c 0,0,1
273 364 m 0,105,106
 273 345 273 345 287 332 c 128,-1,107
 301 319 301 319 320 319 c 0,108,109
 338 319 338 319 351.5 332 c 128,-1,110
 365 345 365 345 365 364 c 256,111,112
 365 383 365 383 351.5 396 c 128,-1,113
 338 409 338 409 320 409 c 0,114,115
 301 409 301 409 287 395.5 c 128,-1,116
 273 382 273 382 273 364 c 0,105,106
EndSplineSet
Validated: 41
EndChar
StartChar: uni0DBA
Encoding: 55 3514 55
Width: 636
VWidth: 1000
GlyphClass: 2
Flags: W
LayerCount: 2
Fore
SplineSet
251 387 m 1,0,-1
 251 359 l 1,1,2
 235 362 235 362 219 362 c 0,3,4
 165 362 165 362 121 329 c 128,-1,5
 77 296 77 296 67 243 c 0,6,7
 63 224 63 224 63 206 c 0,8,9
 63 149 63 149 100 109.5 c 128,-1,10
 137 70 137 70 193 70 c 0,11,12
 230 70 230 70 262.5 94 c 128,-1,13
 295 118 295 118 295 146 c 2,14,-1
 295 176 l 1,15,-1
 322 176 l 1,16,-1
 322 147 l 2,17,18
 322 113 322 113 357 90.5 c 128,-1,19
 392 68 392 68 435 71 c 0,20,21
 557 80 557 80 557 189 c 0,22,23
 557 225 557 225 533 254.5 c 128,-1,24
 509 284 509 284 469 293 c 0,25,26
 441 300 441 300 407 300 c 0,27,28
 362 300 362 300 322 289 c 1,29,30
 321 300 321 300 321 310 c 0,31,32
 321 428 321 428 447 433 c 0,33,34
 542 437 542 437 557 366 c 0,35,36
 561 346 561 346 549 325.5 c 128,-1,37
 537 305 537 305 521 303 c 1,38,39
 586 264 586 264 592 173 c 0,40,41
 597 104 597 104 551 50.5 c 128,-1,42
 505 -3 505 -3 436 -1 c 0,43,44
 337 2 337 2 307 71 c 1,45,46
 273 -1 273 -1 186 -1 c 0,47,48
 105 -1 105 -1 59 70 c 0,49,50
 26 122 26 122 31 202 c 0,51,52
 39 320 39 320 130 367 c 0,53,54
 174 389 174 389 223 389 c 0,55,56
 238 389 238 389 251 387 c 1,0,-1
350 319 m 1,57,58
 372 325 372 325 410 325 c 0,59,60
 464 325 464 325 497 314 c 1,61,62
 519 326 519 326 519 350 c 0,63,64
 519 364 519 364 510 375 c 0,65,66
 495 395 495 395 456 397 c 0,67,68
 413 399 413 399 384 381 c 0,69,70
 352 360 352 360 350 319 c 1,57,58
EndSplineSet
Validated: 33
EndChar
StartChar: uni0DBB
Encoding: 56 3515 56
Width: 528
VWidth: 1000
GlyphClass: 2
Flags: W
LayerCount: 2
Fore
SplineSet
119 354 m 0,0,1
 65 307 65 307 65 236 c 0,2,3
 65 170 65 170 113 124 c 0,4,5
 164 74 164 74 243 74 c 0,6,7
 332 74 332 74 385 136 c 0,8,9
 430 189 430 189 430 254 c 0,10,11
 430 321 430 321 380 370 c 0,12,13
 338 411 338 411 270 411 c 0,14,15
 185 411 185 411 119 354 c 0,0,1
402 520 m 0,16,17
 433 540 433 540 455 565 c 0,18,19
 481 593 481 593 489.5 599.5 c 128,-1,20
 498 606 498 606 508 606 c 0,21,22
 525 606 525 606 526 591 c 0,23,24
 529 551 529 551 456 509 c 0,25,26
 362 455 362 455 293 435 c 1,27,28
 376 427 376 427 429.5 366.5 c 128,-1,29
 483 306 483 306 482 222 c 0,30,31
 481 120 481 120 393 47 c 0,32,33
 336 0 336 0 248 0 c 0,34,35
 154 0 154 0 91.5 61.5 c 128,-1,36
 29 123 29 123 29 216 c 0,37,38
 29 293 29 293 76 347 c 0,39,40
 118 395 118 395 182 421 c 0,41,42
 233 440 233 440 283 459 c 0,43,44
 347 485 347 485 402 520 c 0,16,17
EndSplineSet
Validated: 33
EndChar
StartChar: uni0DBD
Encoding: 57 3517 57
Width: 670
VWidth: 1000
GlyphClass: 2
Flags: W
LayerCount: 2
Fore
SplineSet
265 308 m 1,0,-1
 518 308 l 1,1,-1
 518 282 l 1,2,-1
 396 282 l 1,3,4
 393 257 393 257 422 236 c 0,5,6
 448 217 448 217 479 216 c 0,7,8
 522 215 522 215 548.5 235.5 c 128,-1,9
 575 256 575 256 575 291 c 0,10,11
 575 301 575 301 573 311 c 0,12,13
 552 406 552 406 364 404 c 0,14,15
 264 403 264 403 190 341 c 0,16,17
 107 271 107 271 107 161 c 0,18,19
 107 145 107 145 109 129 c 0,20,21
 132 -75 132 -75 341 -109 c 0,22,23
 360 -112 360 -112 380 -112 c 0,24,25
 464 -112 464 -112 521 -71 c 0,26,27
 569 -36 569 -36 588 26 c 0,28,29
 599 63 599 63 590 84 c 1,30,-1
 624 84 l 1,31,32
 626 46 626 46 613 4 c 0,33,34
 594 -60 594 -60 533 -103 c 0,35,36
 464 -151 464 -151 368 -154 c 0,37,38
 230 -158 230 -158 135 -86 c 0,39,40
 29 -6 29 -6 31 135 c 0,41,42
 33 281 33 281 133 361 c 0,43,44
 223 432 223 432 364 432 c 0,45,46
 456 432 456 432 519 405 c 0,47,48
 597 371 597 371 609 301 c 0,49,50
 611 290 611 290 611 280 c 0,51,52
 611 227 611 227 569.5 197 c 128,-1,53
 528 167 528 167 475 172 c 0,54,55
 426 177 426 177 397 205.5 c 128,-1,56
 368 234 368 234 368 282 c 1,57,-1
 265 282 l 1,58,-1
 265 308 l 1,0,-1
EndSplineSet
Validated: 33
EndChar
StartChar: uni0DC0
Encoding: 58 3520 58
Width: 597
VWidth: 1000
GlyphClass: 2
Flags: W
LayerCount: 2
Fore
SplineSet
194 280 m 2,0,1
 149 280 149 280 113 259 c 128,-1,2
 77 238 77 238 70 204 c 0,3,4
 67 192 67 192 67 180 c 0,5,6
 67 71 67 71 282 71 c 0,7,8
 394 71 394 71 457 138 c 0,9,10
 515 201 515 201 515 300 c 0,11,12
 515 401 515 401 449 475 c 0,13,14
 379 552 379 552 276 552 c 0,15,16
 157 552 157 552 90 470 c 1,17,-1
 57 470 l 1,18,19
 130 575 130 575 271 577 c 0,20,21
 394 579 394 579 473 486 c 0,22,23
 548 398 548 398 548 274 c 0,24,25
 548 160 548 160 480 83 c 0,26,27
 408 1 408 1 289 0 c 0,28,29
 178 -1 178 -1 116 30 c 0,30,31
 32 71 32 71 33 171 c 0,32,33
 33 227 33 227 76 265.5 c 128,-1,34
 119 304 119 304 184 304 c 2,35,-1
 257 304 l 1,36,37
 259 354 259 354 234 378 c 0,38,39
 214 397 214 397 189 397 c 0,40,41
 171 397 171 397 154 387 c 128,-1,42
 137 377 137 377 130.5 355 c 128,-1,43
 124 333 124 333 108 326 c 0,44,45
 100 323 100 323 92 323 c 0,46,47
 76 323 76 323 65.5 335 c 128,-1,48
 55 347 55 347 59 367 c 0,49,50
 72 432 72 432 160 432 c 0,51,52
 174 432 174 432 189 430 c 0,53,54
 296 415 296 415 292 280 c 1,55,-1
 194 280 l 2,0,1
EndSplineSet
Validated: 33
EndChar
StartChar: uni0DC1
Encoding: 59 3521 59
Width: 631
VWidth: 1000
GlyphClass: 2
Flags: W
LayerCount: 2
Fore
SplineSet
251 408 m 1,0,1
 179 413 179 413 126 367.5 c 128,-1,2
 73 322 73 322 67 251 c 256,3,4
 61 180 61 180 94 131 c 0,5,6
 130 76 130 76 202 70 c 0,7,8
 241 67 241 67 275 90.5 c 128,-1,9
 309 114 309 114 309 152 c 0,10,11
 309 177 309 177 295.5 197.5 c 128,-1,12
 282 218 282 218 259 218 c 0,13,14
 250 218 250 218 239 214 c 1,15,16
 238 208 238 208 233 192 c 1,17,-1
 208 192 l 1,18,19
 216 290 216 290 264 357 c 0,20,21
 322 439 322 439 418 431 c 0,22,23
 497 424 497 424 543 347 c 0,24,25
 582 281 582 281 582 196 c 0,26,27
 582 140 582 140 566 83.5 c 128,-1,28
 550 27 550 27 529 1 c 1,29,-1
 502 1 l 1,30,31
 507 8 507 8 507 14 c 0,32,33
 507 24 507 24 496 24 c 0,34,35
 492 24 492 24 487 22 c 0,36,37
 473 14 473 14 459 6 c 0,38,39
 442 -4 442 -4 427 -3 c 0,40,41
 400 -2 400 -2 383 21.5 c 128,-1,42
 366 45 366 45 367 75 c 0,43,44
 368 136 368 136 419 168 c 0,45,46
 443 183 443 183 489 183 c 0,47,48
 518 183 518 183 541 175 c 1,49,50
 539 235 539 235 504 292 c 0,51,52
 464 359 464 359 405 368 c 0,53,54
 394 370 394 370 383 370 c 0,55,56
 329 370 329 370 289.5 332.5 c 128,-1,57
 250 295 250 295 242 240 c 1,58,59
 252 242 252 242 262 242 c 0,60,61
 334 242 334 242 343 155 c 0,62,63
 350 88 350 88 304.5 41 c 128,-1,64
 259 -6 259 -6 188 -1 c 0,65,66
 113 5 113 5 72 66 c 0,67,68
 34 121 34 121 34 204 c 0,69,70
 34 311 34 311 92 371.5 c 128,-1,71
 150 432 150 432 223 432 c 0,72,73
 237 432 237 432 251 430 c 1,74,-1
 251 408 l 1,0,1
519 42 m 1,75,76
 532 73 532 73 537 97 c 128,-1,77
 542 121 542 121 542 144 c 1,78,79
 535 152 535 152 508 155 c 0,80,81
 483 158 483 158 465 155 c 0,82,83
 398 143 398 143 398 76 c 0,84,85
 398 35 398 35 426 27 c 0,86,87
 439 24 439 24 458 34 c 0,88,89
 485 49 485 49 492 51 c 0,90,91
 514 57 514 57 519 42 c 1,75,76
EndSplineSet
Validated: 33
EndChar
StartChar: uni0DC2
Encoding: 60 3522 60
Width: 598
VWidth: 1000
GlyphClass: 2
Flags: W
LayerCount: 2
Fore
SplineSet
261 295 m 1,0,1
 184 295 184 295 157 290 c 0,2,3
 116 282 116 282 89 253 c 0,4,5
 61 221 61 221 65 181 c 0,6,7
 71 124 71 124 151 94 c 0,8,9
 214 71 214 71 296 71 c 0,10,11
 381 71 381 71 442 97 c 0,12,13
 516 128 516 128 517 185 c 0,14,15
 518 243 518 243 474 270 c 1,16,17
 459 261 459 261 440 251 c 0,18,19
 426 244 426 244 403 239 c 1,20,21
 432 226 432 226 432 197 c 0,22,23
 432 187 432 187 427 177 c 0,24,25
 407 138 407 138 296 135 c 0,26,27
 250 134 250 134 214 149 c 0,28,29
 168 168 168 168 172 204 c 0,30,31
 177 250 177 250 297 252 c 0,32,33
 327 252 327 252 389 258 c 0,34,35
 411 262 411 262 421 267 c 128,-1,36
 431 272 431 272 451 283 c 1,37,38
 439 289 439 289 414 294 c 0,39,40
 368 298 368 298 313 295 c 1,41,42
 307 317 307 317 307 336 c 0,43,44
 307 382 307 382 338.5 408 c 128,-1,45
 370 434 370 434 427 432 c 0,46,47
 464 431 464 431 489 409.5 c 128,-1,48
 514 388 514 388 517 355 c 0,49,50
 521 310 521 310 490 288 c 1,51,52
 557 240 557 240 549 156 c 0,53,54
 542 81 542 81 469 39 c 0,55,56
 401 0 401 0 298 0 c 0,57,58
 184 0 184 0 115 39 c 0,59,60
 38 83 38 83 31 168 c 0,61,62
 26 222 26 222 62 262.5 c 128,-1,63
 98 303 98 303 155 312 c 0,64,65
 181 316 181 316 237 316 c 1,66,67
 238 326 238 326 238 334 c 0,68,69
 238 390 238 390 187 394 c 0,70,71
 151 397 151 397 141 369 c 0,72,73
 128 331 128 331 102 326 c 0,74,75
 81 322 81 322 68 334 c 128,-1,76
 55 346 55 346 55 364 c 0,77,78
 55 371 55 371 58 378 c 0,79,80
 83 437 83 437 170 433 c 0,81,82
 264 428 264 428 264 328 c 0,83,84
 264 312 264 312 261 295 c 1,0,1
468 300 m 1,85,86
 489 320 489 320 489 347 c 0,87,88
 489 371 489 371 473 388.5 c 128,-1,89
 457 406 457 406 431 407 c 0,90,91
 384 409 384 409 359.5 390 c 128,-1,92
 335 371 335 371 335 339 c 0,93,94
 335 329 335 329 338 318 c 1,95,96
 375 320 375 320 389 319 c 0,97,98
 437 316 437 316 468 300 c 1,85,86
298 230 m 0,99,100
 202 230 202 230 202 200 c 0,101,102
 202 160 202 160 299 160 c 0,103,104
 401 160 401 160 402 193 c 0,105,106
 403 230 403 230 298 230 c 0,99,100
EndSplineSet
Validated: 33
EndChar
StartChar: uni0DC3
Encoding: 61 3523 61
Width: 670
VWidth: 1000
GlyphClass: 2
Flags: W
LayerCount: 2
Fore
SplineSet
311 279 m 1,0,1
 235 283 235 283 209 280 c 0,2,3
 160 275 160 275 128 250 c 0,4,5
 91 221 91 221 91 175 c 0,6,7
 91 132 91 132 128 102 c 128,-1,8
 165 72 165 72 212 72 c 0,9,10
 253 72 253 72 283 89 c 0,11,12
 319 110 319 110 319 145 c 2,13,-1
 319 182 l 1,14,-1
 350 182 l 1,15,-1
 350 145 l 2,16,17
 350 107 350 107 390 88 c 0,18,19
 423 72 423 72 470 72 c 0,20,21
 519 72 519 72 555 103.5 c 128,-1,22
 591 135 591 135 590 180 c 256,23,24
 589 225 589 225 557.5 253.5 c 128,-1,25
 526 282 526 282 481 286 c 0,26,27
 414 292 414 292 353 279 c 1,28,29
 350 340 350 340 376 381 c 0,30,31
 407 428 407 428 470 432 c 0,32,33
 556 437 556 437 577 365 c 0,34,35
 579 357 579 357 579 349 c 0,36,37
 579 331 579 331 570 315.5 c 128,-1,38
 561 300 561 300 550 297 c 1,39,40
 619 263 619 263 627 178 c 0,41,42
 634 107 634 107 586.5 53.5 c 128,-1,43
 539 0 539 0 464 0 c 0,44,45
 367 0 367 0 333 82 c 1,46,47
 301 -1 301 -1 199 -1 c 0,48,49
 135 -1 135 -1 92 47 c 0,50,51
 51 92 51 92 51 154 c 0,52,53
 51 256 51 256 142 284 c 1,54,-1
 5 284 l 1,55,-1
 5 308 l 1,56,-1
 280 308 l 1,57,58
 274 386 274 386 209 385 c 0,59,60
 185 385 185 385 170.5 353.5 c 128,-1,61
 156 322 156 322 123 323 c 0,62,63
 91 324 91 324 89 358 c 256,64,65
 87 392 87 392 119 414.5 c 128,-1,66
 151 437 151 437 201 432 c 0,67,68
 320 420 320 420 311 279 c 1,0,1
386 310 m 1,69,70
 412 316 412 316 456 316 c 0,71,72
 502 315 502 315 526 306 c 1,73,74
 541 322 541 322 541 340 c 0,75,76
 541 366 541 366 519.5 379 c 128,-1,77
 498 392 498 392 471 392 c 0,78,79
 391 392 391 392 386 310 c 1,69,70
EndSplineSet
Validated: 33
EndChar
StartChar: uni0DC4
Encoding: 62 3524 62
Width: 653
VWidth: 1000
GlyphClass: 2
Flags: W
LayerCount: 2
Fore
SplineSet
239 278 m 1,0,1
 159 284 159 284 120 260 c 0,2,3
 71 230 71 230 70 183 c 0,4,5
 69 130 69 130 106.5 101 c 128,-1,6
 144 72 144 72 208 72 c 0,7,8
 261 72 261 72 294 94.5 c 128,-1,9
 327 117 327 117 329 160 c 0,10,11
 330 182 330 182 321 197 c 128,-1,12
 312 212 312 212 291 211 c 256,13,14
 270 210 270 210 261 182 c 1,15,-1
 239 192 l 1,16,17
 244 265 244 265 280 327 c 0,18,19
 341 433 341 433 432 432 c 0,20,21
 514 431 514 431 562 363 c 0,22,23
 604 302 604 302 605 214 c 0,24,25
 606 131 606 131 552.5 70 c 128,-1,26
 499 9 499 9 416 0 c 0,27,28
 385 -3 385 -3 352 2 c 1,29,-1
 352 29 l 1,30,31
 399 23 399 23 443.5 34 c 128,-1,32
 488 45 488 45 521 86 c 0,33,34
 558 130 558 130 557 184 c 0,35,36
 556 260 556 260 524 307 c 0,37,38
 486 362 486 362 414 362 c 0,39,40
 304 362 304 362 271 229 c 1,41,42
 293 243 293 243 319 232 c 0,43,44
 360 215 360 215 365 153 c 0,45,46
 371 78 371 78 310 33 c 0,47,48
 271 4 271 4 210 0 c 0,49,50
 139 -5 139 -5 86 37.5 c 128,-1,51
 33 80 33 80 33 151 c 0,52,53
 33 220 33 220 78 262 c 128,-1,54
 123 304 123 304 186 304 c 0,55,56
 196 304 196 304 206 303 c 1,57,58
 201 343 201 343 188 359 c 0,59,60
 167 385 167 385 140 383 c 0,61,62
 118 381 118 381 105.5 355.5 c 128,-1,63
 93 330 93 330 76 328 c 0,64,65
 39 322 39 322 35 359 c 0,66,67
 32 389 32 389 57.5 411 c 128,-1,68
 83 433 83 433 121 432 c 0,69,70
 173 431 173 431 205.5 389 c 128,-1,71
 238 347 238 347 239 278 c 1,0,1
EndSplineSet
Validated: 33
EndChar
StartChar: uni0DC5
Encoding: 63 3525 63
Width: 636
VWidth: 1000
GlyphClass: 2
Flags: W
LayerCount: 2
Fore
SplineSet
576 271 m 1,0,-1
 249 271 l 2,1,2
 178 271 178 271 163 265 c 1,3,4
 161 199 161 199 207 153 c 0,5,6
 259 100 259 100 348 104 c 0,7,8
 458 109 458 109 497 170 c 1,9,-1
 526 170 l 1,10,11
 487 51 487 51 342 43 c 0,12,13
 257 38 257 38 194 100 c 128,-1,14
 131 162 131 162 131 247 c 1,15,16
 96 207 96 207 96 142 c 0,17,18
 96 85 96 85 121 34 c 0,19,20
 155 -34 155 -34 226 -72.5 c 128,-1,21
 297 -111 297 -111 379 -108 c 0,22,23
 469 -105 469 -105 529 -51 c 128,-1,24
 589 3 589 3 591 74 c 1,25,-1
 618 74 l 1,26,27
 618 -25 618 -25 532 -90 c 0,28,29
 454 -149 454 -149 342 -153 c 0,30,31
 213 -158 213 -158 121.5 -80 c 128,-1,32
 30 -2 30 -2 31 114 c 0,33,34
 31 170 31 170 57.5 217.5 c 128,-1,35
 84 265 84 265 127 287 c 1,36,37
 126 343 126 343 164 387.5 c 128,-1,38
 202 432 202 432 260 432 c 0,39,40
 326 432 326 432 350 375 c 1,41,42
 377 433 377 433 451 432 c 0,43,44
 510 431 510 431 544 384 c 0,45,46
 575 340 575 340 576 271 c 1,0,-1
541 296 m 1,47,48
 540 338 540 338 516 369.5 c 128,-1,49
 492 401 492 401 451 401 c 0,50,51
 416 401 416 401 392 380.5 c 128,-1,52
 368 360 368 360 364 330 c 1,53,-1
 333 330 l 1,54,55
 331 358 331 358 311 381 c 128,-1,56
 291 404 291 404 259 402 c 0,57,58
 218 400 218 400 190.5 370 c 128,-1,59
 163 340 163 340 163 295 c 1,60,61
 183 301 183 301 541 296 c 1,47,48
EndSplineSet
Validated: 33
Substitution2: "Single Substitution lookup 65 subtable" uni0DC5_uni0DD4.blws
EndChar
StartChar: uni0DC6
Encoding: 64 3526 64
Width: 616
VWidth: 1000
GlyphClass: 2
Flags: W
LayerCount: 2
Fore
SplineSet
506 38 m 0,0,1
 471 0 471 0 420 0 c 0,2,3
 404 0 404 0 388 4 c 1,4,-1
 388 29 l 1,5,6
 400 26 400 26 412 26 c 0,7,8
 465 26 465 26 500 80 c 0,9,10
 530 125 530 125 531 172 c 0,11,12
 535 359 535 359 412 359 c 0,13,14
 374 359 374 359 344 340 c 0,15,16
 312 318 312 318 312 284 c 2,17,-1
 312 222 l 1,18,-1
 280 222 l 1,19,-1
 280 284 l 2,20,21
 280 318 280 318 251 340 c 0,22,23
 219 365 219 365 173 359 c 0,24,25
 117 352 117 352 89 301 c 0,26,27
 64 254 64 254 68 178 c 0,28,29
 71 119 71 119 105 74 c 0,30,31
 140 26 140 26 187 26 c 0,32,33
 204 26 204 26 220 32 c 1,34,-1
 220 6 l 1,35,36
 200 -1 200 -1 182 -1 c 0,37,38
 150 -1 150 -1 115 21 c 0,39,40
 37 71 37 71 33 210 c 0,41,42
 31 291 31 291 67 356 c 0,43,44
 108 431 108 431 178 431 c 0,45,46
 262 431 262 431 296 359 c 1,47,48
 324 427 324 427 418 431 c 0,49,50
 484 434 484 434 528 367 c 0,51,52
 569 303 569 303 568 212 c 0,53,54
 566 103 566 103 506 38 c 0,0,1
EndSplineSet
Validated: 33
EndChar
StartChar: uni0DCA
Encoding: 65 3530 65
Width: 8
VWidth: 1000
GlyphClass: 4
Flags: W
LayerCount: 2
Fore
SplineSet
-404 377 m 1,0,-1
 -404 681 l 1,1,2
 -387 667 -387 667 -343 647 c 128,-1,3
 -299 627 -299 627 -282 611 c 0,4,5
 -255 585 -255 585 -254 544 c 0,6,7
 -253 513 -253 513 -275.5 490.5 c 128,-1,8
 -298 468 -298 468 -332 468 c 0,9,10
 -354 468 -354 468 -377 478 c 1,11,-1
 -377 331 l 1,12,-1
 -404 377 l 1,0,-1
-377 638 m 1,13,-1
 -377 503 l 1,14,15
 -364 496 -364 496 -344 496 c 0,16,17
 -287 496 -287 496 -291 549 c 0,18,19
 -294 591 -294 591 -377 638 c 1,13,-1
EndSplineSet
Validated: 33
EndChar
StartChar: uni0DCF
Encoding: 66 3535 66
Width: 322
VWidth: 1000
GlyphClass: 2
Flags: W
LayerCount: 2
Fore
SplineSet
51 256 m 1,0,-1
 23 256 l 1,1,2
 19 317 19 317 53 358.5 c 128,-1,3
 87 400 87 400 143 401 c 0,4,5
 207 402 207 402 241 346 c 0,6,7
 272 293 272 293 270 199 c 0,8,9
 265 -1 265 -1 134 -1 c 0,10,11
 84 -1 84 -1 53 28 c 128,-1,12
 22 57 22 57 22 109 c 0,13,14
 22 120 22 120 23 131 c 1,15,-1
 49 131 l 1,16,17
 48 124 48 124 48 116 c 0,18,19
 48 84 48 84 67.5 62 c 128,-1,20
 87 40 87 40 118 39 c 0,21,22
 200 35 200 35 204 199 c 0,23,24
 206 270 206 270 188 315 c 0,25,26
 169 365 169 365 133 364 c 0,27,28
 93 362 93 362 70 330.5 c 128,-1,29
 47 299 47 299 51 256 c 1,0,-1
EndSplineSet
Validated: 33
EndChar
StartChar: uni0DD0
Encoding: 67 3536 67
Width: 337
VWidth: 1000
GlyphClass: 2
Flags: W
LayerCount: 2
Fore
SplineSet
3 339 m 1,0,-1
 249 339 l 2,1,2
 248 336 248 336 246 323 c 1,3,4
 144 173 144 173 154 22 c 0,5,6
 157 -27 157 -27 187 -60 c 128,-1,7
 217 -93 217 -93 264 -93 c 0,8,9
 283 -93 283 -93 302 -88 c 1,10,-1
 306 -106 l 1,11,12
 265 -152 265 -152 200 -147 c 0,13,14
 142 -142 142 -142 112 -97.5 c 128,-1,15
 82 -53 82 -53 84 16 c 0,16,17
 87 100 87 100 127 183 c 0,18,19
 170 272 170 272 211 313 c 1,20,-1
 3 313 l 1,21,-1
 3 339 l 1,0,-1
EndSplineSet
Validated: 33
Substitution2: "Single Substitution lookup 63 subtable" glyph516
EndChar
StartChar: uni0DD1
Encoding: 68 3537 68
Width: 331
VWidth: 1000
GlyphClass: 2
Flags: W
LayerCount: 2
Fore
SplineSet
4 339 m 1,0,-1
 249 339 l 1,1,-1
 249 317 l 1,2,-1
 119 221 l 1,3,-1
 272 221 l 1,4,-1
 272 201 l 1,5,6
 258 193 258 193 217 146 c 0,7,8
 159 79 159 79 159 11 c 0,9,10
 159 -72 159 -72 234 -96 c 0,11,12
 265 -106 265 -106 306 -106 c 1,13,-1
 305 -131 l 1,14,15
 267 -148 267 -148 229 -148 c 0,16,17
 214 -148 214 -148 200 -145 c 0,18,19
 90 -123 90 -123 90 -12 c 0,20,21
 90 1 90 1 92 16 c 0,22,23
 98 64 98 64 156 130 c 0,24,25
 190 169 190 169 235 199 c 1,26,-1
 72 199 l 1,27,-1
 72 218 l 1,28,-1
 205 315 l 1,29,-1
 4 315 l 1,30,-1
 4 339 l 1,0,-1
EndSplineSet
Validated: 1
Substitution2: "Single Substitution lookup 63 subtable" glyph517
EndChar
StartChar: uni0DD2
Encoding: 69 3538 69
Width: 8
VWidth: 1000
GlyphClass: 4
Flags: W
LayerCount: 2
Fore
SplineSet
-430 396 m 1,0,1
 -542 405 -542 405 -542 518 c 0,2,3
 -542 594 -542 594 -471 635 c 0,4,5
 -409 671 -409 671 -310 671 c 0,6,7
 -213 671 -213 671 -151 632 c 0,8,9
 -85 591 -85 591 -85 519 c 0,10,11
 -85 472 -85 472 -109 440 c 0,12,13
 -140 397 -140 397 -203 396 c 1,14,-1
 -203 417 l 1,15,16
 -160 418 -160 418 -136 452 c 0,17,18
 -117 479 -117 479 -117 508 c 0,19,20
 -117 553 -117 553 -176 577 c 0,21,22
 -227 598 -227 598 -310 598 c 0,23,24
 -389 598 -389 598 -443 577 c 0,25,26
 -506 552 -506 552 -509 508 c 0,27,28
 -511 480 -511 480 -497 458 c 0,29,30
 -478 424 -478 424 -430 417 c 1,31,-1
 -430 396 l 1,0,1
EndSplineSet
Validated: 33
EndChar
StartChar: uni0DD3
Encoding: 70 3539 70
Width: 8
VWidth: 1000
GlyphClass: 4
Flags: W
LayerCount: 2
Fore
SplineSet
-477 388 m 1,0,1
 -519 400 -519 400 -538 443 c 0,2,3
 -554 479 -554 479 -550 522 c 0,4,5
 -542 598 -542 598 -473 637 c 0,6,7
 -412 671 -412 671 -311 671 c 0,8,9
 -213 671 -213 671 -151 635 c 0,10,11
 -83 595 -83 595 -83 524 c 0,12,13
 -83 486 -83 486 -113 457 c 0,14,15
 -146 426 -146 426 -192 429 c 0,16,17
 -224 431 -224 431 -251 452 c 128,-1,18
 -278 473 -278 473 -282 507 c 0,19,20
 -285 533 -285 533 -268 559 c 128,-1,21
 -251 585 -251 585 -221 591 c 1,22,23
 -254 600 -254 600 -310 600 c 0,24,25
 -386 600 -386 600 -438 582 c 0,26,27
 -515 555 -515 555 -515 492 c 0,28,29
 -515 438 -515 438 -477 415 c 1,30,-1
 -477 388 l 1,0,1
-231 553 m 0,31,32
 -244 537 -244 537 -244 516 c 0,33,34
 -244 487 -244 487 -222 470 c 0,35,36
 -206 457 -206 457 -184 457 c 0,37,38
 -155 457 -155 457 -137 479 c 0,39,40
 -124 495 -124 495 -124 516 c 0,41,42
 -124 545 -124 545 -146 562 c 0,43,44
 -162 575 -162 575 -184 575 c 0,45,46
 -213 575 -213 575 -231 553 c 0,31,32
EndSplineSet
Validated: 33
EndChar
StartChar: uni0DD4
Encoding: 71 3540 71
Width: 8
VWidth: 1000
GlyphClass: 4
Flags: W
LayerCount: 2
Fore
SplineSet
-76 -235 m 1,0,-1
 -499 -235 l 2,1,2
 -543 -235 -543 -235 -571 -216 c 0,3,4
 -604 -194 -604 -194 -605 -150 c 0,5,6
 -606 -111 -606 -111 -578.5 -82.5 c 128,-1,7
 -551 -54 -551 -54 -506 -51 c 0,8,9
 -439 -47 -439 -47 -410 -110 c 1,10,-1
 -440 -122 l 1,11,12
 -455 -81 -455 -81 -498 -81 c 0,13,14
 -525 -81 -525 -81 -546 -96 c 128,-1,15
 -567 -111 -567 -111 -568 -137 c 0,16,17
 -571 -203 -571 -203 -488 -203 c 2,18,-1
 -109 -202 l 1,19,-1
 -109 149 l 1,20,-1
 -76 206 l 1,21,-1
 -76 -235 l 1,0,-1
EndSplineSet
Validated: 33
Substitution2: "Single Substitution lookup 65 subtable" uni0DD0
Substitution2: "Single Substitution lookup 7 subtable" glyph102
EndChar
StartChar: uni0DD6
Encoding: 72 3542 72
Width: 8
VWidth: 1000
GlyphClass: 4
Flags: W
LayerCount: 2
Fore
SplineSet
-76 -232 m 1,0,-1
 -98 -232 l 1,1,2
 -111 -196 -111 -196 -155.5 -171 c 128,-1,3
 -200 -146 -200 -146 -241 -146 c 0,4,5
 -284 -146 -284 -146 -357 -190.5 c 128,-1,6
 -430 -235 -430 -235 -473 -236 c 0,7,8
 -528 -237 -528 -237 -559 -204 c 128,-1,9
 -590 -171 -590 -171 -584 -124 c 0,10,11
 -579 -87 -579 -87 -551 -64.5 c 128,-1,12
 -523 -42 -523 -42 -484 -40 c 0,13,14
 -420 -37 -420 -37 -386 -91 c 1,15,-1
 -414 -101 l 1,16,17
 -434 -68 -434 -68 -479 -68 c 0,18,19
 -537 -68 -537 -68 -549 -113 c 0,20,21
 -551 -121 -551 -121 -551 -129 c 0,22,23
 -551 -157 -551 -157 -526 -175 c 0,24,25
 -504 -190 -504 -190 -475 -191 c 0,26,27
 -437 -192 -437 -192 -358 -153 c 128,-1,28
 -279 -114 -279 -114 -231 -118 c 0,29,30
 -157 -125 -157 -125 -106 -171 c 1,31,-1
 -106 149 l 1,32,-1
 -76 206 l 1,33,-1
 -76 -232 l 1,0,-1
EndSplineSet
Validated: 33
Substitution2: "Single Substitution lookup 65 subtable" uni0DD1
Substitution2: "Single Substitution lookup 7 subtable" glyph103
EndChar
StartChar: uni0DD8
Encoding: 73 3544 73
Width: 312
VWidth: 1000
GlyphClass: 2
Flags: W
LayerCount: 2
Fore
SplineSet
57 242 m 1,0,-1
 33 242 l 1,1,2
 31 307 31 307 59.5 350 c 128,-1,3
 88 393 88 393 143 393 c 0,4,5
 204 393 204 393 236 328 c 0,6,7
 264 273 264 273 263 191 c 0,8,9
 263 157 263 157 255 100.5 c 128,-1,10
 247 44 247 44 247 24 c 0,11,12
 247 12 247 12 248 3 c 1,13,-1
 217 3 l 1,14,15
 213 17 213 17 202 17 c 0,16,17
 196 17 196 17 169 7.5 c 128,-1,18
 142 -2 142 -2 122 -1 c 0,19,20
 94 1 94 1 69 22.5 c 128,-1,21
 44 44 44 44 37 73 c 0,22,23
 33 90 33 90 33 107 c 0,24,25
 33 176 33 176 99 205 c 0,26,27
 138 222 138 222 201 222 c 1,28,29
 191 358 191 358 133 358 c 0,30,31
 93 358 93 358 72 319 c 0,32,33
 54 285 54 285 57 242 c 1,0,-1
201 194 m 1,34,35
 175 194 175 194 123 185 c 1,36,37
 75 171 75 171 66 129 c 0,38,39
 64 118 64 118 64 107 c 0,40,41
 64 75 64 75 83 52.5 c 128,-1,42
 102 30 102 30 133 29 c 0,43,44
 147 29 147 29 168 36 c 128,-1,45
 189 43 189 43 195 43 c 256,46,47
 201 43 201 43 205 40 c 1,48,49
 202 60 202 60 202 116.5 c 128,-1,50
 202 173 202 173 201 194 c 1,34,35
EndSplineSet
Validated: 33
EndChar
StartChar: uni0DD9
Encoding: 74 3545 74
Width: 603
VWidth: 1000
GlyphClass: 2
Flags: W
LayerCount: 2
Fore
SplineSet
584 206 m 1,0,-1
 555 206 l 1,1,2
 547 285 547 285 473 344 c 128,-1,3
 399 403 399 403 301 403 c 0,4,5
 207 403 207 403 141 355 c 0,6,7
 70 304 70 304 78 226 c 0,8,9
 85 154 85 154 139.5 112 c 128,-1,10
 194 70 194 70 274 71 c 0,11,12
 340 72 340 72 388 94 c 0,13,14
 444 121 444 121 453 171 c 0,15,16
 455 180 455 180 455 189 c 0,17,18
 455 226 455 226 428.5 252.5 c 128,-1,19
 402 279 402 279 360 287 c 1,20,21
 379 266 379 266 379 242 c 0,22,23
 379 211 379 211 352.5 188.5 c 128,-1,24
 326 166 326 166 289 166 c 0,25,26
 256 166 256 166 230 188 c 128,-1,27
 204 210 204 210 203 242 c 0,28,29
 202 275 202 275 229.5 297.5 c 128,-1,30
 257 320 257 320 296 322 c 0,31,32
 378 327 378 327 437.5 279 c 128,-1,33
 497 231 497 231 491 162 c 0,34,35
 476 -2 476 -2 264 0 c 0,36,37
 162 1 162 1 97.5 60 c 128,-1,38
 33 119 33 119 33 212 c 0,39,40
 33 314 33 314 118 376 c 0,41,42
 195 432 195 432 301 432 c 0,43,44
 415 432 415 432 495 368.5 c 128,-1,45
 575 305 575 305 584 206 c 1,0,-1
248 275 m 0,46,47
 236 263 236 263 236 246 c 0,48,49
 236 224 236 224 252.5 211 c 128,-1,50
 269 198 269 198 293 198 c 0,51,52
 319 198 319 198 332 212 c 128,-1,53
 345 226 345 226 345 244 c 0,54,55
 345 269 345 269 323 283 c 0,56,57
 309 292 309 292 289 292 c 0,58,59
 262 292 262 292 248 275 c 0,46,47
EndSplineSet
Validated: 33
EndChar
StartChar: uni0DDF
Encoding: 80 3551 80
Width: 441
VWidth: 1000
GlyphClass: 2
Flags: W
LayerCount: 2
Fore
SplineSet
105 428 m 1,0,1
 62 401 62 401 62 322 c 0,2,3
 62 287 62 287 83 262 c 128,-1,4
 104 237 104 237 138 237 c 0,5,6
 159 237 159 237 172.5 252.5 c 128,-1,7
 186 268 186 268 186 290 c 0,8,9
 186 316 186 316 166 337 c 1,10,11
 161 383 161 383 194 413 c 0,12,13
 215 432 215 432 270 432 c 0,14,15
 330 432 330 432 364 362 c 0,16,17
 394 301 394 301 393 220 c 0,18,19
 392 132 392 132 355 70 c 0,20,21
 313 -2 313 -2 239 -2 c 0,22,23
 192 -2 192 -2 163 33 c 128,-1,24
 134 68 134 68 134 120 c 0,25,26
 134 138 134 138 138 157 c 1,27,-1
 164 157 l 1,28,29
 161 141 161 141 161 125 c 0,30,31
 161 81 161 81 182.5 53 c 128,-1,32
 204 25 204 25 241 26 c 0,33,34
 327 29 327 29 323 238 c 0,35,36
 320 406 320 406 255 408 c 0,37,38
 229 409 229 409 212 395 c 0,39,40
 191 378 191 378 193 343 c 1,41,42
 229 324 229 324 229 288 c 0,43,44
 229 277 229 277 225 266 c 0,45,46
 217 239 217 239 190 225 c 128,-1,47
 163 211 163 211 132 212 c 0,48,49
 88 213 88 213 60.5 244.5 c 128,-1,50
 33 276 33 276 33 321 c 0,51,52
 33 394 33 394 70 428 c 1,53,-1
 105 428 l 1,54,-1
 105 428 l 1,0,1
EndSplineSet
Validated: 37
EndChar
StartChar: uni0DF3
Encoding: 82 3571 82
Width: 430
VWidth: 1000
GlyphClass: 2
Flags: W
LayerCount: 2
Fore
SplineSet
189 45 m 1,0,1
 186 48 186 48 182 53 c 1,2,-1
 163 33 l 1,3,4
 169 26 169 26 175 20 c 1,5,-1
 189 45 l 1,0,1
189 45 m 1,6,7
 209 25 209 25 241 26 c 0,8,9
 327 29 327 29 323 238 c 0,10,11
 320 406 320 406 255 408 c 0,12,13
 229 409 229 409 212 395 c 0,14,15
 191 378 191 378 193 343 c 1,16,17
 229 324 229 324 229 288 c 0,18,19
 229 277 229 277 225 266 c 0,20,21
 217 239 217 239 190 225 c 128,-1,22
 163 211 163 211 132 212 c 0,23,24
 88 213 88 213 60.5 244.5 c 128,-1,25
 33 276 33 276 33 321 c 0,26,27
 33 394 33 394 70 428 c 1,28,-1
 105 428 l 1,29,30
 62 401 62 401 62 322 c 0,31,32
 62 287 62 287 83 262 c 128,-1,33
 104 237 104 237 138 237 c 0,34,35
 159 237 159 237 172.5 252.5 c 128,-1,36
 186 268 186 268 186 290 c 0,37,38
 186 316 186 316 166 337 c 1,39,40
 161 383 161 383 194 413 c 0,41,42
 215 432 215 432 270 432 c 0,43,44
 330 432 330 432 364 362 c 0,45,46
 394 301 394 301 393 220 c 0,47,48
 392 132 392 132 355 70 c 0,49,50
 313 -2 313 -2 239 -2 c 0,51,52
 201 -2 201 -2 175 20 c 1,53,-1
 189 45 l 1,6,7
121 86 m 256,54,55
 121 116 121 116 142 137.5 c 128,-1,56
 163 159 163 159 193 159 c 256,57,58
 223 159 223 159 244.5 137.5 c 128,-1,59
 266 116 266 116 266 86 c 256,60,61
 266 56 266 56 244.5 35 c 128,-1,62
 223 14 223 14 193 14 c 256,63,64
 163 14 163 14 142 35 c 128,-1,65
 121 56 121 56 121 86 c 256,54,55
EndSplineSet
Validated: 37
EndChar
StartChar: .notdef
Encoding: 0 -1 0
Width: 614
Flags: W
LayerCount: 2
Fore
SplineSet
96 731 m 1,0,-1
 517 731 l 1,1,-1
 517 0 l 1,2,-1
 96 0 l 1,3,-1
 96 731 l 1,0,-1
148 52 m 1,4,-1
 465 52 l 1,5,-1
 465 679 l 1,6,-1
 148 679 l 1,7,-1
 148 52 l 1,4,-1
EndSplineSet
Validated: 1
EndChar
StartChar: glyph102
Encoding: 102 -1 102
Width: 316
GlyphClass: 2
Flags: W
LayerCount: 2
Fore
SplineSet
16 212 m 1,0,-1
 276 212 l 1,1,-1
 302 144 l 1,2,3
 208 74 208 74 159 14 c 128,-1,4
 110 -46 110 -46 110 -114 c 0,5,6
 110 -161 110 -161 134 -184.5 c 128,-1,7
 158 -208 158 -208 212 -208 c 0,8,9
 259 -208 259 -208 305 -186 c 1,10,-1
 328 -252 l 1,11,12
 267 -278 267 -278 205 -278 c 0,13,14
 119 -278 119 -278 76.5 -237 c 128,-1,15
 34 -196 34 -196 34 -118 c 0,16,17
 34 -50 34 -50 77 16 c 128,-1,18
 120 82 120 82 207 144 c 1,19,20
 184 144 184 144 156 144 c 2,21,-1
 16 144 l 1,22,-1
 16 212 l 1,0,-1
EndSplineSet
Validated: 1
EndChar
StartChar: glyph103
Encoding: 103 -1 103
Width: 322
GlyphClass: 2
Flags: W
LayerCount: 2
Fore
SplineSet
175 -2 m 1,0,1
 163 -4 163 -4 101 -10 c 2,2,-1
 66 -12 l 1,3,-1
 42 48 l 1,4,5
 112 96 112 96 194 144 c 1,6,7
 180 144 180 144 164 144 c 2,8,-1
 16 144 l 1,9,-1
 16 212 l 1,10,-1
 274 212 l 1,11,-1
 297 148 l 1,12,13
 242 106 242 106 128 41 c 1,14,15
 166 45 166 45 226 47 c 2,16,-1
 274 49 l 1,17,-1
 296 -14 l 1,18,19
 204 -36 204 -36 157 -65 c 128,-1,20
 110 -94 110 -94 110 -140 c 0,21,22
 110 -172 110 -172 133.5 -190 c 0,23,24
 158 -208 158 -208 202 -208 c 0,25,26
 239 -208 239 -208 261 -202.5 c 0,27,28
 283 -198 283 -198 305 -188 c 1,29,-1
 328 -252 l 1,30,31
 267 -278 267 -278 205 -278 c 0,32,33
 127 -278 127 -278 80.5 -244 c 128,-1,34
 34 -210 34 -210 34 -148 c 0,35,36
 34 -99 34 -99 69.5 -61.5 c 128,-1,37
 105 -24 105 -24 175 -2 c 1,0,1
EndSplineSet
Validated: 1
EndChar
StartChar: glyph104
Encoding: 104 -1 104
Width: 0
GlyphClass: 4
Flags: W
LayerCount: 2
Fore
SplineSet
-828 -42 m 1,0,1
 -828 -86 -828 -86 -811.5 -111 c 128,-1,2
 -795 -136 -795 -136 -760 -152 c 128,-1,3
 -725 -168 -725 -168 -662.5 -177 c 128,-1,4
 -600 -186 -600 -186 -504 -186 c 128,-1,5
 -408 -186 -408 -186 -343 -174 c 128,-1,6
 -278 -162 -278 -162 -241 -140 c 128,-1,7
 -204 -118 -204 -118 -188 -87 c 128,-1,8
 -172 -56 -172 -56 -172 -11 c 0,9,10
 -172 8 -172 8 -178 32 c 1,11,-1
 -115 80 l 1,12,13
 -98 38 -98 38 -98 -14 c 128,-1,14
 -98 -66 -98 -66 -110 -102 c 128,-1,15
 -122 -138 -122 -138 -147 -165.5 c 128,-1,16
 -172 -193 -172 -193 -220 -215.5 c 128,-1,17
 -268 -238 -268 -238 -343 -248 c 128,-1,18
 -418 -258 -418 -258 -505 -258 c 0,19,20
 -600 -258 -600 -258 -671 -248 c 128,-1,21
 -742 -238 -742 -238 -787 -219.5 c 128,-1,22
 -832 -201 -832 -201 -856 -177.5 c 128,-1,23
 -880 -154 -880 -154 -891.5 -125.5 c 0,24,25
 -903 -96 -903 -96 -903 -58 c 2,26,-1
 -903 -48 l 2,27,28
 -902 -44 -902 -44 -902 -38 c 1,29,-1
 -828 -42 l 1,0,1
EndSplineSet
Validated: 1
EndChar
StartChar: glyph105
Encoding: 105 -1 105
Width: 0
GlyphClass: 4
Flags: W
LayerCount: 2
Fore
SplineSet
-757 -34 m 1,0,-1
 -757 -40 l 2,1,2
 -757 -79 -757 -79 -742 -103.5 c 128,-1,3
 -727 -128 -727 -128 -694.5 -145 c 128,-1,4
 -662 -162 -662 -162 -603 -171.5 c 128,-1,5
 -544 -181 -544 -181 -458 -181 c 0,6,7
 -380 -181 -380 -181 -323.5 -173 c 128,-1,8
 -267 -165 -267 -165 -233.5 -150.5 c 128,-1,9
 -200 -136 -200 -136 -180.5 -116 c 128,-1,10
 -161 -96 -161 -96 -151.5 -70 c 128,-1,11
 -142 -44 -142 -44 -142 3 c 0,12,13
 -142 19 -142 19 -145.5 42.5 c 128,-1,14
 -149 66 -149 66 -155 82 c 1,15,-1
 -102 140 l 1,16,17
 -68 70 -68 70 -69 -2 c 0,18,19
 -69 -62 -69 -62 -83.5 -104.5 c 128,-1,20
 -98 -147 -98 -147 -136 -180.5 c 128,-1,21
 -174 -214 -174 -214 -253 -234 c 128,-1,22
 -332 -254 -332 -254 -460 -254 c 0,23,24
 -583 -254 -583 -254 -664.5 -234 c 128,-1,25
 -746 -214 -746 -214 -789 -170.5 c 128,-1,26
 -832 -127 -832 -127 -832 -51 c 2,27,-1
 -832 -41 l 2,28,29
 -832 -38 -832 -38 -832 -32 c 1,30,-1
 -757 -34 l 1,0,-1
EndSplineSet
Validated: 33
EndChar
StartChar: glyph106
Encoding: 106 -1 106
Width: 0
GlyphClass: 4
Flags: W
LayerCount: 2
Fore
SplineSet
-784 -11 m 1,0,-1
 -784 -15 l 2,1,2
 -784 -61 -784 -61 -769 -89.5 c 128,-1,3
 -754 -118 -754 -118 -721 -138.5 c 128,-1,4
 -688 -159 -688 -159 -628 -170 c 128,-1,5
 -568 -181 -568 -181 -478 -181 c 0,6,7
 -381 -181 -381 -181 -316.5 -169.5 c 128,-1,8
 -252 -158 -252 -158 -215 -137 c 128,-1,9
 -178 -116 -178 -116 -162 -85 c 128,-1,10
 -146 -54 -146 -54 -146 -6 c 0,11,12
 -146 27 -146 27 -162 66 c 1,13,-1
 -104 119 l 1,14,15
 -72 55 -72 55 -72 -13 c 0,16,17
 -72 -63 -72 -63 -84 -97.5 c 128,-1,18
 -96 -132 -96 -132 -121 -160 c 128,-1,19
 -146 -188 -146 -188 -194.5 -210 c 128,-1,20
 -243 -232 -243 -232 -316.5 -243 c 128,-1,21
 -390 -254 -390 -254 -478 -254 c 0,22,23
 -667 -254 -667 -254 -762.5 -200.5 c 0,24,25
 -858 -146 -858 -146 -858 -28 c 2,26,-1
 -858 -17 l 2,27,28
 -858 -11 -858 -11 -858 -6 c 1,29,-1
 -784 -11 l 1,0,-1
EndSplineSet
Validated: 1
EndChar
StartChar: glyph107
Encoding: 107 -1 107
Width: 0
GlyphClass: 4
Flags: W
LayerCount: 2
Fore
SplineSet
-704 -28 m 1,0,-1
 -704 -32 l 2,1,2
 -704 -76 -704 -76 -689.5 -102 c 128,-1,3
 -675 -128 -675 -128 -644.5 -145 c 128,-1,4
 -614 -162 -614 -162 -560 -171.5 c 128,-1,5
 -506 -181 -506 -181 -427 -181 c 0,6,7
 -343 -181 -343 -181 -285.5 -170.5 c 128,-1,8
 -228 -160 -228 -160 -193.5 -140 c 128,-1,9
 -159 -120 -159 -120 -142.5 -89 c 128,-1,10
 -126 -58 -126 -58 -126 -6 c 0,11,12
 -126 16 -126 16 -134 42 c 1,13,-1
 -74 96 l 1,14,15
 -52 42 -52 42 -52 -9 c 0,16,17
 -52 -83 -52 -83 -77 -128.5 c 128,-1,18
 -102 -174 -102 -174 -151 -201.5 c 128,-1,19
 -200 -229 -200 -229 -270 -241.5 c 128,-1,20
 -340 -254 -340 -254 -428 -254 c 0,21,22
 -602 -254 -602 -254 -690 -204 c 128,-1,23
 -778 -154 -778 -154 -778 -45 c 2,24,-1
 -778 -32 l 2,25,26
 -778 -30 -778 -30 -778 -24 c 1,27,-1
 -704 -28 l 1,0,-1
EndSplineSet
Validated: 1
EndChar
StartChar: glyph108
Encoding: 108 -1 108
Width: 0
GlyphClass: 4
Flags: W
LayerCount: 2
Fore
SplineSet
-744 -32 m 1,0,-1
 -744 -34 l 2,1,2
 -744 -77 -744 -77 -730 -102.5 c 128,-1,3
 -716 -128 -716 -128 -685.5 -145 c 128,-1,4
 -655 -162 -655 -162 -599 -171.5 c 128,-1,5
 -543 -181 -543 -181 -459 -181 c 0,6,7
 -373 -181 -373 -181 -314.5 -170.5 c 128,-1,8
 -256 -160 -256 -160 -220.5 -141.5 c 128,-1,9
 -185 -123 -185 -123 -166.5 -92 c 128,-1,10
 -148 -61 -148 -61 -148 -6 c 0,11,12
 -148 16 -148 16 -156 42 c 1,13,-1
 -101 107 l 1,14,15
 -75 52 -75 52 -75 -14 c 0,16,17
 -75 -108 -75 -108 -121 -159 c 128,-1,18
 -167 -210 -167 -210 -252.5 -232 c 128,-1,19
 -338 -254 -338 -254 -460 -254 c 0,20,21
 -638 -254 -638 -254 -729 -205 c 128,-1,22
 -820 -156 -820 -156 -820 -48 c 2,23,-1
 -820 -38 l 2,24,25
 -820 -34 -820 -34 -819 -28 c 1,26,-1
 -744 -32 l 1,0,-1
EndSplineSet
Validated: 1
EndChar
StartChar: glyph110
Encoding: 110 -1 110
Width: 0
GlyphClass: 4
Flags: W
LayerCount: 2
Fore
SplineSet
-702 3 m 1,0,-1
 -702 -2 l 2,1,2
 -702 -54 -702 -54 -688 -85 c 128,-1,3
 -674 -116 -674 -116 -645 -135.5 c 128,-1,4
 -616 -155 -616 -155 -565 -165.5 c 128,-1,5
 -514 -176 -514 -176 -438 -176 c 0,6,7
 -354 -176 -354 -176 -296 -160 c 128,-1,8
 -238 -144 -238 -144 -206.5 -116.5 c 128,-1,9
 -175 -89 -175 -89 -160.5 -52.5 c 128,-1,10
 -146 -16 -146 -16 -146 37 c 0,11,12
 -146 81 -146 81 -158 113 c 1,13,-1
 -102 191 l 1,14,15
 -70 111 -70 111 -70 33 c 0,16,17
 -70 -112 -70 -112 -162.5 -180 c 0,18,19
 -256 -248 -256 -248 -438 -248 c 0,20,21
 -608 -248 -608 -248 -692.5 -193 c 128,-1,22
 -777 -138 -777 -138 -777 -16 c 0,23,24
 -777 -3 -777 -3 -776 7 c 1,25,-1
 -702 3 l 1,0,-1
EndSplineSet
Validated: 1
EndChar
StartChar: glyph111
Encoding: 111 -1 111
Width: 0
GlyphClass: 4
Flags: W
LayerCount: 2
Fore
SplineSet
-690 3 m 1,0,-1
 -690 -2 l 2,1,2
 -690 -54 -690 -54 -675.5 -85 c 128,-1,3
 -661 -116 -661 -116 -630.5 -136 c 128,-1,4
 -600 -156 -600 -156 -546.5 -166 c 128,-1,5
 -493 -176 -493 -176 -413 -176 c 0,6,7
 -323 -176 -323 -176 -260.5 -158 c 128,-1,8
 -198 -140 -198 -140 -164 -98 c 128,-1,9
 -130 -56 -130 -56 -130 22 c 0,10,11
 -130 47 -130 47 -136 79 c 1,12,-1
 -76 150 l 1,13,14
 -54 82 -54 82 -54 22 c 0,15,16
 -54 -58 -54 -58 -78 -108 c 128,-1,17
 -102 -158 -102 -158 -149 -189 c 128,-1,18
 -196 -220 -196 -220 -263 -234 c 128,-1,19
 -330 -248 -330 -248 -416 -248 c 0,20,21
 -590 -248 -590 -248 -677.5 -193 c 128,-1,22
 -765 -138 -765 -138 -765 -16 c 0,23,24
 -765 -3 -765 -3 -764 7 c 1,25,-1
 -690 3 l 1,0,-1
EndSplineSet
Validated: 1
EndChar
StartChar: glyph112
Encoding: 112 -1 112
Width: 0
GlyphClass: 4
Flags: W
LayerCount: 2
Fore
SplineSet
-680 3 m 1,0,-1
 -680 -2 l 2,1,2
 -680 -54 -680 -54 -666 -84.5 c 128,-1,3
 -652 -115 -652 -115 -622 -135 c 128,-1,4
 -592 -155 -592 -155 -539 -165.5 c 128,-1,5
 -486 -176 -486 -176 -408 -176 c 0,6,7
 -271 -176 -271 -176 -200.5 -131 c 128,-1,8
 -130 -86 -130 -86 -130 22 c 0,9,10
 -130 47 -130 47 -136 79 c 1,11,-1
 -76 150 l 1,12,13
 -54 82 -54 82 -54 22 c 0,14,15
 -54 -79 -54 -79 -95 -136.5 c 128,-1,16
 -136 -194 -136 -194 -214.5 -221 c 0,17,18
 -292 -248 -292 -248 -410 -248 c 0,19,20
 -582 -248 -582 -248 -668 -192.5 c 128,-1,21
 -754 -137 -754 -137 -754 -16 c 0,22,23
 -754 -3 -754 -3 -754 7 c 1,24,-1
 -680 3 l 1,0,-1
EndSplineSet
Validated: 1
EndChar
StartChar: glyph113
Encoding: 113 -1 113
Width: 0
GlyphClass: 4
Flags: W
LayerCount: 2
Fore
SplineSet
-720 -32 m 1,0,-1
 -720 -34 l 2,1,2
 -720 -74 -720 -74 -707.5 -100 c 128,-1,3
 -695 -126 -695 -126 -665.5 -144 c 128,-1,4
 -636 -162 -636 -162 -582 -171.5 c 128,-1,5
 -528 -181 -528 -181 -446 -181 c 0,6,7
 -356 -181 -356 -181 -296 -167.5 c 128,-1,8
 -236 -154 -236 -154 -205 -131.5 c 128,-1,9
 -174 -109 -174 -109 -161 -79.5 c 128,-1,10
 -148 -50 -148 -50 -148 -6 c 0,11,12
 -148 16 -148 16 -156 42 c 1,13,-1
 -101 107 l 1,14,15
 -75 49 -75 49 -75 -9 c 0,16,17
 -75 -100 -75 -100 -117 -152 c 128,-1,18
 -159 -204 -159 -204 -241.5 -229 c 128,-1,19
 -324 -254 -324 -254 -447 -254 c 0,20,21
 -621 -254 -621 -254 -708.5 -204.5 c 0,22,23
 -796 -154 -796 -154 -796 -48 c 2,24,-1
 -796 -38 l 2,25,26
 -796 -34 -796 -34 -795 -28 c 1,27,-1
 -720 -32 l 1,0,-1
EndSplineSet
Validated: 1
EndChar
StartChar: glyph117
Encoding: 117 -1 117
Width: 0
GlyphClass: 4
Flags: W
LayerCount: 2
Fore
SplineSet
-681 -3 m 1,0,-1
 -681 -8 l 2,1,2
 -681 -77 -681 -77 -651.5 -111.5 c 128,-1,3
 -622 -146 -622 -146 -565.5 -161 c 0,4,5
 -508 -176 -508 -176 -426 -176 c 0,6,7
 -286 -176 -286 -176 -216 -125 c 128,-1,8
 -146 -74 -146 -74 -146 34 c 0,9,10
 -146 82 -146 82 -158 113 c 1,11,-1
 -102 191 l 1,12,13
 -70 111 -70 111 -70 33 c 0,14,15
 -70 -107 -70 -107 -159 -177.5 c 128,-1,16
 -248 -248 -248 -248 -426 -248 c 0,17,18
 -590 -248 -590 -248 -673 -191.5 c 0,19,20
 -756 -136 -756 -136 -756 -22 c 2,21,-1
 -756 -8 l 2,22,23
 -756 -4 -756 -4 -756 1 c 1,24,-1
 -681 -3 l 1,0,-1
EndSplineSet
Validated: 1
EndChar
StartChar: glyph118
Encoding: 118 -1 118
Width: 0
GlyphClass: 4
Flags: W
LayerCount: 2
Fore
SplineSet
-734 -32 m 1,0,-1
 -734 -34 l 2,1,2
 -734 -76 -734 -76 -720 -102 c 128,-1,3
 -706 -128 -706 -128 -676 -145 c 128,-1,4
 -646 -162 -646 -162 -591 -171.5 c 128,-1,5
 -536 -181 -536 -181 -454 -181 c 256,6,7
 -372 -181 -372 -181 -315 -171.5 c 128,-1,8
 -258 -162 -258 -162 -222 -143 c 128,-1,9
 -186 -124 -186 -124 -167 -93 c 128,-1,10
 -148 -62 -148 -62 -148 -6 c 0,11,12
 -148 16 -148 16 -156 42 c 1,13,-1
 -101 107 l 1,14,15
 -75 49 -75 49 -75 -9 c 0,16,17
 -75 -105 -75 -105 -119.5 -156.5 c 128,-1,18
 -164 -208 -164 -208 -248 -231 c 128,-1,19
 -332 -254 -332 -254 -454 -254 c 0,20,21
 -568 -254 -568 -254 -648 -233 c 128,-1,22
 -728 -212 -728 -212 -769 -167 c 128,-1,23
 -810 -122 -810 -122 -810 -48 c 2,24,-1
 -810 -38 l 2,25,26
 -810 -34 -810 -34 -809 -28 c 1,27,-1
 -734 -32 l 1,0,-1
EndSplineSet
Validated: 1
EndChar
StartChar: glyph121
Encoding: 121 -1 121
Width: 0
GlyphClass: 4
Flags: W
LayerCount: 2
Fore
SplineSet
-910 -48 m 1,0,1
 -910 -88 -910 -88 -892 -113 c 128,-1,2
 -874 -138 -874 -138 -835 -155 c 128,-1,3
 -796 -172 -796 -172 -725 -181.5 c 128,-1,4
 -654 -191 -654 -191 -548 -191 c 0,5,6
 -441 -191 -441 -191 -369.5 -180.5 c 128,-1,7
 -298 -170 -298 -170 -257 -150 c 128,-1,8
 -216 -130 -216 -130 -197 -101 c 128,-1,9
 -178 -72 -178 -72 -178 -26 c 0,10,11
 -178 -4 -178 -4 -184 18 c 1,12,-1
 -121 66 l 1,13,14
 -104 24 -104 24 -104 -28 c 0,15,16
 -104 -102 -104 -102 -130.5 -144.5 c 128,-1,17
 -157 -187 -157 -187 -213 -213.5 c 128,-1,18
 -269 -240 -269 -240 -353 -252 c 128,-1,19
 -437 -264 -437 -264 -549 -264 c 0,20,21
 -639 -264 -639 -264 -718.5 -255.5 c 128,-1,22
 -798 -247 -798 -247 -852 -227.5 c 128,-1,23
 -906 -208 -906 -208 -933 -184 c 128,-1,24
 -960 -160 -960 -160 -972 -130 c 128,-1,25
 -984 -100 -984 -100 -984 -60 c 2,26,-1
 -984 -54 l 2,27,28
 -984 -50 -984 -50 -984 -45 c 1,29,-1
 -910 -48 l 1,0,1
EndSplineSet
Validated: 1
EndChar
StartChar: glyph123
Encoding: 123 -1 123
Width: 0
GlyphClass: 4
Flags: W
LayerCount: 2
Fore
SplineSet
-791 -4 m 1,0,-1
 -791 -10 l 2,1,2
 -791 -57 -791 -57 -775.5 -87.5 c 128,-1,3
 -760 -118 -760 -118 -726 -138 c 128,-1,4
 -692 -158 -692 -158 -632 -169.5 c 128,-1,5
 -572 -181 -572 -181 -482 -181 c 0,6,7
 -385 -181 -385 -181 -320.5 -170.5 c 128,-1,8
 -256 -160 -256 -160 -218.5 -140 c 128,-1,9
 -181 -120 -181 -120 -163.5 -89 c 128,-1,10
 -146 -58 -146 -58 -146 -6 c 0,11,12
 -146 20 -146 20 -156 52 c 1,13,-1
 -98 106 l 1,14,15
 -72 48 -72 48 -72 -14 c 0,16,17
 -72 -64 -72 -64 -84.5 -99 c 128,-1,18
 -97 -134 -97 -134 -122.5 -161 c 128,-1,19
 -148 -188 -148 -188 -196 -210 c 128,-1,20
 -244 -232 -244 -232 -318 -243 c 128,-1,21
 -392 -254 -392 -254 -482 -254 c 0,22,23
 -608 -254 -608 -254 -693 -231 c 128,-1,24
 -778 -208 -778 -208 -822 -158 c 128,-1,25
 -866 -108 -866 -108 -866 -24 c 2,26,-1
 -866 -11 l 2,27,28
 -866 -4 -866 -4 -866 -0 c 1,29,-1
 -791 -4 l 1,0,-1
EndSplineSet
Validated: 1
EndChar
StartChar: glyph124
Encoding: 124 -1 124
Width: 0
GlyphClass: 4
Flags: W
LayerCount: 2
Fore
SplineSet
-692 -2 m 1,0,-1
 -692 -9 l 2,1,2
 -692 -56 -692 -56 -678.5 -85 c 128,-1,3
 -665 -114 -665 -114 -637 -134 c 128,-1,4
 -609 -154 -609 -154 -558.5 -165 c 128,-1,5
 -508 -176 -508 -176 -432 -176 c 0,6,7
 -339 -176 -339 -176 -275.5 -154 c 128,-1,8
 -212 -132 -212 -132 -179 -86 c 128,-1,9
 -146 -40 -146 -40 -146 37 c 0,10,11
 -146 81 -146 81 -158 113 c 1,12,-1
 -102 191 l 1,13,14
 -70 112 -70 112 -70 38 c 0,15,16
 -70 -108 -70 -108 -161 -178 c 128,-1,17
 -252 -248 -252 -248 -432 -248 c 0,18,19
 -600 -248 -600 -248 -683 -192 c 128,-1,20
 -766 -136 -766 -136 -766 -20 c 2,21,-1
 -766 -6 l 2,22,23
 -766 -4 -766 -4 -766 1 c 1,24,-1
 -692 -2 l 1,0,-1
EndSplineSet
Validated: 1
EndChar
StartChar: glyph126
Encoding: 126 -1 126
Width: 0
GlyphClass: 4
Flags: W
LayerCount: 2
Fore
SplineSet
-734 -32 m 1,0,-1
 -734 -34 l 2,1,2
 -734 -74 -734 -74 -721 -100 c 128,-1,3
 -708 -126 -708 -126 -678 -144 c 128,-1,4
 -648 -162 -648 -162 -593 -171.5 c 128,-1,5
 -538 -181 -538 -181 -454 -181 c 0,6,7
 -364 -181 -364 -181 -303 -169 c 128,-1,8
 -242 -157 -242 -157 -210 -136 c 128,-1,9
 -178 -115 -178 -115 -163 -84.5 c 128,-1,10
 -148 -54 -148 -54 -148 -6 c 0,11,12
 -148 16 -148 16 -156 42 c 1,13,-1
 -101 107 l 1,14,15
 -75 49 -75 49 -75 -9 c 128,-1,16
 -75 -67 -75 -67 -92 -109 c 128,-1,17
 -109 -151 -109 -151 -148.5 -183.5 c 128,-1,18
 -188 -216 -188 -216 -263.5 -235 c 0,19,20
 -338 -254 -338 -254 -454 -254 c 0,21,22
 -630 -254 -630 -254 -720 -205 c 128,-1,23
 -810 -156 -810 -156 -810 -48 c 2,24,-1
 -810 -38 l 2,25,26
 -810 -34 -810 -34 -809 -28 c 1,27,-1
 -734 -32 l 1,0,-1
EndSplineSet
Validated: 1
EndChar
StartChar: glyph127
Encoding: 127 -1 127
Width: 0
GlyphClass: 4
Flags: W
LayerCount: 2
Fore
SplineSet
-806 -4 m 1,0,-1
 -806 -10 l 2,1,2
 -806 -62 -806 -62 -789 -92 c 128,-1,3
 -772 -122 -772 -122 -736 -141 c 128,-1,4
 -700 -160 -700 -160 -640 -170.5 c 128,-1,5
 -580 -181 -580 -181 -490 -181 c 0,6,7
 -389 -181 -389 -181 -322 -170 c 128,-1,8
 -255 -159 -255 -159 -217.5 -138.5 c 128,-1,9
 -180 -118 -180 -118 -163 -87.5 c 128,-1,10
 -146 -57 -146 -57 -146 -6 c 0,11,12
 -146 20 -146 20 -156 52 c 1,13,-1
 -98 106 l 1,14,15
 -72 48 -72 48 -72 -14 c 0,16,17
 -72 -65 -72 -65 -84 -99.5 c 128,-1,18
 -96 -134 -96 -134 -121.5 -161 c 128,-1,19
 -147 -188 -147 -188 -196 -210 c 128,-1,20
 -245 -232 -245 -232 -320.5 -243 c 128,-1,21
 -396 -254 -396 -254 -490 -254 c 0,22,23
 -616 -254 -616 -254 -703 -231 c 128,-1,24
 -790 -208 -790 -208 -835.5 -159 c 128,-1,25
 -881 -110 -881 -110 -881 -24 c 2,26,-1
 -881 -11 l 2,27,28
 -880 -4 -880 -4 -880 -0 c 1,29,-1
 -806 -4 l 1,0,-1
EndSplineSet
Validated: 1
EndChar
StartChar: glyph131
Encoding: 131 -1 131
Width: 0
GlyphClass: 4
Flags: W
LayerCount: 2
Fore
SplineSet
-744 -34 m 1,0,-1
 -744 -40 l 2,1,2
 -744 -81 -744 -81 -728 -105.5 c 128,-1,3
 -712 -130 -712 -130 -680.5 -146 c 128,-1,4
 -649 -162 -649 -162 -592 -171.5 c 128,-1,5
 -535 -181 -535 -181 -451 -181 c 0,6,7
 -377 -181 -377 -181 -322.5 -173 c 128,-1,8
 -268 -165 -268 -165 -235 -150.5 c 128,-1,9
 -202 -136 -202 -136 -181.5 -115 c 128,-1,10
 -161 -94 -161 -94 -151.5 -65.5 c 0,11,12
 -142 -38 -142 -38 -142 10 c 0,13,14
 -142 24 -142 24 -145.5 45 c 128,-1,15
 -149 66 -149 66 -155 82 c 1,16,-1
 -102 140 l 1,17,18
 -68 69 -68 69 -69 12 c 0,19,20
 -69 -46 -69 -46 -79.5 -85 c 128,-1,21
 -90 -124 -90 -124 -112.5 -154 c 128,-1,22
 -135 -184 -135 -184 -178.5 -207 c 128,-1,23
 -222 -230 -222 -230 -292 -242 c 128,-1,24
 -362 -254 -362 -254 -454 -254 c 0,25,26
 -636 -254 -636 -254 -728 -206 c 128,-1,27
 -820 -158 -820 -158 -820 -51 c 2,28,-1
 -820 -41 l 2,29,30
 -820 -38 -820 -38 -819 -32 c 1,31,-1
 -744 -34 l 1,0,-1
EndSplineSet
Validated: 33
EndChar
StartChar: glyph132
Encoding: 132 -1 132
Width: 0
GlyphClass: 4
Flags: W
LayerCount: 2
Fore
SplineSet
-834 -16 m 1,0,-1
 -834 -20 l 2,1,2
 -834 -64 -834 -64 -818.5 -92 c 128,-1,3
 -803 -120 -803 -120 -768.5 -140 c 128,-1,4
 -734 -160 -734 -160 -671 -170.5 c 128,-1,5
 -608 -181 -608 -181 -516 -181 c 0,6,7
 -402 -181 -402 -181 -325 -165.5 c 128,-1,8
 -248 -150 -248 -150 -207.5 -114 c 128,-1,9
 -167 -78 -167 -78 -167 -6 c 0,10,11
 -167 27 -167 27 -183 66 c 1,12,-1
 -125 119 l 1,13,14
 -94 54 -94 54 -94 -6 c 0,15,16
 -94 -58 -94 -58 -105 -94 c 128,-1,17
 -116 -130 -116 -130 -141 -158 c 128,-1,18
 -166 -186 -166 -186 -216 -209 c 128,-1,19
 -266 -232 -266 -232 -344 -243 c 128,-1,20
 -422 -254 -422 -254 -515 -254 c 0,21,22
 -645 -254 -645 -254 -732.5 -231 c 128,-1,23
 -820 -208 -820 -208 -865 -161 c 128,-1,24
 -910 -114 -910 -114 -910 -34 c 2,25,-1
 -910 -22 l 2,26,27
 -910 -16 -910 -16 -909 -12 c 1,28,-1
 -834 -16 l 1,0,-1
EndSplineSet
Validated: 1
EndChar
StartChar: glyph133
Encoding: 133 -1 133
Width: 0
GlyphClass: 4
Flags: W
LayerCount: 2
Fore
SplineSet
-741 3 m 1,0,-1
 -741 -2 l 2,1,2
 -741 -58 -741 -58 -725 -89 c 128,-1,3
 -709 -120 -709 -120 -677.5 -138 c 128,-1,4
 -646 -156 -646 -156 -592 -166 c 128,-1,5
 -538 -176 -538 -176 -458 -176 c 0,6,7
 -359 -176 -359 -176 -289.5 -156 c 128,-1,8
 -220 -136 -220 -136 -183 -90 c 128,-1,9
 -146 -44 -146 -44 -146 40 c 0,10,11
 -146 70 -146 70 -158 113 c 1,12,-1
 -102 191 l 1,13,14
 -70 108 -70 108 -70 38 c 0,15,16
 -70 -113 -70 -113 -168 -180.5 c 128,-1,17
 -266 -248 -266 -248 -458 -248 c 0,18,19
 -577 -248 -577 -248 -656.5 -224.5 c 128,-1,20
 -736 -201 -736 -201 -776 -151 c 128,-1,21
 -816 -101 -816 -101 -816 -16 c 0,22,23
 -816 -3 -816 -3 -815 7 c 1,24,-1
 -741 3 l 1,0,-1
EndSplineSet
Validated: 1
EndChar
StartChar: glyph134
Encoding: 134 -1 134
Width: 0
GlyphClass: 4
Flags: W
LayerCount: 2
Fore
SplineSet
-769 -5 m 1,0,-1
 -769 -11 l 2,1,2
 -769 -63 -769 -63 -752.5 -93.5 c 128,-1,3
 -736 -124 -736 -124 -702 -143 c 128,-1,4
 -668 -162 -668 -162 -612 -171.5 c 128,-1,5
 -556 -181 -556 -181 -472 -181 c 0,6,7
 -384 -181 -384 -181 -323 -169.5 c 128,-1,8
 -262 -158 -262 -158 -224 -136.5 c 128,-1,9
 -186 -115 -186 -115 -166 -79.5 c 128,-1,10
 -146 -44 -146 -44 -146 18 c 0,11,12
 -146 51 -146 51 -154 79 c 1,13,-1
 -96 156 l 1,14,15
 -70 84 -70 84 -70 18 c 0,16,17
 -70 -48 -70 -48 -88.5 -95 c 128,-1,18
 -107 -142 -107 -142 -150.5 -177.5 c 128,-1,19
 -194 -213 -194 -213 -274 -233.5 c 128,-1,20
 -354 -254 -354 -254 -472 -254 c 0,21,22
 -592 -254 -592 -254 -675 -231 c 128,-1,23
 -758 -208 -758 -208 -801 -158 c 128,-1,24
 -844 -108 -844 -108 -844 -24 c 2,25,-1
 -844 -10 l 2,26,27
 -844 -6 -844 -6 -844 -1 c 1,28,-1
 -769 -5 l 1,0,-1
EndSplineSet
Validated: 1
EndChar
StartChar: glyph135
Encoding: 135 -1 135
Width: 0
GlyphClass: 4
Flags: W
LayerCount: 2
Fore
SplineSet
-701 -28 m 1,0,-1
 -701 -32 l 2,1,2
 -701 -74 -701 -74 -688.5 -99.5 c 128,-1,3
 -676 -125 -676 -125 -644 -144 c 128,-1,4
 -612 -163 -612 -163 -553 -172 c 128,-1,5
 -494 -181 -494 -181 -416 -181 c 0,6,7
 -334 -181 -334 -181 -278 -170 c 128,-1,8
 -222 -159 -222 -159 -189.5 -139 c 128,-1,9
 -157 -119 -157 -119 -141.5 -89.5 c 128,-1,10
 -126 -60 -126 -60 -126 -13 c 0,11,12
 -126 12 -126 12 -134 38 c 1,13,-1
 -74 92 l 1,14,15
 -52 39 -52 39 -52 -20 c 0,16,17
 -52 -83 -52 -83 -72 -124 c 128,-1,18
 -92 -165 -92 -165 -132.5 -193.5 c 128,-1,19
 -173 -222 -173 -222 -243.5 -238 c 128,-1,20
 -314 -254 -314 -254 -416 -254 c 0,21,22
 -594 -254 -594 -254 -685 -205 c 128,-1,23
 -776 -156 -776 -156 -776 -45 c 2,24,-1
 -776 -32 l 2,25,26
 -776 -30 -776 -30 -776 -24 c 1,27,-1
 -701 -28 l 1,0,-1
EndSplineSet
Validated: 1
EndChar
StartChar: glyph138
Encoding: 138 -1 138
Width: 0
GlyphClass: 4
Flags: W
LayerCount: 2
Fore
SplineSet
-794 -11 m 1,0,-1
 -794 -15 l 2,1,2
 -794 -62 -794 -62 -779.5 -90.5 c 128,-1,3
 -765 -119 -765 -119 -731.5 -139.5 c 128,-1,4
 -698 -160 -698 -160 -634.5 -170.5 c 128,-1,5
 -571 -181 -571 -181 -482 -181 c 0,6,7
 -400 -181 -400 -181 -341 -173 c 128,-1,8
 -282 -165 -282 -165 -247 -150.5 c 128,-1,9
 -212 -136 -212 -136 -193 -117 c 128,-1,10
 -174 -98 -174 -98 -164 -71.5 c 0,11,12
 -154 -44 -154 -44 -154 2 c 0,13,14
 -154 42 -154 42 -173 88 c 1,15,-1
 -115 140 l 1,16,17
 -81 66 -81 66 -81 -2 c 0,18,19
 -81 -59 -81 -59 -93 -96.5 c 128,-1,20
 -105 -134 -105 -134 -131.5 -162.5 c 128,-1,21
 -158 -191 -158 -191 -202 -211 c 128,-1,22
 -246 -231 -246 -231 -317 -242.5 c 128,-1,23
 -388 -254 -388 -254 -484 -254 c 0,24,25
 -612 -254 -612 -254 -696.5 -231 c 128,-1,26
 -781 -208 -781 -208 -824.5 -160 c 128,-1,27
 -868 -112 -868 -112 -868 -28 c 2,28,-1
 -868 -16 l 2,29,30
 -868 -12 -868 -12 -868 -6 c 1,31,-1
 -794 -11 l 1,0,-1
EndSplineSet
Validated: 1
EndChar
StartChar: glyph141
Encoding: 141 -1 141
Width: 0
GlyphClass: 4
Flags: W
LayerCount: 2
Fore
SplineSet
-824 -16 m 1,0,-1
 -824 -20 l 2,1,2
 -824 -64 -824 -64 -809 -91.5 c 128,-1,3
 -794 -119 -794 -119 -761 -138.5 c 128,-1,4
 -728 -158 -728 -158 -666 -169.5 c 128,-1,5
 -604 -181 -604 -181 -510 -181 c 0,6,7
 -410 -181 -410 -181 -344 -170 c 128,-1,8
 -278 -159 -278 -159 -240 -138.5 c 128,-1,9
 -202 -118 -202 -118 -184.5 -87 c 128,-1,10
 -167 -56 -167 -56 -167 -6 c 0,11,12
 -167 27 -167 27 -183 66 c 1,13,-1
 -125 119 l 1,14,15
 -94 54 -94 54 -94 -9 c 0,16,17
 -94 -69 -94 -69 -111.5 -109.5 c 128,-1,18
 -129 -150 -129 -150 -165 -178 c 128,-1,19
 -201 -206 -201 -206 -254.5 -223 c 128,-1,20
 -308 -240 -308 -240 -372 -247 c 128,-1,21
 -436 -254 -436 -254 -510 -254 c 0,22,23
 -702 -254 -702 -254 -801 -202 c 128,-1,24
 -900 -150 -900 -150 -900 -34 c 2,25,-1
 -900 -22 l 2,26,27
 -900 -16 -900 -16 -899 -12 c 1,28,-1
 -824 -16 l 1,0,-1
EndSplineSet
Validated: 1
EndChar
StartChar: glyph143
Encoding: 143 -1 143
Width: 0
GlyphClass: 4
Flags: W
LayerCount: 2
Fore
SplineSet
-722 -11 m 1,0,-1
 -722 -17 l 2,1,2
 -722 -85 -722 -85 -691 -118.5 c 128,-1,3
 -660 -152 -660 -152 -599 -166.5 c 128,-1,4
 -538 -181 -538 -181 -443 -181 c 0,5,6
 -355 -181 -355 -181 -295.5 -169.5 c 128,-1,7
 -236 -158 -236 -158 -202.5 -137 c 128,-1,8
 -169 -116 -169 -116 -154 -85 c 128,-1,9
 -139 -54 -139 -54 -139 -6 c 0,10,11
 -140 20 -140 20 -150 52 c 1,12,-1
 -91 106 l 1,13,14
 -66 48 -66 48 -66 -9 c 0,15,16
 -66 -105 -66 -105 -111 -156.5 c 128,-1,17
 -156 -208 -156 -208 -239 -231 c 128,-1,18
 -322 -254 -322 -254 -444 -254 c 0,19,20
 -558 -254 -558 -254 -636 -232 c 128,-1,21
 -714 -210 -714 -210 -756 -161 c 128,-1,22
 -798 -112 -798 -112 -798 -30 c 2,23,-1
 -798 -18 l 2,24,25
 -798 -12 -798 -12 -797 -8 c 1,26,-1
 -722 -11 l 1,0,-1
EndSplineSet
Validated: 1
EndChar
StartChar: glyph144
Encoding: 144 -1 144
Width: 0
GlyphClass: 4
Flags: W
LayerCount: 2
Fore
SplineSet
-702 -28 m 1,0,-1
 -702 -33 l 2,1,2
 -702 -68 -702 -68 -694 -88 c 128,-1,3
 -686 -108 -686 -108 -670 -123.5 c 128,-1,4
 -654 -139 -654 -139 -625 -150.5 c 128,-1,5
 -596 -162 -596 -162 -549 -169 c 128,-1,6
 -502 -176 -502 -176 -438 -176 c 0,7,8
 -354 -176 -354 -176 -296 -160 c 128,-1,9
 -238 -144 -238 -144 -206.5 -116.5 c 128,-1,10
 -175 -89 -175 -89 -160.5 -52.5 c 128,-1,11
 -146 -16 -146 -16 -146 37 c 0,12,13
 -146 81 -146 81 -158 113 c 1,14,-1
 -102 191 l 1,15,16
 -70 112 -70 112 -70 36 c 0,17,18
 -70 -108 -70 -108 -162 -178 c 128,-1,19
 -254 -248 -254 -248 -438 -248 c 0,20,21
 -608 -248 -608 -248 -693 -199 c 128,-1,22
 -778 -150 -778 -150 -778 -45 c 0,23,24
 -778 -35 -778 -35 -776 -25 c 1,25,-1
 -702 -28 l 1,0,-1
EndSplineSet
Validated: 1
EndChar
StartChar: glyph516
Encoding: 516 -1 516
Width: 274
GlyphClass: 2
Flags: W
LayerCount: 2
Fore
SplineSet
-25 772 m 1,0,-1
 220 772 l 1,1,-1
 246 704 l 1,2,3
 148 553 148 553 106 440.5 c 128,-1,4
 64 328 64 328 64 210 c 0,5,6
 64 134 64 134 90.5 96.5 c 0,7,8
 118 59 118 59 178 59 c 0,9,10
 204 59 204 59 222 63 c 128,-1,11
 240 67 240 67 270 80 c 1,12,-1
 294 14 l 1,13,14
 232 -12 232 -12 174 -11 c 0,15,16
 80 -11 80 -11 34 44.5 c 128,-1,17
 -12 100 -12 100 -12 210 c 0,18,19
 -12 328 -12 328 32 451 c 128,-1,20
 76 574 76 574 166 704 c 1,21,22
 142 702 142 702 108 702 c 2,23,-1
 -25 702 l 1,24,-1
 -25 772 l 1,0,-1
EndSplineSet
Validated: 33
EndChar
StartChar: glyph517
Encoding: 517 -1 517
Width: 269
GlyphClass: 2
Flags: W
LayerCount: 2
Fore
SplineSet
144 526 m 1,0,1
 94 521 94 521 40 520 c 2,2,-1
 -30 518 l 1,3,-1
 -56 586 l 1,4,5
 34 648 34 648 127 704 c 1,6,7
 106 702 106 702 60 702 c 2,8,-1
 -25 702 l 1,9,-1
 -25 772 l 1,10,-1
 206 772 l 1,11,-1
 231 704 l 1,12,13
 172 660 172 660 30 578 c 1,14,15
 85 583 85 583 160 585 c 2,16,-1
 208 586 l 1,17,-1
 230 524 l 1,18,19
 139 429 139 429 99 352.5 c 128,-1,20
 59 276 59 276 59 205 c 0,21,22
 59 133 59 133 85.5 96 c 128,-1,23
 112 59 112 59 172 59 c 0,24,25
 198 59 198 59 217 63 c 128,-1,26
 236 67 236 67 265 80 c 1,27,-1
 288 14 l 1,28,29
 227 -12 227 -12 165 -11 c 0,30,31
 78 -11 78 -11 30 41.5 c 128,-1,32
 -18 94 -18 94 -18 194 c 0,33,34
 -18 278 -18 278 26 366.5 c 128,-1,35
 70 455 70 455 144 526 c 1,0,1
EndSplineSet
Validated: 33
EndChar
StartChar: glyph84
Encoding: 84 -1 84
Width: 633
VWidth: 1000
GlyphClass: 2
Flags: W
LayerCount: 2
Fore
SplineSet
291 282 m 1,0,1
 223 285 223 285 191 282 c 0,2,3
 141 277 141 277 108 251 c 0,4,5
 70 222 70 222 70 174 c 0,6,7
 70 132 70 132 107.5 102 c 128,-1,8
 145 72 145 72 192 72 c 0,9,10
 233 72 233 72 263 89 c 0,11,12
 299 110 299 110 299 145 c 2,13,-1
 299 182 l 1,14,-1
 329 182 l 1,15,-1
 329 145 l 2,16,17
 329 107 329 107 370 88 c 0,18,19
 403 72 403 72 450 72 c 0,20,21
 499 72 499 72 534 103 c 128,-1,22
 569 134 569 134 568 180 c 0,23,24
 567 225 567 225 536 255 c 128,-1,25
 505 285 505 285 461 289 c 0,26,27
 400 294 400 294 330 280 c 1,28,29
 327 340 327 340 355 381 c 0,30,31
 387 428 387 428 450 432 c 0,32,33
 536 437 536 437 557 365 c 0,34,35
 559 358 559 358 559 350 c 0,36,37
 559 331 559 331 549 315 c 128,-1,38
 539 299 539 299 529 297 c 1,39,40
 599 263 599 263 607 178 c 0,41,42
 614 107 614 107 566.5 53.5 c 128,-1,43
 519 0 519 0 444 0 c 0,44,45
 348 0 348 0 312 82 c 1,46,47
 281 -1 281 -1 178 -1 c 0,48,49
 114 -1 114 -1 72.5 45 c 128,-1,50
 31 91 31 91 31 153 c 0,51,52
 31 166 31 166 33 179 c 0,53,54
 47 260 47 260 126 294 c 0,55,56
 176 315 176 315 261 309 c 1,57,58
 257 383 257 383 189 382 c 0,59,60
 163 382 163 382 151 354 c 0,61,62
 137 321 137 321 103 323 c 0,63,64
 70 325 70 325 68 358 c 0,65,66
 66 392 66 392 98 414.5 c 128,-1,67
 130 437 130 437 181 432 c 0,68,69
 298 420 298 420 291 282 c 1,0,1
362 309 m 1,70,71
 391 317 391 317 433 317 c 0,72,73
 480 317 480 317 506 306 c 1,74,75
 521 320 521 320 521 339 c 256,76,77
 521 358 521 358 505.5 373 c 128,-1,78
 490 388 490 388 468 391 c 0,79,80
 459 392 459 392 450 392 c 0,81,82
 368 392 368 392 362 309 c 1,70,71
617 242 m 1025,83,84
617 106 m 1024,85,86
EndSplineSet
Validated: 33
EndChar
StartChar: uni0D9A_uni0DBB_uni0DCA_uni200D.rphf_uni0DCA_uni200D_uni0DC0.abvs
Encoding: 383 -1 383
Width: 1425
GlyphClass: 3
Flags: W
LayerCount: 2
Fore
SplineSet
1389 428 m 0,0,1
 1389 294 1389 294 1340.5 193 c 128,-1,2
 1292 92 1292 92 1198.5 40.5 c 0,3,4
 1104 -11 1104 -11 974 -11 c 0,5,6
 876 -11 876 -11 808.5 16.5 c 0,7,8
 742 44 742 44 704 100 c 1,9,10
 686 45 686 45 649 17 c 128,-1,11
 612 -11 612 -11 558 -11 c 0,12,13
 462 -11 462 -11 408 79 c 1,14,15
 383 32 383 32 349 10.5 c 0,16,17
 314 -11 314 -11 264 -11 c 0,18,19
 190 -11 190 -11 145 35.5 c 128,-1,20
 100 82 100 82 100 170 c 1,21,-1
 87 148 l 1,22,-1
 22 184 l 1,23,24
 150 368 150 368 249 460 c 1,25,26
 228 538 228 538 172 538 c 0,27,28
 142 538 142 538 125 522 c 128,-1,29
 108 506 108 506 108 470 c 0,30,31
 108 455 108 455 110.5 443.5 c 128,-1,32
 113 432 113 432 119 413 c 1,33,-1
 48 398 l 1,34,35
 34 438 34 438 34 478 c 0,36,37
 34 538 34 538 71 572 c 128,-1,38
 108 606 108 606 172 606 c 0,39,40
 219 606 219 606 252.5 581 c 128,-1,41
 286 556 286 556 304 508 c 1,42,43
 380 570 380 570 461 598.5 c 128,-1,44
 542 627 542 627 656 627 c 0,45,46
 742 627 742 627 814 607 c 1,47,48
 851 627 851 627 906 627 c 0,49,50
 990 627 990 627 1034.5 578.5 c 128,-1,51
 1079 530 1079 530 1079 440 c 2,52,-1
 1079 398 l 1,53,-1
 955 398 l 2,54,55
 867 398 867 398 820.5 381 c 128,-1,56
 774 364 774 364 751.5 332.5 c 0,57,58
 729 302 729 302 729 256 c 0,59,60
 729 166 729 166 794.5 114 c 128,-1,61
 860 62 860 62 974 62 c 0,62,63
 1082 62 1082 62 1158 107 c 128,-1,64
 1234 152 1234 152 1273 236 c 128,-1,65
 1312 320 1312 320 1312 428 c 0,66,67
 1312 582 1312 582 1241 674 c 1,68,-1
 1236 661 l 1,69,-1
 1176 678 l 1,70,71
 1184 702 1184 702 1188 724 c 1,72,73
 1164 744 1164 744 1128 760 c 1,74,75
 1130 753 1130 753 1130 745 c 0,76,77
 1130 695 1130 695 1090 665.5 c 128,-1,78
 1050 636 1050 636 986 636 c 0,79,80
 908 636 908 636 857 666 c 128,-1,81
 806 696 806 696 788 750 c 1,82,83
 746 732 746 732 698 702 c 1,84,-1
 664 770 l 1,85,86
 724 805 724 805 783 824 c 1,87,88
 793 898 793 898 854.5 940.5 c 128,-1,89
 916 983 916 983 1017 983 c 0,90,91
 1095 983 1095 983 1150 958.5 c 128,-1,92
 1205 934 1205 934 1233.5 887 c 128,-1,93
 1262 840 1262 840 1262 781 c 2,94,-1
 1262 771 l 2,95,96
 1262 766 1262 766 1262 761 c 1,97,98
 1390 646 1390 646 1389 428 c 0,0,1
852 840 m 1,99,100
 914 856 914 856 988 856 c 0,101,102
 1105 856 1105 856 1191 808 c 1,103,104
 1179 860 1179 860 1132.5 889 c 128,-1,105
 1086 918 1086 918 1016 918 c 0,106,107
 888 918 888 918 852 840 c 1,99,100
990 696 m 1,108,-1
 992 696 l 2,109,110
 1027 696 1027 696 1045.5 708.5 c 128,-1,111
 1064 721 1064 721 1064 743 c 0,112,113
 1064 763 1064 763 1053 774.5 c 128,-1,114
 1042 786 1042 786 1021 786 c 0,115,116
 999 786 999 786 988.5 774 c 128,-1,117
 978 762 978 762 978 742 c 0,118,119
 978 716 978 716 990 696 c 1,108,-1
922 784 m 1,120,121
 884 780 884 780 850 771 c 1,122,123
 860 719 860 719 924 702 c 1,124,125
 914 724 914 724 914 750 c 0,126,127
 914 768 914 768 922 784 c 1,120,121
326 442 m 1,128,129
 376 460 376 460 444 460 c 0,130,131
 530 460 530 460 590 431.5 c 128,-1,132
 650 403 650 403 682 347 c 1,133,134
 710 405 710 405 775 435.5 c 128,-1,135
 840 466 840 466 934 466 c 2,136,-1
 1006 466 l 1,137,138
 1004 511 1004 511 979 535.5 c 128,-1,139
 954 560 954 560 912 560 c 0,140,141
 834 560 834 560 833 499 c 0,142,143
 834 490 834 490 836 478 c 1,144,-1
 764 466 l 1,145,146
 758 487 758 487 758 508 c 0,147,148
 758 530 758 530 764 546 c 1,149,150
 713 557 713 557 662 557 c 0,151,152
 556 557 556 557 476 530 c 128,-1,153
 396 503 396 503 326 442 c 1,128,129
248 364 m 1,154,155
 204 314 204 314 137 220 c 1,156,-1
 168 220 l 1,157,158
 166 208 166 208 166 192 c 0,159,160
 166 122 166 122 192 92 c 128,-1,161
 218 62 218 62 270 62 c 256,162,163
 322 62 322 62 348 98.5 c 0,164,165
 374 134 374 134 374 212 c 2,166,-1
 374 220 l 1,167,-1
 442 220 l 1,168,-1
 442 208 l 2,169,170
 442 140 442 140 470.5 101 c 128,-1,171
 499 62 499 62 550 62 c 256,172,173
 601 62 601 62 628.5 95 c 128,-1,174
 656 128 656 128 656 196 c 0,175,176
 656 290 656 290 598 340 c 128,-1,177
 540 390 540 390 430 390 c 0,178,179
 364 390 364 390 325 383 c 128,-1,180
 286 376 286 376 248 364 c 1,154,155
EndSplineSet
Validated: 545
Ligature2: "'abvs' Above Base Substitutions in Sinhala lookup 57 subtable" uni0D9A_uni0DCA_uni200D_uni0DC0.akhn uni0DBB_uni0DCA_uni200D.rphf
Ligature2: "'abvs' Above Base Substitutions in Sinhala lookup 57 subtable" uni0D9A uni0DBB_uni0DCA_uni200D.rphf uni0DCA uni200D uni0DC0
EndChar
StartChar: uni0D9A_uni0DCA_uni200D_uni0DC0.akhn
Encoding: 85 -1 85
Width: 1425
GlyphClass: 3
Flags: W
LayerCount: 2
Fore
SplineSet
1389 428 m 0,0,1
 1389 294 1389 294 1340.5 193 c 128,-1,2
 1292 92 1292 92 1198.5 40.5 c 0,3,4
 1104 -11 1104 -11 974 -11 c 0,5,6
 876 -11 876 -11 808.5 16.5 c 0,7,8
 742 44 742 44 704 100 c 1,9,10
 686 45 686 45 649 17 c 128,-1,11
 612 -11 612 -11 558 -11 c 0,12,13
 462 -11 462 -11 408 79 c 1,14,15
 383 32 383 32 349 10.5 c 0,16,17
 314 -11 314 -11 264 -11 c 0,18,19
 190 -11 190 -11 145 35.5 c 128,-1,20
 100 82 100 82 100 170 c 1,21,-1
 87 148 l 1,22,-1
 22 184 l 1,23,24
 150 368 150 368 249 460 c 1,25,26
 228 538 228 538 172 538 c 0,27,28
 142 538 142 538 125 522 c 128,-1,29
 108 506 108 506 108 470 c 0,30,31
 108 455 108 455 110.5 443.5 c 128,-1,32
 113 432 113 432 119 413 c 1,33,-1
 48 398 l 1,34,35
 34 438 34 438 34 478 c 0,36,37
 34 538 34 538 71 572 c 128,-1,38
 108 606 108 606 172 606 c 0,39,40
 219 606 219 606 252.5 581 c 128,-1,41
 286 556 286 556 304 508 c 1,42,43
 380 570 380 570 461 598.5 c 128,-1,44
 542 627 542 627 656 627 c 0,45,46
 742 627 742 627 814 607 c 1,47,48
 851 627 851 627 906 627 c 0,49,50
 990 627 990 627 1034.5 578.5 c 128,-1,51
 1079 530 1079 530 1079 440 c 2,52,-1
 1079 398 l 1,53,-1
 955 398 l 2,54,55
 867 398 867 398 820.5 381 c 128,-1,56
 774 364 774 364 751.5 332.5 c 0,57,58
 729 302 729 302 729 256 c 0,59,60
 729 166 729 166 794.5 114 c 128,-1,61
 860 62 860 62 974 62 c 0,62,63
 1082 62 1082 62 1158 107 c 128,-1,64
 1234 152 1234 152 1273 236 c 128,-1,65
 1312 320 1312 320 1312 428 c 0,66,67
 1312 542 1312 542 1271 622 c 128,-1,68
 1230 702 1230 702 1155 743 c 128,-1,69
 1080 784 1080 784 986 784 c 0,70,71
 907 784 907 784 838.5 765 c 128,-1,72
 770 746 770 746 698 702 c 1,73,-1
 664 770 l 1,74,75
 735 812 735 812 818 834 c 0,76,77
 902 856 902 856 988 856 c 0,78,79
 1108 856 1108 856 1200 805 c 128,-1,80
 1292 754 1292 754 1340.5 657.5 c 128,-1,81
 1389 561 1389 561 1389 428 c 0,0,1
326 442 m 1,82,83
 376 460 376 460 444 460 c 0,84,85
 530 460 530 460 590 431.5 c 128,-1,86
 650 403 650 403 682 347 c 1,87,88
 710 405 710 405 775 435.5 c 128,-1,89
 840 466 840 466 934 466 c 2,90,-1
 1006 466 l 1,91,92
 1004 511 1004 511 979 535.5 c 128,-1,93
 954 560 954 560 912 560 c 0,94,95
 834 560 834 560 833 499 c 0,96,97
 834 490 834 490 836 478 c 1,98,-1
 764 466 l 1,99,100
 758 487 758 487 758 508 c 0,101,102
 758 530 758 530 764 546 c 1,103,104
 713 557 713 557 662 557 c 0,105,106
 556 557 556 557 476 530 c 128,-1,107
 396 503 396 503 326 442 c 1,82,83
248 364 m 1,108,109
 204 314 204 314 137 220 c 1,110,-1
 168 220 l 1,111,112
 166 208 166 208 166 192 c 0,113,114
 166 122 166 122 192 92 c 128,-1,115
 218 62 218 62 270 62 c 256,116,117
 322 62 322 62 348 98.5 c 0,118,119
 374 134 374 134 374 212 c 2,120,-1
 374 220 l 1,121,-1
 442 220 l 1,122,-1
 442 208 l 2,123,124
 442 140 442 140 470.5 101 c 128,-1,125
 499 62 499 62 550 62 c 256,126,127
 601 62 601 62 628.5 95 c 128,-1,128
 656 128 656 128 656 196 c 0,129,130
 656 290 656 290 598 340 c 128,-1,131
 540 390 540 390 430 390 c 0,132,133
 364 390 364 390 325 383 c 128,-1,134
 286 376 286 376 248 364 c 1,108,109
EndSplineSet
Validated: 513
Ligature2: "'akhn' Akhand in Sinhala lookup 0 subtable" uni0D9A uni0DCA uni200D uni0DC0
EndChar
StartChar: uni0D9A_uni0DCA_uni200D_uni0DC0.akhn_uni0DCA.abvs
Encoding: 198 -1 198
Width: 1425
GlyphClass: 3
Flags: W
LayerCount: 2
Fore
SplineSet
1389 384 m 0,0,1
 1389 198 1389 198 1282.5 93.5 c 128,-1,2
 1176 -11 1176 -11 974 -11 c 0,3,4
 875 -11 875 -11 807.5 16.5 c 128,-1,5
 740 44 740 44 704 100 c 1,6,7
 686 46 686 46 649 17.5 c 128,-1,8
 612 -11 612 -11 558 -11 c 0,9,10
 462 -11 462 -11 408 79 c 1,11,12
 383 32 383 32 349 10.5 c 0,13,14
 314 -11 314 -11 264 -11 c 0,15,16
 190 -11 190 -11 145 35.5 c 128,-1,17
 100 82 100 82 100 170 c 1,18,-1
 87 148 l 1,19,-1
 22 184 l 1,20,21
 150 368 150 368 249 460 c 1,22,23
 228 538 228 538 172 538 c 0,24,25
 142 538 142 538 125 522 c 128,-1,26
 108 506 108 506 108 470 c 0,27,28
 108 455 108 455 110.5 443.5 c 128,-1,29
 113 432 113 432 119 413 c 1,30,-1
 48 398 l 1,31,32
 34 438 34 438 34 478 c 0,33,34
 34 538 34 538 71 572 c 128,-1,35
 108 606 108 606 172 606 c 0,36,37
 219 606 219 606 252.5 581 c 128,-1,38
 286 556 286 556 304 508 c 1,39,40
 380 570 380 570 461 598.5 c 128,-1,41
 542 627 542 627 656 627 c 0,42,43
 742 627 742 627 814 607 c 1,44,45
 851 627 851 627 906 627 c 0,46,47
 990 627 990 627 1034.5 578.5 c 128,-1,48
 1079 530 1079 530 1079 440 c 2,49,-1
 1079 398 l 1,50,-1
 955 398 l 2,51,52
 867 398 867 398 820.5 381 c 128,-1,53
 774 364 774 364 751.5 332.5 c 0,54,55
 729 302 729 302 729 256 c 0,56,57
 729 166 729 166 794.5 114 c 128,-1,58
 860 62 860 62 974 62 c 0,59,60
 1082 62 1082 62 1158 99.5 c 128,-1,61
 1234 137 1234 137 1273 210 c 128,-1,62
 1312 283 1312 283 1312 384 c 0,63,64
 1312 540 1312 540 1222 622.5 c 128,-1,65
 1132 705 1132 705 974 705 c 0,66,67
 896 705 896 705 831 694.5 c 128,-1,68
 766 684 766 684 690 661 c 1,69,-1
 670 728 l 1,70,71
 694 736 694 736 718 743 c 1,72,73
 712 763 712 763 713 791 c 0,74,75
 713 881 713 881 787.5 930.5 c 128,-1,76
 862 980 862 980 1010 980 c 0,77,78
 1172 980 1172 980 1254 930 c 128,-1,79
 1336 880 1336 880 1336 788 c 0,80,81
 1336 742 1336 742 1316 694 c 1,82,-1
 1248 714 l 1,83,84
 1263 746 1263 746 1263 788 c 0,85,86
 1263 848 1263 848 1200.5 878 c 128,-1,87
 1138 908 1138 908 1012 908 c 0,88,89
 938 908 938 908 887.5 895 c 128,-1,90
 837 882 837 882 811.5 856 c 128,-1,91
 786 830 786 830 786 788 c 0,92,93
 786 774 786 774 789 759 c 1,94,95
 884 776 884 776 976 776 c 0,96,97
 1102 776 1102 776 1196 730.5 c 128,-1,98
 1290 685 1290 685 1339.5 596.5 c 128,-1,99
 1389 508 1389 508 1389 384 c 0,0,1
682 347 m 1,100,101
 710 405 710 405 775 435.5 c 128,-1,102
 840 466 840 466 934 466 c 2,103,-1
 1006 466 l 1,104,105
 1004 511 1004 511 979 535.5 c 128,-1,106
 954 560 954 560 912 560 c 0,107,108
 834 560 834 560 833 499 c 0,109,110
 834 490 834 490 836 478 c 1,111,-1
 764 466 l 1,112,113
 758 487 758 487 758 508 c 0,114,115
 758 530 758 530 764 546 c 1,116,117
 713 557 713 557 662 557 c 0,118,119
 556 557 556 557 476 529.5 c 128,-1,120
 396 502 396 502 326 442 c 1,121,122
 376 460 376 460 444 460 c 0,123,124
 530 460 530 460 590 431.5 c 128,-1,125
 650 403 650 403 682 347 c 1,100,101
248 364 m 1,126,127
 204 314 204 314 137 220 c 1,128,-1
 168 220 l 1,129,130
 166 208 166 208 166 192 c 0,131,132
 166 122 166 122 192 92 c 128,-1,133
 218 62 218 62 270 62 c 256,134,135
 322 62 322 62 348 98.5 c 0,136,137
 374 134 374 134 374 212 c 2,138,-1
 374 220 l 1,139,-1
 442 220 l 1,140,-1
 442 208 l 2,141,142
 442 140 442 140 470.5 101 c 128,-1,143
 499 62 499 62 550 62 c 256,144,145
 601 62 601 62 628.5 95 c 128,-1,146
 656 128 656 128 656 196 c 0,147,148
 656 290 656 290 598 340 c 128,-1,149
 540 390 540 390 430 390 c 0,150,151
 364 390 364 390 325 383 c 128,-1,152
 286 376 286 376 248 364 c 1,126,127
EndSplineSet
Validated: 545
Ligature2: "'abvs' Above Base Substitutions in Sinhala lookup 57 subtable" uni0D9A_uni0DCA_uni200D_uni0DC0.akhn uni200D uni0DCA
Ligature2: "'abvs' Above Base Substitutions in Sinhala lookup 57 subtable" uni0D9A_uni0DCA_uni200D_uni0DC0.akhn uni0DCA
EndChar
StartChar: uni0D9A_uni0DCA_uni200D_uni0DC0.akhn_uni0DD2.abvs
Encoding: 266 -1 266
Width: 1425
GlyphClass: 3
Flags: W
LayerCount: 2
Fore
SplineSet
1389 384 m 0,0,1
 1389 198 1389 198 1283 93.5 c 128,-1,2
 1177 -11 1177 -11 974 -11 c 0,3,4
 875 -11 875 -11 807.5 16.5 c 128,-1,5
 740 44 740 44 704 100 c 1,6,7
 686 46 686 46 649 17.5 c 128,-1,8
 612 -11 612 -11 558 -11 c 0,9,10
 462 -11 462 -11 408 79 c 1,11,12
 383 32 383 32 349 10.5 c 0,13,14
 314 -11 314 -11 264 -11 c 0,15,16
 190 -11 190 -11 145 35.5 c 128,-1,17
 100 82 100 82 100 170 c 1,18,-1
 87 148 l 1,19,-1
 22 184 l 1,20,21
 150 368 150 368 249 460 c 1,22,23
 228 538 228 538 172 538 c 0,24,25
 142 538 142 538 125 522 c 128,-1,26
 108 506 108 506 108 470 c 0,27,28
 108 455 108 455 110.5 443.5 c 128,-1,29
 113 432 113 432 119 413 c 1,30,-1
 48 398 l 1,31,32
 34 438 34 438 34 478 c 0,33,34
 34 538 34 538 71 572 c 128,-1,35
 108 606 108 606 172 606 c 0,36,37
 219 606 219 606 252.5 581 c 128,-1,38
 286 556 286 556 304 508 c 1,39,40
 380 570 380 570 461 598.5 c 128,-1,41
 542 627 542 627 656 627 c 0,42,43
 742 627 742 627 814 607 c 1,44,45
 851 627 851 627 906 627 c 0,46,47
 990 627 990 627 1034.5 578.5 c 128,-1,48
 1079 530 1079 530 1079 440 c 2,49,-1
 1079 398 l 1,50,-1
 955 398 l 2,51,52
 867 398 867 398 820.5 381 c 128,-1,53
 774 364 774 364 751.5 332.5 c 0,54,55
 729 302 729 302 729 256 c 0,56,57
 729 166 729 166 794.5 114 c 128,-1,58
 860 62 860 62 974 62 c 0,59,60
 1084 62 1084 62 1160 100 c 128,-1,61
 1236 138 1236 138 1274 211.5 c 128,-1,62
 1312 285 1312 285 1312 383 c 0,63,64
 1312 499 1312 499 1269 566.5 c 128,-1,65
 1226 634 1226 634 1153.5 664 c 128,-1,66
 1081 694 1081 694 946 694 c 2,67,-1
 894 694 l 2,68,69
 815 694 815 694 779.5 706 c 128,-1,70
 744 718 744 718 722.5 746 c 128,-1,71
 701 774 701 774 701 818 c 0,72,73
 701 896 701 896 778 938 c 128,-1,74
 855 980 855 980 1005 980 c 0,75,76
 1170 980 1170 980 1254 931 c 128,-1,77
 1338 882 1338 882 1338 788 c 0,78,79
 1338 763 1338 763 1334 742.5 c 128,-1,80
 1330 722 1330 722 1318 694 c 1,81,-1
 1250 714 l 1,82,83
 1264 748 1264 748 1264 788 c 0,84,85
 1264 850 1264 850 1199 879 c 128,-1,86
 1134 908 1134 908 1006 908 c 0,87,88
 888 908 888 908 831.5 886 c 128,-1,89
 775 864 775 864 775 818 c 0,90,91
 775 791 775 791 794 778 c 0,92,93
 814 765 814 765 886 765 c 2,94,-1
 952 765 l 2,95,96
 1113 765 1113 765 1205.5 719.5 c 128,-1,97
 1298 674 1298 674 1343.5 589 c 128,-1,98
 1389 504 1389 504 1389 384 c 0,0,1
326 442 m 1,99,100
 376 460 376 460 444 460 c 0,101,102
 530 460 530 460 590 431.5 c 128,-1,103
 650 403 650 403 682 347 c 1,104,105
 710 405 710 405 775 435.5 c 128,-1,106
 840 466 840 466 934 466 c 2,107,-1
 1006 466 l 1,108,109
 1004 511 1004 511 979 535.5 c 128,-1,110
 954 560 954 560 912 560 c 0,111,112
 834 560 834 560 833 499 c 0,113,114
 834 490 834 490 836 478 c 1,115,-1
 764 466 l 1,116,117
 758 487 758 487 758 508 c 0,118,119
 758 530 758 530 764 546 c 1,120,121
 713 557 713 557 662 557 c 0,122,123
 556 557 556 557 476 530 c 128,-1,124
 396 503 396 503 326 442 c 1,99,100
248 364 m 1,125,126
 204 314 204 314 137 220 c 1,127,-1
 168 220 l 1,128,129
 166 208 166 208 166 192 c 0,130,131
 166 122 166 122 192 92 c 128,-1,132
 218 62 218 62 270 62 c 256,133,134
 322 62 322 62 348 98.5 c 0,135,136
 374 134 374 134 374 212 c 2,137,-1
 374 220 l 1,138,-1
 442 220 l 1,139,-1
 442 208 l 2,140,141
 442 140 442 140 470.5 101 c 128,-1,142
 499 62 499 62 550 62 c 256,143,144
 601 62 601 62 628.5 95 c 128,-1,145
 656 128 656 128 656 196 c 0,146,147
 656 290 656 290 598 340 c 128,-1,148
 540 390 540 390 430 390 c 0,149,150
 364 390 364 390 325 383 c 128,-1,151
 286 376 286 376 248 364 c 1,125,126
EndSplineSet
Validated: 513
Ligature2: "'abvs' Above Base Substitutions in Sinhala lookup 57 subtable" uni0D9A_uni0DCA_uni200D_uni0DC0.akhn uni0DD2
EndChar
StartChar: uni0D9A_uni0DCA_uni200D_uni0DC0.akhn_uni0DD3.abvs
Encoding: 328 -1 328
Width: 1425
GlyphClass: 3
Flags: W
LayerCount: 2
Fore
SplineSet
1389 384 m 0,0,1
 1389 198 1389 198 1283 93.5 c 128,-1,2
 1177 -11 1177 -11 974 -11 c 0,3,4
 875 -11 875 -11 807.5 16.5 c 128,-1,5
 740 44 740 44 704 100 c 1,6,7
 686 46 686 46 649 17.5 c 128,-1,8
 612 -11 612 -11 558 -11 c 0,9,10
 462 -11 462 -11 408 79 c 1,11,12
 383 32 383 32 349 10.5 c 0,13,14
 314 -11 314 -11 264 -11 c 0,15,16
 190 -11 190 -11 145 35.5 c 128,-1,17
 100 82 100 82 100 170 c 1,18,-1
 87 148 l 1,19,-1
 22 184 l 1,20,21
 150 368 150 368 249 460 c 1,22,23
 228 538 228 538 172 538 c 0,24,25
 142 538 142 538 125 522 c 128,-1,26
 108 506 108 506 108 470 c 0,27,28
 108 455 108 455 110.5 443.5 c 128,-1,29
 113 432 113 432 119 413 c 1,30,-1
 48 398 l 1,31,32
 34 438 34 438 34 478 c 0,33,34
 34 538 34 538 71 572 c 128,-1,35
 108 606 108 606 172 606 c 0,36,37
 219 606 219 606 252.5 581 c 128,-1,38
 286 556 286 556 304 508 c 1,39,40
 380 570 380 570 461 598.5 c 128,-1,41
 542 627 542 627 656 627 c 0,42,43
 742 627 742 627 814 607 c 1,44,45
 851 627 851 627 906 627 c 0,46,47
 990 627 990 627 1034.5 578.5 c 128,-1,48
 1079 530 1079 530 1079 440 c 2,49,-1
 1079 398 l 1,50,-1
 955 398 l 2,51,52
 867 398 867 398 820.5 381 c 128,-1,53
 774 364 774 364 751.5 332.5 c 0,54,55
 729 302 729 302 729 256 c 0,56,57
 729 166 729 166 794.5 114 c 128,-1,58
 860 62 860 62 974 62 c 0,59,60
 1084 62 1084 62 1160 100 c 128,-1,61
 1236 138 1236 138 1274 211.5 c 128,-1,62
 1312 285 1312 285 1312 383 c 0,63,64
 1312 499 1312 499 1269 566.5 c 128,-1,65
 1226 634 1226 634 1153.5 664 c 128,-1,66
 1081 694 1081 694 946 694 c 2,67,-1
 894 694 l 2,68,69
 815 694 815 694 779.5 706 c 128,-1,70
 744 718 744 718 722.5 746 c 128,-1,71
 701 774 701 774 701 818 c 0,72,73
 701 896 701 896 778 938 c 128,-1,74
 855 980 855 980 1005 980 c 0,75,76
 1118 980 1118 980 1195 957 c 128,-1,77
 1272 934 1272 934 1311 892 c 128,-1,78
 1350 850 1350 850 1350 794 c 0,79,80
 1350 749 1350 749 1327 720.5 c 128,-1,81
 1304 692 1304 692 1258 684 c 1,82,83
 1324 639 1324 639 1356.5 561.5 c 128,-1,84
 1389 484 1389 484 1389 384 c 0,0,1
952 765 m 2,85,86
 1040 766 1040 766 1106 750 c 1,87,88
 1098 768 1098 768 1098 792 c 0,89,90
 1098 847 1098 847 1146 896 c 1,91,92
 1080 908 1080 908 1006 908 c 0,93,94
 888 908 888 908 831.5 886 c 128,-1,95
 775 864 775 864 775 818 c 0,96,97
 775 791 775 791 794 778 c 0,98,99
 814 765 814 765 886 765 c 2,100,-1
 952 765 l 2,85,86
1211 876 m 1,101,102
 1166 842 1166 842 1166 794 c 0,103,104
 1166 767 1166 767 1182 752.5 c 128,-1,105
 1198 738 1198 738 1226 738 c 0,106,107
 1280 738 1280 738 1279 790 c 0,108,109
 1279 846 1279 846 1211 876 c 1,101,102
326 442 m 1,110,111
 376 460 376 460 444 460 c 0,112,113
 530 460 530 460 590 431.5 c 128,-1,114
 650 403 650 403 682 347 c 1,115,116
 710 405 710 405 775 435.5 c 128,-1,117
 840 466 840 466 934 466 c 2,118,-1
 1006 466 l 1,119,120
 1004 511 1004 511 979 535.5 c 128,-1,121
 954 560 954 560 912 560 c 0,122,123
 834 560 834 560 833 499 c 0,124,125
 834 490 834 490 836 478 c 1,126,-1
 764 466 l 1,127,128
 758 487 758 487 758 508 c 0,129,130
 758 530 758 530 764 546 c 1,131,132
 713 557 713 557 662 557 c 0,133,134
 556 557 556 557 476 530 c 128,-1,135
 396 503 396 503 326 442 c 1,110,111
248 364 m 1,136,137
 204 314 204 314 137 220 c 1,138,-1
 168 220 l 1,139,140
 166 208 166 208 166 192 c 0,141,142
 166 122 166 122 192 92 c 128,-1,143
 218 62 218 62 270 62 c 256,144,145
 322 62 322 62 348 98.5 c 0,146,147
 374 134 374 134 374 212 c 2,148,-1
 374 220 l 1,149,-1
 442 220 l 1,150,-1
 442 208 l 2,151,152
 442 140 442 140 470.5 101 c 128,-1,153
 499 62 499 62 550 62 c 256,154,155
 601 62 601 62 628.5 95 c 128,-1,156
 656 128 656 128 656 196 c 0,157,158
 656 290 656 290 598 340 c 128,-1,159
 540 390 540 390 430 390 c 0,160,161
 364 390 364 390 325 383 c 128,-1,162
 286 376 286 376 248 364 c 1,136,137
EndSplineSet
Validated: 545
Ligature2: "'abvs' Above Base Substitutions in Sinhala lookup 57 subtable" uni0D9A_uni0DCA_uni200D_uni0DC0.akhn uni0DD3
EndChar
StartChar: uni0D9A_uni0DCA_uni200D_uni0DC0.akhn_uni0DD4.blws
Encoding: 437 -1 437
Width: 1425
GlyphClass: 3
Flags: W
LayerCount: 2
Fore
SplineSet
974 -11 m 0,0,1
 876 -11 876 -11 808.5 16.5 c 0,2,3
 742 44 742 44 704 100 c 1,4,5
 686 45 686 45 649 17 c 128,-1,6
 612 -11 612 -11 558 -11 c 0,7,8
 462 -11 462 -11 408 79 c 1,9,10
 383 32 383 32 349 10.5 c 0,11,12
 314 -11 314 -11 264 -11 c 0,13,14
 190 -11 190 -11 145 35.5 c 128,-1,15
 100 82 100 82 100 170 c 1,16,-1
 87 148 l 1,17,-1
 22 184 l 1,18,19
 150 368 150 368 249 460 c 1,20,21
 228 538 228 538 172 538 c 0,22,23
 142 538 142 538 125 522 c 128,-1,24
 108 506 108 506 108 470 c 0,25,26
 108 455 108 455 110.5 443.5 c 128,-1,27
 113 432 113 432 119 413 c 1,28,-1
 48 398 l 1,29,30
 34 438 34 438 34 478 c 0,31,32
 34 538 34 538 71 572 c 128,-1,33
 108 606 108 606 172 606 c 0,34,35
 219 606 219 606 252.5 581 c 128,-1,36
 286 556 286 556 304 508 c 1,37,38
 380 570 380 570 461 598.5 c 128,-1,39
 542 627 542 627 656 627 c 0,40,41
 742 627 742 627 814 607 c 1,42,43
 851 627 851 627 906 627 c 0,44,45
 990 627 990 627 1034.5 578.5 c 128,-1,46
 1079 530 1079 530 1079 440 c 2,47,-1
 1079 398 l 1,48,-1
 955 398 l 2,49,50
 867 398 867 398 820.5 381 c 128,-1,51
 774 364 774 364 751.5 332.5 c 0,52,53
 729 302 729 302 729 256 c 0,54,55
 729 166 729 166 794.5 114 c 128,-1,56
 860 62 860 62 974 62 c 0,57,58
 1082 62 1082 62 1158 107 c 128,-1,59
 1234 152 1234 152 1273 236 c 128,-1,60
 1312 320 1312 320 1312 428 c 0,61,62
 1312 542 1312 542 1271 622 c 128,-1,63
 1230 702 1230 702 1155 743 c 128,-1,64
 1080 784 1080 784 986 784 c 0,65,66
 907 784 907 784 838.5 765 c 128,-1,67
 770 746 770 746 698 702 c 1,68,-1
 664 770 l 1,69,70
 735 812 735 812 818 834 c 0,71,72
 902 856 902 856 988 856 c 0,73,74
 1108 856 1108 856 1200 805 c 128,-1,75
 1292 754 1292 754 1340.5 657.5 c 128,-1,76
 1389 561 1389 561 1389 428 c 0,77,78
 1389 308 1389 308 1349 212 c 1,79,-1
 1349 -268 l 1,80,-1
 856 -268 l 2,81,82
 746 -268 746 -268 701 -235 c 128,-1,83
 656 -202 656 -202 656 -144 c 0,84,85
 656 -113 656 -113 670.5 -85.5 c 0,86,87
 686 -58 686 -58 720 -28 c 1,88,-1
 770 -80 l 1,89,90
 730 -108 730 -108 731 -140 c 0,91,92
 731 -161 731 -161 745.5 -175 c 128,-1,93
 760 -189 760 -189 789.5 -193.5 c 0,94,95
 818 -198 818 -198 886 -198 c 2,96,-1
 1275 -198 l 1,97,-1
 1275 13 l 2,98,99
 1275 57 1275 57 1277 105 c 1,100,101
 1226 47 1226 47 1148.5 18 c 128,-1,102
 1071 -11 1071 -11 974 -11 c 0,0,1
326 442 m 1,103,104
 376 460 376 460 444 460 c 0,105,106
 530 460 530 460 590 431.5 c 128,-1,107
 650 403 650 403 682 347 c 1,108,109
 710 405 710 405 775 435.5 c 128,-1,110
 840 466 840 466 934 466 c 2,111,-1
 1006 466 l 1,112,113
 1004 511 1004 511 979 535.5 c 128,-1,114
 954 560 954 560 912 560 c 0,115,116
 834 560 834 560 833 499 c 0,117,118
 834 490 834 490 836 478 c 1,119,-1
 764 466 l 1,120,121
 758 487 758 487 758 508 c 0,122,123
 758 530 758 530 764 546 c 1,124,125
 713 557 713 557 662 557 c 0,126,127
 556 557 556 557 476 530 c 128,-1,128
 396 503 396 503 326 442 c 1,103,104
248 364 m 1,129,130
 204 314 204 314 137 220 c 1,131,-1
 168 220 l 1,132,133
 166 208 166 208 166 192 c 0,134,135
 166 122 166 122 192 92 c 128,-1,136
 218 62 218 62 270 62 c 256,137,138
 322 62 322 62 348 98.5 c 0,139,140
 374 134 374 134 374 212 c 2,141,-1
 374 220 l 1,142,-1
 442 220 l 1,143,-1
 442 208 l 2,144,145
 442 140 442 140 470.5 101 c 128,-1,146
 499 62 499 62 550 62 c 256,147,148
 601 62 601 62 628.5 95 c 128,-1,149
 656 128 656 128 656 196 c 0,150,151
 656 290 656 290 598 340 c 128,-1,152
 540 390 540 390 430 390 c 0,153,154
 364 390 364 390 325 383 c 128,-1,155
 286 376 286 376 248 364 c 1,129,130
EndSplineSet
Validated: 545
Ligature2: "'blws' Below Base Substitutions in Sinhala lookup 58 subtable" uni0D9A_uni0DCA_uni200D_uni0DC0.akhn uni0DD4
EndChar
StartChar: uni0D9A_uni0DCA_uni200D_uni0DC0.akhn_uni0DD6.blws
Encoding: 490 -1 490
Width: 1425
GlyphClass: 3
Flags: W
LayerCount: 2
Fore
SplineSet
974 -11 m 0,0,1
 876 -11 876 -11 808.5 16.5 c 0,2,3
 742 44 742 44 704 100 c 1,4,5
 686 45 686 45 649 17 c 128,-1,6
 612 -11 612 -11 558 -11 c 0,7,8
 462 -11 462 -11 408 79 c 1,9,10
 383 32 383 32 349 10.5 c 0,11,12
 314 -11 314 -11 264 -11 c 0,13,14
 190 -11 190 -11 145 35.5 c 128,-1,15
 100 82 100 82 100 170 c 1,16,-1
 87 148 l 1,17,-1
 22 184 l 1,18,19
 150 368 150 368 249 460 c 1,20,21
 228 538 228 538 172 538 c 0,22,23
 142 538 142 538 125 522 c 128,-1,24
 108 506 108 506 108 470 c 0,25,26
 108 455 108 455 110.5 443.5 c 128,-1,27
 113 432 113 432 119 413 c 1,28,-1
 48 398 l 1,29,30
 34 438 34 438 34 478 c 0,31,32
 34 538 34 538 71 572 c 128,-1,33
 108 606 108 606 172 606 c 0,34,35
 219 606 219 606 252.5 581 c 128,-1,36
 286 556 286 556 304 508 c 1,37,38
 380 570 380 570 461 598.5 c 128,-1,39
 542 627 542 627 656 627 c 0,40,41
 742 627 742 627 814 607 c 1,42,43
 851 627 851 627 906 627 c 0,44,45
 990 627 990 627 1034.5 578.5 c 128,-1,46
 1079 530 1079 530 1079 440 c 2,47,-1
 1079 398 l 1,48,-1
 955 398 l 2,49,50
 867 398 867 398 820.5 381 c 128,-1,51
 774 364 774 364 751.5 332.5 c 0,52,53
 729 302 729 302 729 256 c 0,54,55
 729 166 729 166 794.5 114 c 128,-1,56
 860 62 860 62 974 62 c 0,57,58
 1082 62 1082 62 1158 107 c 128,-1,59
 1234 152 1234 152 1273 236 c 128,-1,60
 1312 320 1312 320 1312 428 c 0,61,62
 1312 542 1312 542 1271 622 c 128,-1,63
 1230 702 1230 702 1155 743 c 128,-1,64
 1080 784 1080 784 986 784 c 0,65,66
 907 784 907 784 838.5 765 c 128,-1,67
 770 746 770 746 698 702 c 1,68,-1
 664 770 l 1,69,70
 735 812 735 812 818 834 c 0,71,72
 902 856 902 856 988 856 c 0,73,74
 1108 856 1108 856 1200 805 c 128,-1,75
 1292 754 1292 754 1340.5 657.5 c 128,-1,76
 1389 561 1389 561 1389 428 c 0,77,78
 1389 308 1389 308 1349 212 c 1,79,-1
 1349 -268 l 1,80,-1
 1292 -268 l 1,81,82
 1229 -226 1229 -226 1185 -206 c 128,-1,83
 1141 -186 1141 -186 1088 -186 c 0,84,85
 1064 -186 1064 -186 1037.5 -193 c 128,-1,86
 1011 -200 1011 -200 966 -219 c 0,87,88
 897 -249 897 -249 861.5 -258.5 c 128,-1,89
 826 -268 826 -268 788 -268 c 0,90,91
 732 -268 732 -268 694 -235.5 c 0,92,93
 656 -202 656 -202 656 -144 c 0,94,95
 656 -111 656 -111 671 -84 c 0,96,97
 686 -58 686 -58 720 -28 c 1,98,-1
 770 -80 l 1,99,100
 730 -110 730 -110 731 -142 c 0,101,102
 731 -168 731 -168 748.5 -183 c 128,-1,103
 766 -198 766 -198 799 -198 c 0,104,105
 819 -198 819 -198 843 -192 c 128,-1,106
 867 -186 867 -186 920 -162 c 0,107,108
 980 -134 980 -134 1013.5 -124.5 c 0,109,110
 1048 -115 1048 -115 1090 -115 c 0,111,112
 1136 -115 1136 -115 1181 -131.5 c 128,-1,113
 1226 -148 1226 -148 1276 -180 c 1,114,115
 1275 -164 1275 -164 1275 -126 c 2,116,-1
 1275 13 l 2,117,118
 1275 73 1275 73 1277 105 c 1,119,120
 1226 47 1226 47 1148.5 18 c 128,-1,121
 1071 -11 1071 -11 974 -11 c 0,0,1
326 442 m 1,122,123
 376 460 376 460 444 460 c 0,124,125
 530 460 530 460 590 431.5 c 128,-1,126
 650 403 650 403 682 347 c 1,127,128
 710 405 710 405 775 435.5 c 128,-1,129
 840 466 840 466 934 466 c 2,130,-1
 1006 466 l 1,131,132
 1004 511 1004 511 979 535.5 c 128,-1,133
 954 560 954 560 912 560 c 0,134,135
 834 560 834 560 833 499 c 0,136,137
 834 490 834 490 836 478 c 1,138,-1
 764 466 l 1,139,140
 758 487 758 487 758 508 c 0,141,142
 758 530 758 530 764 546 c 1,143,144
 713 557 713 557 662 557 c 0,145,146
 556 557 556 557 476 530 c 128,-1,147
 396 503 396 503 326 442 c 1,122,123
248 364 m 1,148,149
 204 314 204 314 137 220 c 1,150,-1
 168 220 l 1,151,152
 166 208 166 208 166 192 c 0,153,154
 166 122 166 122 192 92 c 128,-1,155
 218 62 218 62 270 62 c 256,156,157
 322 62 322 62 348 98.5 c 0,158,159
 374 134 374 134 374 212 c 2,160,-1
 374 220 l 1,161,-1
 442 220 l 1,162,-1
 442 208 l 2,163,164
 442 140 442 140 470.5 101 c 128,-1,165
 499 62 499 62 550 62 c 256,166,167
 601 62 601 62 628.5 95 c 128,-1,168
 656 128 656 128 656 196 c 0,169,170
 656 290 656 290 598 340 c 128,-1,171
 540 390 540 390 430 390 c 0,172,173
 364 390 364 390 325 383 c 128,-1,174
 286 376 286 376 248 364 c 1,148,149
EndSplineSet
Validated: 545
Ligature2: "'blws' Below Base Substitutions in Sinhala lookup 58 subtable" uni0D9A_uni0DCA_uni200D_uni0DC0.akhn uni0DD6
EndChar
StartChar: uni0D9A_uni0DCA_uni200D_uni0DC2.akhn
Encoding: 86 -1 86
Width: 1043
VWidth: 1000
GlyphClass: 3
Flags: W
LayerCount: 2
Fore
SplineSet
178 267 m 1,0,1
 150 243 150 243 121 200 c 0,2,3
 100 169 100 169 68 94 c 1,4,5
 77 100 77 100 88 100 c 0,6,7
 98 100 98 100 127 88 c 0,8,9
 172 69 172 69 201 71 c 0,10,11
 240 74 240 74 267 107 c 0,12,13
 278 121 278 121 279 137 c 0,14,15
 279 150 279 150 279 163 c 1,16,-1
 309 163 l 1,17,18
 308 127 308 127 319 107 c 0,19,20
 342 67 342 67 403 71 c 0,21,22
 435 73 435 73 456.5 101.5 c 128,-1,23
 478 130 478 130 475 164 c 0,24,25
 466 260 466 260 344 282 c 0,26,27
 325 286 325 286 299 286 c 0,28,29
 224 286 224 286 178 267 c 1,0,1
915 300 m 1,30,31
 936 320 936 320 936 347 c 0,32,33
 936 370 936 370 920 388 c 128,-1,34
 904 406 904 406 878 407 c 0,35,36
 831 409 831 409 806.5 389.5 c 128,-1,37
 782 370 782 370 782 338 c 0,38,39
 782 328 782 328 784 318 c 1,40,41
 822 320 822 320 835 319 c 0,42,43
 883 316 883 316 915 300 c 1,30,31
745 230 m 0,44,45
 649 230 649 230 649 200 c 0,46,47
 649 160 649 160 746 160 c 0,48,49
 848 160 848 160 849 193 c 0,50,51
 850 230 850 230 745 230 c 0,44,45
509 83 m 1,52,53
 488 14 488 14 424 2 c 0,54,55
 410 -1 410 -1 398 -1 c 0,56,57
 328 -1 328 -1 296 63 c 1,58,59
 270 1 270 1 207 -1 c 0,60,61
 164 -2 164 -2 124 37 c 0,62,63
 122 39 122 39 110 59 c 0,64,65
 101 72 101 72 90 73 c 0,66,67
 70 74 70 74 57 50 c 0,68,69
 47 31 47 31 48 10 c 1,70,-1
 21 22 l 1,71,72
 38 132 38 132 107 229 c 0,73,74
 140 276 140 276 194 327 c 1,75,76
 194 358 194 358 190 369 c 0,77,78
 183 387 183 387 163 390 c 0,79,80
 120 396 120 396 120 348 c 0,81,82
 120 321 120 321 100 302 c 0,83,84
 91 294 91 294 72 294 c 0,85,86
 48 294 48 294 37.5 306 c 128,-1,87
 27 318 27 318 27 336 c 0,88,89
 27 363 27 363 48 390.5 c 128,-1,90
 69 418 69 418 100 428 c 0,91,92
 117 433 117 433 136 433 c 0,93,94
 175 433 175 433 202 411 c 128,-1,95
 229 389 229 389 226 344 c 1,96,97
 256 377 256 377 329 405 c 0,98,99
 415 438 415 438 501 433 c 0,100,101
 529 431 529 431 557 425 c 1,102,103
 576 435 576 435 617 433 c 0,104,105
 711 428 711 428 711 328 c 0,106,107
 711 312 711 312 708 295 c 1,108,109
 631 295 631 295 604 290 c 0,110,111
 563 282 563 282 536 253 c 0,112,113
 508 221 508 221 512 181 c 0,114,115
 518 124 518 124 598 94 c 0,116,117
 661 71 661 71 743 71 c 0,118,119
 827 71 827 71 889 97 c 0,120,121
 963 129 963 129 964 185 c 0,122,123
 965 243 965 243 921 270 c 1,124,125
 905 260 905 260 887 251.5 c 128,-1,126
 869 243 869 243 850 239 c 1,127,128
 879 226 879 226 879 197 c 0,129,130
 879 187 879 187 874 177 c 0,131,132
 855 138 855 138 743 135 c 0,133,134
 697 134 697 134 661 149 c 0,135,136
 615 168 615 168 619 204 c 0,137,138
 624 250 624 250 744 252 c 0,139,140
 773 252 773 252 835 258 c 0,141,142
 858 262 858 262 868 267 c 128,-1,143
 878 272 878 272 898 283 c 1,144,145
 884 289 884 289 861 294 c 0,146,147
 813 298 813 298 760 295 c 1,148,149
 754 317 754 317 754 337 c 0,150,151
 754 383 754 383 785.5 408.5 c 128,-1,152
 817 434 817 434 874 432 c 0,153,154
 911 431 911 431 936 409.5 c 128,-1,155
 961 388 961 388 964 355 c 0,156,157
 968 309 968 309 936 288 c 1,158,159
 1005 241 1005 241 996 156 c 0,160,161
 988 81 988 81 916 39 c 0,162,163
 848 0 848 0 745 0 c 0,164,165
 579 0 579 0 509 83 c 1,52,53
486 227 m 1,166,167
 516 298 516 298 602 312 c 0,168,169
 627 316 627 316 683 316 c 1,170,171
 685 326 685 326 685 335 c 0,172,173
 685 390 685 390 633 394 c 0,174,175
 598 397 598 397 588 369 c 0,176,177
 574 331 574 331 549 326 c 0,178,179
 528 322 528 322 515 334 c 128,-1,180
 502 346 502 346 502 364 c 0,181,182
 502 371 502 371 505 378 c 0,183,184
 511 394 511 394 520 404 c 1,185,186
 492 404 492 404 464 404 c 0,187,188
 429 402 429 402 385 390 c 0,189,190
 332 375 332 375 285 350 c 128,-1,191
 238 325 238 325 221 303 c 1,192,193
 264 313 264 313 304 313 c 0,194,195
 435 313 435 313 486 227 c 1,166,167
EndSplineSet
Validated: 545
Ligature2: "'akhn' Akhand in Sinhala lookup 0 subtable" uni0D9A uni0DCA uni200D uni0DC2
EndChar
StartChar: uni0D9A_uni0DCA_uni200D_uni0DC2.akhn_uni0DCA.abvs
Encoding: 199 -1 199
Width: 1425
GlyphClass: 3
Flags: W
LayerCount: 2
Fore
SplineSet
1356 490 m 256,0,1
 1356 444 1356 444 1334 403 c 1,2,3
 1361 377 1361 377 1374.5 340.5 c 128,-1,4
 1388 304 1388 304 1388 257 c 0,5,6
 1388 127 1388 127 1294 58 c 128,-1,7
 1200 -11 1200 -11 1019 -11 c 0,8,9
 905 -11 905 -11 826.5 17.5 c 128,-1,10
 748 46 748 46 704 103 c 1,11,12
 686 46 686 46 649 17.5 c 128,-1,13
 612 -11 612 -11 558 -11 c 0,14,15
 462 -11 462 -11 408 79 c 1,16,17
 383 32 383 32 349 10.5 c 0,18,19
 314 -11 314 -11 264 -11 c 0,20,21
 190 -11 190 -11 145 35.5 c 128,-1,22
 100 82 100 82 100 170 c 1,23,-1
 87 148 l 1,24,-1
 22 184 l 1,25,26
 150 368 150 368 249 460 c 1,27,28
 228 538 228 538 172 538 c 0,29,30
 142 538 142 538 125 522 c 128,-1,31
 108 506 108 506 108 470 c 0,32,33
 108 455 108 455 110.5 443.5 c 128,-1,34
 113 432 113 432 119 413 c 1,35,-1
 48 398 l 1,36,37
 34 438 34 438 34 478 c 0,38,39
 34 538 34 538 71 572 c 128,-1,40
 108 606 108 606 172 606 c 0,41,42
 219 606 219 606 252.5 581 c 128,-1,43
 286 556 286 556 304 508 c 1,44,45
 380 570 380 570 461 598.5 c 128,-1,46
 542 627 542 627 656 627 c 0,47,48
 716 627 716 627 765 618 c 1,49,50
 792 627 792 627 830 627 c 0,51,52
 914 627 914 627 959 578.5 c 128,-1,53
 1004 530 1004 530 1004 440 c 2,54,-1
 1004 398 l 1,55,-1
 916 398 l 2,56,57
 816 398 816 398 772 363 c 128,-1,58
 728 328 728 328 728 255 c 0,59,60
 728 163 728 163 802.5 112.5 c 0,61,62
 878 62 878 62 1020 62 c 0,63,64
 1163 62 1163 62 1238 112.5 c 0,65,66
 1313 162 1313 162 1313 254 c 0,67,68
 1312 312 1312 312 1286 346 c 1,69,70
 1248 310 1248 310 1193 292 c 1,71,72
 1207 266 1207 266 1207 238 c 0,73,74
 1207 180 1207 180 1159.5 153 c 128,-1,75
 1112 126 1112 126 1016 126 c 0,76,77
 922 126 922 126 873 154 c 128,-1,78
 824 182 824 182 824 236 c 0,79,80
 824 276 824 276 844 296.5 c 128,-1,81
 864 317 864 317 901 326.5 c 128,-1,82
 938 336 938 336 1002 336 c 2,83,-1
 1050 336 l 2,84,85
 1120 336 1120 336 1161.5 348 c 128,-1,86
 1203 360 1203 360 1231 384 c 1,87,88
 1192 398 1192 398 1126 398 c 2,89,-1
 1037 398 l 1,90,-1
 1037 440 l 2,91,92
 1037 530 1037 530 1081 578.5 c 128,-1,93
 1125 627 1125 627 1206 627 c 2,94,-1
 1212 627 l 1,95,-1
 1212 836 l 2,96,97
 1212 885 1212 885 1200.5 904 c 0,98,99
 1188 923 1188 923 1160 934 c 1,100,-1
 1187 996 l 1,101,102
 1240 982 1240 982 1254 948 c 1,103,104
 1278 996 1278 996 1334 996 c 0,105,106
 1376 996 1376 996 1400.5 971 c 128,-1,107
 1425 946 1425 946 1425 902 c 0,108,109
 1425 854 1425 854 1396.5 827 c 128,-1,110
 1368 800 1368 800 1316 800 c 0,111,112
 1294 800 1294 800 1282 802 c 1,113,-1
 1282 614 l 1,114,115
 1319 598 1319 598 1337.5 567 c 128,-1,116
 1356 536 1356 536 1356 490 c 256,0,1
1282 860 m 1,117,118
 1296 858 1296 858 1310 858 c 0,119,120
 1366 858 1366 858 1366 900 c 0,121,122
 1366 918 1366 918 1356 928.5 c 128,-1,123
 1346 939 1346 939 1328 939 c 0,124,125
 1304 939 1304 939 1293 925.5 c 128,-1,126
 1282 912 1282 912 1282 873 c 2,127,-1
 1282 860 l 1,117,118
326 442 m 1,128,129
 376 460 376 460 444 460 c 0,130,131
 529 460 529 460 587.5 432 c 128,-1,132
 646 404 646 404 678 348 c 1,133,134
 702 407 702 407 761 436.5 c 128,-1,135
 820 466 820 466 915 466 c 2,136,-1
 931 466 l 1,137,138
 929 510 929 510 903.5 535 c 128,-1,139
 878 560 878 560 836 560 c 0,140,141
 758 560 758 560 758 499 c 0,142,143
 758 484 758 484 762 468 c 1,144,-1
 690 457 l 1,145,146
 684 483 684 483 684 508 c 0,147,148
 684 535 684 535 692 556 c 1,149,150
 677 557 677 557 662 557 c 0,151,152
 556 557 556 557 476 530 c 128,-1,153
 396 503 396 503 326 442 c 1,128,129
1126 466 m 2,154,155
 1171 466 1171 466 1208 460 c 0,156,157
 1244 454 1244 454 1274 441 c 1,158,159
 1282 462 1282 462 1283 482 c 0,160,161
 1283 518 1283 518 1262.5 539 c 128,-1,162
 1242 560 1242 560 1204 560 c 0,163,164
 1162 560 1162 560 1137 535 c 128,-1,165
 1112 510 1112 510 1110 466 c 1,166,-1
 1126 466 l 2,154,155
248 364 m 1,167,168
 204 314 204 314 137 220 c 1,169,-1
 168 220 l 1,170,171
 166 208 166 208 166 192 c 0,172,173
 166 122 166 122 192 92 c 128,-1,174
 218 62 218 62 270 62 c 256,175,176
 322 62 322 62 348 98.5 c 0,177,178
 374 134 374 134 374 212 c 2,179,-1
 374 220 l 1,180,-1
 442 220 l 1,181,-1
 442 208 l 2,182,183
 442 140 442 140 470.5 101 c 128,-1,184
 499 62 499 62 550 62 c 256,185,186
 601 62 601 62 628.5 95 c 128,-1,187
 656 128 656 128 656 196 c 0,188,189
 656 290 656 290 598 340 c 128,-1,190
 540 390 540 390 430 390 c 0,191,192
 364 390 364 390 325 383 c 128,-1,193
 286 376 286 376 248 364 c 1,167,168
1126 277 m 1,194,195
 1092 272 1092 272 1041 272 c 2,196,-1
 990 272 l 2,197,198
 934 272 934 272 914 263 c 128,-1,199
 894 254 894 254 894 232 c 0,200,201
 894 208 894 208 925 198.5 c 128,-1,202
 956 189 956 189 1018 189 c 0,203,204
 1078 189 1078 189 1107.5 199.5 c 128,-1,205
 1137 210 1137 210 1137 240 c 0,206,207
 1136 262 1136 262 1126 277 c 1,194,195
EndSplineSet
Validated: 513
Ligature2: "'abvs' Above Base Substitutions in Sinhala lookup 57 subtable" uni0D9A_uni0DCA_uni200D_uni0DC2.akhn uni200D uni0DCA
Ligature2: "'abvs' Above Base Substitutions in Sinhala lookup 57 subtable" uni0D9A_uni0DCA_uni200D_uni0DC2.akhn uni0DCA
EndChar
StartChar: uni0D9A_uni0DCA_uni200D_uni0DC2.akhn_uni0DD2.abvs
Encoding: 267 -1 267
Width: 1425
GlyphClass: 3
Flags: W
LayerCount: 2
Fore
SplineSet
1356 490 m 0,0,1
 1356 444 1356 444 1334 403 c 1,2,3
 1361 377 1361 377 1374.5 340.5 c 128,-1,4
 1388 304 1388 304 1388 257 c 0,5,6
 1388 127 1388 127 1294 58 c 128,-1,7
 1200 -11 1200 -11 1019 -11 c 0,8,9
 905 -11 905 -11 826.5 17.5 c 128,-1,10
 748 46 748 46 704 103 c 1,11,12
 686 46 686 46 649 17.5 c 128,-1,13
 612 -11 612 -11 558 -11 c 0,14,15
 462 -11 462 -11 408 79 c 1,16,17
 383 32 383 32 349 10.5 c 0,18,19
 314 -11 314 -11 264 -11 c 0,20,21
 190 -11 190 -11 145 35.5 c 128,-1,22
 100 82 100 82 100 170 c 1,23,-1
 87 148 l 1,24,-1
 22 184 l 1,25,26
 150 368 150 368 249 460 c 1,27,28
 228 538 228 538 172 538 c 0,29,30
 142 538 142 538 125 522 c 128,-1,31
 108 506 108 506 108 470 c 0,32,33
 108 455 108 455 110.5 443.5 c 128,-1,34
 113 432 113 432 119 413 c 1,35,-1
 48 398 l 1,36,37
 34 438 34 438 34 478 c 0,38,39
 34 538 34 538 71 572 c 128,-1,40
 108 606 108 606 172 606 c 0,41,42
 219 606 219 606 252.5 581 c 128,-1,43
 286 556 286 556 304 508 c 1,44,45
 380 570 380 570 461 598.5 c 128,-1,46
 542 627 542 627 656 627 c 0,47,48
 716 627 716 627 765 618 c 1,49,50
 792 627 792 627 830 627 c 0,51,52
 914 627 914 627 959 578.5 c 128,-1,53
 1004 530 1004 530 1004 440 c 2,54,-1
 1004 398 l 1,55,-1
 916 398 l 2,56,57
 816 398 816 398 772 363 c 128,-1,58
 728 328 728 328 728 255 c 0,59,60
 728 163 728 163 802.5 112.5 c 0,61,62
 878 62 878 62 1020 62 c 0,63,64
 1163 62 1163 62 1238 112.5 c 0,65,66
 1313 162 1313 162 1313 254 c 0,67,68
 1312 312 1312 312 1286 346 c 1,69,70
 1248 310 1248 310 1193 292 c 1,71,72
 1207 266 1207 266 1207 238 c 0,73,74
 1207 180 1207 180 1159.5 153 c 128,-1,75
 1112 126 1112 126 1016 126 c 0,76,77
 922 126 922 126 873 154 c 128,-1,78
 824 182 824 182 824 236 c 0,79,80
 824 276 824 276 844 296.5 c 128,-1,81
 864 317 864 317 901 326.5 c 128,-1,82
 938 336 938 336 1002 336 c 2,83,-1
 1050 336 l 2,84,85
 1120 336 1120 336 1161.5 348 c 128,-1,86
 1203 360 1203 360 1231 384 c 1,87,88
 1192 398 1192 398 1126 398 c 2,89,-1
 1037 398 l 1,90,-1
 1037 440 l 2,91,92
 1037 530 1037 530 1081 578.5 c 128,-1,93
 1125 627 1125 627 1206 627 c 0,94,95
 1279 627 1279 627 1317.5 591.5 c 128,-1,96
 1356 556 1356 556 1356 490 c 0,0,1
326 442 m 1,97,98
 376 460 376 460 444 460 c 0,99,100
 529 460 529 460 587.5 432 c 128,-1,101
 646 404 646 404 678 348 c 1,102,103
 702 407 702 407 761 436.5 c 128,-1,104
 820 466 820 466 915 466 c 2,105,-1
 931 466 l 1,106,107
 929 510 929 510 903.5 535 c 128,-1,108
 878 560 878 560 836 560 c 0,109,110
 758 560 758 560 758 499 c 0,111,112
 758 484 758 484 762 468 c 1,113,-1
 690 457 l 1,114,115
 684 483 684 483 684 508 c 0,116,117
 684 535 684 535 692 556 c 1,118,119
 677 557 677 557 662 557 c 0,120,121
 556 557 556 557 476 530 c 128,-1,122
 396 503 396 503 326 442 c 1,97,98
1126 466 m 2,123,124
 1171 466 1171 466 1208 460 c 0,125,126
 1244 454 1244 454 1274 441 c 1,127,128
 1282 462 1282 462 1283 482 c 0,129,130
 1283 518 1283 518 1262.5 539 c 128,-1,131
 1242 560 1242 560 1204 560 c 0,132,133
 1162 560 1162 560 1137 535 c 128,-1,134
 1112 510 1112 510 1110 466 c 1,135,-1
 1126 466 l 2,123,124
248 364 m 1,136,137
 204 314 204 314 137 220 c 1,138,-1
 168 220 l 1,139,140
 166 208 166 208 166 192 c 0,141,142
 166 122 166 122 192 92 c 128,-1,143
 218 62 218 62 270 62 c 256,144,145
 322 62 322 62 348 98.5 c 0,146,147
 374 134 374 134 374 212 c 2,148,-1
 374 220 l 1,149,-1
 442 220 l 1,150,-1
 442 208 l 2,151,152
 442 140 442 140 470.5 101 c 128,-1,153
 499 62 499 62 550 62 c 256,154,155
 601 62 601 62 628.5 95 c 128,-1,156
 656 128 656 128 656 196 c 0,157,158
 656 290 656 290 598 340 c 128,-1,159
 540 390 540 390 430 390 c 0,160,161
 364 390 364 390 325 383 c 128,-1,162
 286 376 286 376 248 364 c 1,136,137
1126 277 m 1,163,164
 1092 272 1092 272 1041 272 c 2,165,-1
 990 272 l 2,166,167
 934 272 934 272 914 263 c 128,-1,168
 894 254 894 254 894 232 c 0,169,170
 894 208 894 208 925 198.5 c 128,-1,171
 956 189 956 189 1018 189 c 0,172,173
 1078 189 1078 189 1107.5 199.5 c 128,-1,174
 1137 210 1137 210 1137 240 c 0,175,176
 1136 262 1136 262 1126 277 c 1,163,164
1224 650 m 1,177,178
 1234 676 1234 676 1234 710 c 0,179,180
 1234 768 1234 768 1180.5 796.5 c 128,-1,181
 1127 825 1127 825 1021 825 c 0,182,183
 914 825 914 825 861 795.5 c 128,-1,184
 808 766 808 766 808 708 c 0,185,186
 808 676 808 676 818 650 c 1,187,-1
 748 638 l 1,188,189
 734 674 734 674 734 711 c 0,190,191
 734 799 734 799 807 848 c 128,-1,192
 880 897 880 897 1021 897 c 256,193,194
 1162 897 1162 897 1234.5 848.5 c 128,-1,195
 1307 800 1307 800 1307 712 c 0,196,197
 1307 672 1307 672 1293 638 c 1,198,-1
 1224 650 l 1,177,178
EndSplineSet
Validated: 513
Ligature2: "'abvs' Above Base Substitutions in Sinhala lookup 57 subtable" uni0D9A_uni0DCA_uni200D_uni0DC2.akhn uni0DD2
EndChar
StartChar: uni0D9A_uni0DCA_uni200D_uni0DC2.akhn_uni0DD3.abvs
Encoding: 329 -1 329
Width: 1425
GlyphClass: 3
Flags: W
LayerCount: 2
Fore
SplineSet
1356 490 m 0,0,1
 1356 444 1356 444 1334 403 c 1,2,3
 1361 377 1361 377 1374.5 340.5 c 128,-1,4
 1388 304 1388 304 1388 257 c 0,5,6
 1388 127 1388 127 1294 58 c 128,-1,7
 1200 -11 1200 -11 1019 -11 c 0,8,9
 905 -11 905 -11 826.5 17.5 c 128,-1,10
 748 46 748 46 704 103 c 1,11,12
 686 46 686 46 649 17.5 c 128,-1,13
 612 -11 612 -11 558 -11 c 0,14,15
 462 -11 462 -11 408 79 c 1,16,17
 383 32 383 32 349 10.5 c 0,18,19
 314 -11 314 -11 264 -11 c 0,20,21
 190 -11 190 -11 145 35.5 c 128,-1,22
 100 82 100 82 100 170 c 1,23,-1
 87 148 l 1,24,-1
 22 184 l 1,25,26
 150 368 150 368 249 460 c 1,27,28
 228 538 228 538 172 538 c 0,29,30
 142 538 142 538 125 522 c 128,-1,31
 108 506 108 506 108 470 c 0,32,33
 108 455 108 455 110.5 443.5 c 128,-1,34
 113 432 113 432 119 413 c 1,35,-1
 48 398 l 1,36,37
 34 438 34 438 34 478 c 0,38,39
 34 538 34 538 71 572 c 128,-1,40
 108 606 108 606 172 606 c 0,41,42
 219 606 219 606 252.5 581 c 128,-1,43
 286 556 286 556 304 508 c 1,44,45
 380 570 380 570 461 598.5 c 128,-1,46
 542 627 542 627 656 627 c 0,47,48
 716 627 716 627 765 618 c 1,49,50
 792 627 792 627 830 627 c 0,51,52
 914 627 914 627 959 578.5 c 128,-1,53
 1004 530 1004 530 1004 440 c 2,54,-1
 1004 398 l 1,55,-1
 916 398 l 2,56,57
 816 398 816 398 772 363 c 128,-1,58
 728 328 728 328 728 255 c 0,59,60
 728 163 728 163 802.5 112.5 c 0,61,62
 878 62 878 62 1020 62 c 0,63,64
 1163 62 1163 62 1238 112.5 c 0,65,66
 1313 162 1313 162 1313 254 c 0,67,68
 1312 312 1312 312 1286 346 c 1,69,70
 1248 310 1248 310 1193 292 c 1,71,72
 1207 266 1207 266 1207 238 c 0,73,74
 1207 180 1207 180 1159.5 153 c 128,-1,75
 1112 126 1112 126 1016 126 c 0,76,77
 922 126 922 126 873 154 c 128,-1,78
 824 182 824 182 824 236 c 0,79,80
 824 276 824 276 844 296.5 c 128,-1,81
 864 317 864 317 901 326.5 c 128,-1,82
 938 336 938 336 1002 336 c 2,83,-1
 1050 336 l 2,84,85
 1120 336 1120 336 1161.5 348 c 128,-1,86
 1203 360 1203 360 1231 384 c 1,87,88
 1192 398 1192 398 1126 398 c 2,89,-1
 1037 398 l 1,90,-1
 1037 440 l 2,91,92
 1037 512 1037 512 1065 557 c 0,93,94
 1094 602 1094 602 1146 618 c 1,95,96
 1068 638 1068 638 1068 720 c 0,97,98
 1068 772 1068 772 1112 819 c 1,99,100
 1074 825 1074 825 1021 825 c 0,101,102
 914 825 914 825 861 795.5 c 128,-1,103
 808 766 808 766 808 708 c 0,104,105
 808 676 808 676 818 650 c 1,106,-1
 748 638 l 1,107,108
 734 674 734 674 734 711 c 0,109,110
 734 799 734 799 807 848 c 128,-1,111
 880 897 880 897 1021 897 c 0,112,113
 1169 897 1169 897 1245.5 850 c 0,114,115
 1322 804 1322 804 1322 722 c 0,116,117
 1322 645 1322 645 1256 622 c 1,118,119
 1304 611 1304 611 1330 577.5 c 128,-1,120
 1356 544 1356 544 1356 490 c 0,0,1
1180 804 m 1,121,122
 1136 770 1136 770 1136 722 c 0,123,124
 1136 696 1136 696 1152 681 c 128,-1,125
 1168 666 1168 666 1196 666 c 0,126,127
 1250 666 1250 666 1250 718 c 0,128,129
 1250 778 1250 778 1180 804 c 1,121,122
326 442 m 1,130,131
 376 460 376 460 444 460 c 0,132,133
 529 460 529 460 587.5 432 c 128,-1,134
 646 404 646 404 678 348 c 1,135,136
 702 407 702 407 761 436.5 c 128,-1,137
 820 466 820 466 915 466 c 2,138,-1
 931 466 l 1,139,140
 929 510 929 510 903.5 535 c 128,-1,141
 878 560 878 560 836 560 c 0,142,143
 758 560 758 560 758 499 c 0,144,145
 758 484 758 484 762 468 c 1,146,-1
 690 457 l 1,147,148
 684 483 684 483 684 508 c 0,149,150
 684 535 684 535 692 556 c 1,151,152
 677 557 677 557 662 557 c 0,153,154
 556 557 556 557 476 530 c 128,-1,155
 396 503 396 503 326 442 c 1,130,131
1126 466 m 2,156,157
 1171 466 1171 466 1208 460 c 0,158,159
 1244 454 1244 454 1274 441 c 1,160,161
 1282 462 1282 462 1283 482 c 0,162,163
 1283 518 1283 518 1262.5 539 c 128,-1,164
 1242 560 1242 560 1204 560 c 0,165,166
 1162 560 1162 560 1137 535 c 128,-1,167
 1112 510 1112 510 1110 466 c 1,168,-1
 1126 466 l 2,156,157
248 364 m 1,169,170
 204 314 204 314 137 220 c 1,171,-1
 168 220 l 1,172,173
 166 208 166 208 166 192 c 0,174,175
 166 122 166 122 192 92 c 128,-1,176
 218 62 218 62 270 62 c 256,177,178
 322 62 322 62 348 98.5 c 0,179,180
 374 134 374 134 374 212 c 2,181,-1
 374 220 l 1,182,-1
 442 220 l 1,183,-1
 442 208 l 2,184,185
 442 140 442 140 470.5 101 c 128,-1,186
 499 62 499 62 550 62 c 256,187,188
 601 62 601 62 628.5 95 c 128,-1,189
 656 128 656 128 656 196 c 0,190,191
 656 290 656 290 598 340 c 128,-1,192
 540 390 540 390 430 390 c 0,193,194
 364 390 364 390 325 383 c 128,-1,195
 286 376 286 376 248 364 c 1,169,170
1126 277 m 1,196,197
 1092 272 1092 272 1041 272 c 2,198,-1
 990 272 l 2,199,200
 934 272 934 272 914 263 c 128,-1,201
 894 254 894 254 894 232 c 0,202,203
 894 208 894 208 925 198.5 c 128,-1,204
 956 189 956 189 1018 189 c 0,205,206
 1078 189 1078 189 1107.5 199.5 c 128,-1,207
 1137 210 1137 210 1137 240 c 0,208,209
 1136 262 1136 262 1126 277 c 1,196,197
EndSplineSet
Validated: 513
Ligature2: "'abvs' Above Base Substitutions in Sinhala lookup 57 subtable" uni0D9A_uni0DCA_uni200D_uni0DC2.akhn uni0DD3
EndChar
